<svg version="1.1" xmlns="http://www.w3.org/2000/svg" xmlns:xlink="http://www.w3.org/1999/xlink" x="0px" y="0px"
	 viewBox="0 0 291.2 294.7" style="enable-background:new 0 0 291.2 294.7;" xml:space="preserve">
<g id="Vector_Smart_Object_00000023978050721904661730000006533140736407449515_">
	<g>
		<defs>
			<rect id="SVGID_00000056385964316765096120000005458145322287093144_" x="2.2" y="3.9" width="286.8" height="286.8"/>
		</defs>
		<clipPath id="SVGID_00000017483334545849467890000002773002346334667176_">
			<use xlink:href="#SVGID_00000056385964316765096120000005458145322287093144_"  style="overflow:visible;"/>
		</clipPath>
		<g style="clip-path:url(#SVGID_00000017483334545849467890000002773002346334667176_);">
			<defs>
				<rect id="SVGID_00000000927236074164672070000009925920900736720769_" x="2.2" y="3.9" width="286.8" height="286.8"/>
			</defs>
			<clipPath id="SVGID_00000142886015128247558480000010034073495515466393_">
				<use xlink:href="#SVGID_00000000927236074164672070000009925920900736720769_"  style="overflow:visible;"/>
			</clipPath>
			<path style="clip-path:url(#SVGID_00000142886015128247558480000010034073495515466393_);fill:#E2E391;" d="M267.6,152H282
				c2.6,0,4.7-2.1,4.7-4.7c0-2.6-2.1-4.7-4.7-4.7h-14.4l20-20c1.8-1.8,1.8-4.8,0-6.6c-1.8-1.8-4.8-1.8-6.6,0l-26.6,26.6h-10.9
				l13.9-13.9c1.8-1.8,1.8-4.8,0-6.6c-1.8-1.8-4.8-1.8-6.6,0l-20.5,20.5h-10.9l9-9c1.8-1.8,1.8-4.8,0-6.6c-1.8-1.8-4.8-1.8-6.6,0
				L206,142.6h-20.5l-8.4-8.4v-11.8l14.5-14.5h22.1c2.6,0,4.7-2.1,4.7-4.7c0-2.6-2.1-4.7-4.7-4.7H201l7.7-7.7h29
				c2.6,0,4.7-2.1,4.7-4.7c0-2.6-2.1-4.7-4.7-4.7h-19.7l7.7-7.7h37.7c2.6,0,4.7-2.1,4.7-4.7c0-2.6-2.1-4.7-4.7-4.7h-28.3l10.2-10.2
				c1.8-1.8,1.8-4.8,0-6.6c-1.8-1.8-4.8-1.8-6.6,0l-10.2,10.2V29.4c0-2.6-2.1-4.7-4.7-4.7c-2.6,0-4.7,2.1-4.7,4.7v37.7l-7.7,7.7
				V55.1c0-2.6-2.1-4.7-4.7-4.7c-2.6,0-4.7,2.1-4.7,4.7v29l-7.7,7.7V79.2c0-2.6-2.1-4.7-4.7-4.7c-2.6,0-4.7,2.1-4.7,4.7v22.1
				l-14.5,14.5h-11.8l-8.4-8.4V86.9l15.6-15.6c1.8-1.8,1.8-4.8,0-6.6c-1.8-1.8-4.8-1.8-6.6,0l-9,9V62.7l20.5-20.5
				c1.8-1.8,1.8-4.8,0-6.6c-1.8-1.8-4.8-1.8-6.6,0l-13.9,13.9V38.6l26.6-26.6c1.8-1.8,1.8-4.8,0-6.6c-1.8-1.8-4.8-1.8-6.6,0l-20,20
				V10.9c0-2.6-2.1-4.7-4.7-4.7c-2.6,0-4.7,2.1-4.7,4.7v14.4l-20-20c-1.8-1.8-4.8-1.8-6.6,0c-1.8,1.8-1.8,4.8,0,6.6l26.6,26.6v10.9
				L127,35.6c-1.8-1.8-4.8-1.8-6.6,0c-1.8,1.8-1.8,4.8,0,6.6l20.5,20.5v10.9l-9-9c-1.8-1.8-4.8-1.8-6.6,0c-1.8,1.8-1.8,4.8,0,6.6
				l15.6,15.6v20.5l-8.4,8.4h-11.8l-14.5-14.5V79.2c0-2.6-2.1-4.7-4.7-4.7c-2.6,0-4.7,2.1-4.7,4.7v12.7l-7.7-7.7v-29
				c0-2.6-2.1-4.7-4.7-4.7s-4.7,2.1-4.7,4.7v19.7L72,67.1V29.4c0-2.6-2.1-4.7-4.7-4.7c-2.6,0-4.7,2.1-4.7,4.7v28.3L52.4,47.6
				c-1.8-1.8-4.8-1.8-6.6,0c-1.8,1.8-1.8,4.8,0,6.6L56,64.4H27.7c-2.6,0-4.7,2.1-4.7,4.7c0,2.6,2.1,4.7,4.7,4.7h37.7l7.7,7.7H53.4
				c-2.6,0-4.7,2.1-4.7,4.7c0,2.6,2.1,4.7,4.7,4.7h29l7.7,7.7H77.5c-2.6,0-4.7,2.1-4.7,4.7c0,2.6,2.1,4.7,4.7,4.7h22.1l14.5,14.5
				v11.8l-8.4,8.4H85.2L69.6,127c-1.8-1.8-4.8-1.8-6.6,0c-1.8,1.8-1.8,4.8,0,6.6l9,9H61l-20.5-20.5c-1.8-1.8-4.8-1.8-6.6,0
				c-1.8,1.8-1.8,4.8,0,6.6l13.9,13.9H36.8L10.2,116c-1.8-1.8-4.8-1.8-6.6,0c-1.8,1.8-1.8,4.8,0,6.6l20,20H9.2
				c-2.6,0-4.7,2.1-4.7,4.7c0,2.6,2.1,4.7,4.7,4.7h14.4l-20,20c-1.8,1.8-1.8,4.8,0,6.6c0.9,0.9,2.1,1.4,3.3,1.4
				c1.2,0,2.4-0.5,3.3-1.4L36.8,152h10.9l-13.9,13.9c-1.8,1.8-1.8,4.8,0,6.6c0.9,0.9,2.1,1.4,3.3,1.4c1.2,0,2.4-0.5,3.3-1.4L61,152
				h10.9l-9,9c-1.8,1.8-1.8,4.8,0,6.6c0.9,0.9,2.1,1.4,3.3,1.4c1.2,0,2.4-0.5,3.3-1.4L85.2,152h20.5l8.4,8.4v11.8l-14.5,14.5H77.5
				c-2.6,0-4.7,2.1-4.7,4.7s2.1,4.7,4.7,4.7h12.7l-7.7,7.7h-29c-2.6,0-4.7,2.1-4.7,4.7c0,2.6,2.1,4.7,4.7,4.7h19.7l-7.7,7.7H27.7
				c-2.6,0-4.7,2.1-4.7,4.7c0,2.6,2.1,4.7,4.7,4.7H56l-10.2,10.2c-1.8,1.8-1.8,4.8,0,6.6c0.9,0.9,2.1,1.4,3.3,1.4
				c1.2,0,2.4-0.5,3.3-1.4l10.2-10.2v28.3c0,2.6,2.1,4.7,4.7,4.7c2.6,0,4.7-2.1,4.7-4.7v-37.7l7.7-7.7v19.7c0,2.6,2.1,4.7,4.7,4.7
				s4.7-2.1,4.7-4.7v-29l7.7-7.7v12.7c0,2.6,2.1,4.7,4.7,4.7c2.6,0,4.7-2.1,4.7-4.7v-22.1l14.5-14.5h11.8l8.4,8.4v20.5l-15.6,15.6
				c-1.8,1.8-1.8,4.8,0,6.6c1.8,1.8,4.8,1.8,6.6,0l9-9v10.9l-20.5,20.5c-1.8,1.8-1.8,4.8,0,6.6c1.8,1.8,4.8,1.8,6.6,0l13.9-13.9
				v10.9l-26.6,26.6c-1.8,1.8-1.8,4.8,0,6.6c1.8,1.8,4.8,1.8,6.6,0l20-20v14.4c0,2.6,2.1,4.7,4.7,4.7c2.6,0,4.7-2.1,4.7-4.7v-14.4
				l20,20c0.9,0.9,2.1,1.4,3.3,1.4c1.2,0,2.4-0.5,3.3-1.4c1.8-1.8,1.8-4.8,0-6.6l-26.6-26.6v-10.9l13.9,13.9
				c0.9,0.9,2.1,1.4,3.3,1.4s2.4-0.5,3.3-1.4c1.8-1.8,1.8-4.8,0-6.6l-20.5-20.5V221l9,9c0.9,0.9,2.1,1.4,3.3,1.4
				c1.2,0,2.4-0.5,3.3-1.4c1.8-1.8,1.8-4.8,0-6.6l-15.6-15.6v-20.5l8.4-8.4h11.8l14.5,14.5v22.1c0,2.6,2.1,4.7,4.7,4.7
				c2.6,0,4.7-2.1,4.7-4.7v-12.7l7.7,7.7v29c0,2.6,2.1,4.7,4.7,4.7c2.6,0,4.7-2.1,4.7-4.7v-19.7l7.7,7.7v37.7c0,2.6,2.1,4.7,4.7,4.7
				c2.6,0,4.7-2.1,4.7-4.7v-28.3l10.2,10.2c0.9,0.9,2.1,1.4,3.3,1.4s2.4-0.5,3.3-1.4c1.8-1.8,1.8-4.8,0-6.6l-10.2-10.2h28.3
				c2.6,0,4.7-2.1,4.7-4.7c0-2.6-2.1-4.7-4.7-4.7h-37.7l-7.7-7.7h19.7c2.6,0,4.7-2.1,4.7-4.7c0-2.6-2.1-4.7-4.7-4.7h-29l-7.7-7.7
				h12.7c2.6,0,4.7-2.1,4.7-4.7s-2.1-4.7-4.7-4.7h-22.1l-14.5-14.5v-11.8l8.4-8.4H206l15.6,15.6c0.9,0.9,2.1,1.4,3.3,1.4
				c1.2,0,2.4-0.5,3.3-1.4c1.8-1.8,1.8-4.8,0-6.6l-9-9h10.9l20.5,20.5c0.9,0.9,2.1,1.4,3.3,1.4c1.2,0,2.4-0.5,3.3-1.4
				c1.8-1.8,1.8-4.8,0-6.6L243.4,152h10.9l26.6,26.6c0.9,0.9,2.1,1.4,3.3,1.4c1.2,0,2.4-0.5,3.3-1.4c1.8-1.8,1.8-4.8,0-6.6
				L267.6,152z M167.7,156.5v13h-13l-9.2,9.2l-9.2-9.2h-13v-13l-9.2-9.2l9.2-9.2v-13h13l9.2-9.2l9.2,9.2h13v13l9.2,9.2L167.7,156.5z
				"/>
		</g>
	</g>
</g>
</svg>
