<svg version="1.1"  xmlns="http://www.w3.org/2000/svg" xmlns:xlink="http://www.w3.org/1999/xlink" x="0px" y="0px"
	 viewBox="0 0 291.2 294.7" style="enable-background:new 0 0 291.2 294.7;" xml:space="preserve">
<path style="display:none;fill:#97BB3A;" d="M284.1,142.8h-4.6l2.8-2.8c1.9-1.9,1.9-4.9,0-6.7c-1.9-1.9-4.9-1.9-6.7,0l-9.5,9.5H260
	l10.2-10.2c1.9-1.9,1.9-4.9,0-6.7c-1.9-1.9-4.9-1.9-6.7,0l-16.9,16.9h-6.4l-16.9-16.9c-1.9-1.9-4.9-1.9-6.7,0
	c-1.9,1.9-1.9,4.9,0,6.7l10.2,10.2h-11.6l-17-17v-24l8.2-8.2V108c0,2.6,2.1,4.8,4.8,4.8c2.6,0,4.8-2.1,4.8-4.8V84.1l4.5-4.5h23.9
	c2.6,0,4.8-2.1,4.8-4.8s-2.1-4.8-4.8-4.8h-14.4l4.3-4.3h13.4c2.6,0,4.8-2.1,4.8-4.8c0-2.6-2.1-4.8-4.8-4.8h-3.9l3.2-3.2
	c1.9-1.9,1.9-4.9,0-6.7c-1.9-1.9-4.9-1.9-6.7,0l-3.2,3.2v-3.9c0-2.6-2.1-4.8-4.8-4.8c-2.6,0-4.8,2.1-4.8,4.8V59l-4.3,4.3V48.9
	c0-2.6-2.1-4.8-4.8-4.8c-2.6,0-4.8,2.1-4.8,4.8v23.9l-4.5,4.5h-23.9c-2.6,0-4.8,2.1-4.8,4.8c0,2.6,2.1,4.8,4.8,4.8h14.4l-8.2,8.2
	h-24l-17-17V66.5l10.2,10.2c0.9,0.9,2.1,1.4,3.4,1.4c1.2,0,2.4-0.5,3.4-1.4c1.9-1.9,1.9-4.9,0-6.7L150.4,53v-6.4l16.9-16.9
	c1.9-1.9,1.9-4.9,0-6.7c-1.9-1.9-4.9-1.9-6.7,0l-10.2,10.2V27l9.5-9.5c1.9-1.9,1.9-4.9,0-6.7c-1.9-1.9-4.9-1.9-6.7,0l-2.8,2.8V9
	c0-2.6-2.1-4.8-4.8-4.8s-4.8,2.1-4.8,4.8v4.6l-2.8-2.8c-1.9-1.9-4.9-1.9-6.7,0c-1.9,1.9-1.9,4.9,0,6.7l9.5,9.5v6.1L130.7,23
	c-1.9-1.9-4.9-1.9-6.7,0c-1.9,1.9-1.9,4.9,0,6.7l16.9,16.9V53L124,69.9c-1.9,1.9-1.9,4.9,0,6.7c1.9,1.9,4.9,1.9,6.7,0l10.2-10.2V78
	l-17,17h-24l-8.2-8.2h14.4c2.6,0,4.8-2.1,4.8-4.8c0-2.6-2.1-4.8-4.8-4.8H82.2l-4.5-4.5V48.9c0-2.6-2.1-4.8-4.8-4.8
	c-2.6,0-4.8,2.1-4.8,4.8v14.4L63.8,59V45.6c0-2.6-2.1-4.8-4.8-4.8c-2.6,0-4.8,2.1-4.8,4.8v3.9l-3.2-3.2c-1.9-1.9-4.9-1.9-6.7,0
	c-1.9,1.9-1.9,4.9,0,6.7l3.2,3.2h-3.9c-2.6,0-4.8,2.1-4.8,4.8c0,2.6,2.1,4.8,4.8,4.8h13.4l4.3,4.3H47c-2.6,0-4.8,2.1-4.8,4.8
	s2.1,4.8,4.8,4.8h23.9l4.5,4.5V108c0,2.6,2.1,4.8,4.8,4.8c2.6,0,4.8-2.1,4.8-4.8V93.6l8.2,8.2v24l-17,17H64.6l10.2-10.2
	c1.9-1.9,1.9-4.9,0-6.7c-1.9-1.9-4.9-1.9-6.7,0l-16.9,16.9h-6.4l-16.9-16.9c-1.9-1.9-4.9-1.9-6.7,0c-1.9,1.9-1.9,4.9,0,6.7
	l10.2,10.2h-6.1l-9.5-9.5c-1.9-1.9-4.9-1.9-6.7,0c-1.9,1.9-1.9,4.9,0,6.7l2.8,2.8H7.2c-2.6,0-4.8,2.1-4.8,4.8c0,2.6,2.1,4.8,4.8,4.8
	h4.6L9,155c-1.9,1.9-1.9,4.9,0,6.7c0.9,0.9,2.1,1.4,3.4,1.4c1.2,0,2.4-0.5,3.4-1.4l9.5-9.5h6.1l-10.2,10.2c-1.9,1.9-1.9,4.9,0,6.7
	c0.9,0.9,2.1,1.4,3.4,1.4s2.4-0.5,3.4-1.4l16.9-16.9h6.4l16.9,16.9c0.9,0.9,2.1,1.4,3.4,1.4c1.2,0,2.4-0.5,3.4-1.4
	c1.9-1.9,1.9-4.9,0-6.7l-10.2-10.2h11.6l17,17v24l-8.2,8.2v-14.4c0-2.6-2.1-4.8-4.8-4.8c-2.6,0-4.8,2.1-4.8,4.8V211l-4.5,4.5H47
	c-2.6,0-4.8,2.1-4.8,4.8c0,2.6,2.1,4.8,4.8,4.8h14.4l-4.3,4.3H43.7c-2.6,0-4.8,2.1-4.8,4.8c0,2.6,2.1,4.8,4.8,4.8h3.9l-3.2,3.2
	c-1.9,1.9-1.9,4.9,0,6.7c0.9,0.9,2.1,1.4,3.4,1.4s2.4-0.5,3.4-1.4l3.2-3.2v3.9c0,2.6,2.1,4.8,4.8,4.8c2.6,0,4.8-2.1,4.8-4.8v-13.4
	l4.3-4.3v14.4c0,2.6,2.1,4.8,4.8,4.8c2.6,0,4.8-2.1,4.8-4.8v-23.9l4.5-4.5h23.9c2.6,0,4.8-2.1,4.8-4.8c0-2.6-2.1-4.8-4.8-4.8H91.7
	l8.2-8.2h24l17,17v11.6l-10.2-10.2c-1.9-1.9-4.9-1.9-6.7,0c-1.9,1.9-1.9,4.9,0,6.7l16.9,16.9v6.4L124,265.4c-1.9,1.9-1.9,4.9,0,6.7
	c1.9,1.9,4.9,1.9,6.7,0l10.2-10.2v6.1l-9.5,9.5c-1.9,1.9-1.9,4.9,0,6.7c1.9,1.9,4.9,1.9,6.7,0l2.8-2.8v4.6c0,2.6,2.1,4.8,4.8,4.8
	s4.8-2.1,4.8-4.8v-4.6l2.8,2.8c0.9,0.9,2.1,1.4,3.4,1.4c1.2,0,2.4-0.5,3.4-1.4c1.9-1.9,1.9-4.9,0-6.7l-9.5-9.5v-6.1l10.2,10.2
	c0.9,0.9,2.1,1.4,3.4,1.4c1.2,0,2.4-0.5,3.4-1.4c1.9-1.9,1.9-4.9,0-6.7l-16.9-16.9v-6.4l16.9-16.9c1.9-1.9,1.9-4.9,0-6.7
	c-1.9-1.9-4.9-1.9-6.7,0l-10.2,10.2V217l17-17h24l8.2,8.2h-14.4c-2.6,0-4.8,2.1-4.8,4.8c0,2.6,2.1,4.8,4.8,4.8h23.9l4.5,4.5v23.9
	c0,2.6,2.1,4.8,4.8,4.8c2.6,0,4.8-2.1,4.8-4.8v-14.4l4.3,4.3v13.4c0,2.6,2.1,4.8,4.8,4.8c2.6,0,4.8-2.1,4.8-4.8v-3.9l3.2,3.2
	c0.9,0.9,2.1,1.4,3.4,1.4c1.2,0,2.4-0.5,3.4-1.4c1.9-1.9,1.9-4.9,0-6.7l-3.2-3.2h3.9c2.6,0,4.8-2.1,4.8-4.8c0-2.6-2.1-4.8-4.8-4.8
	h-13.4l-4.3-4.3h14.4c2.6,0,4.8-2.1,4.8-4.8c0-2.6-2.1-4.8-4.8-4.8h-23.9l-4.5-4.5v-23.9c0-2.6-2.1-4.8-4.8-4.8
	c-2.6,0-4.8,2.1-4.8,4.8v14.4l-8.2-8.2v-24l17-17h11.6l-10.2,10.2c-1.9,1.9-1.9,4.9,0,6.7c0.9,0.9,2.1,1.4,3.4,1.4s2.4-0.5,3.4-1.4
	l16.9-16.9h6.4l16.9,16.9c0.9,0.9,2.1,1.4,3.4,1.4s2.4-0.5,3.4-1.4c1.9-1.9,1.9-4.9,0-6.7L260,152.3h6.1l9.5,9.5
	c0.9,0.9,2.1,1.4,3.4,1.4s2.4-0.5,3.4-1.4c1.9-1.9,1.9-4.9,0-6.7l-2.8-2.8h4.6c2.6,0,4.8-2.1,4.8-4.8
	C288.9,144.9,286.8,142.8,284.1,142.8z M150.4,91.5l10,10c0.5,1.4,1.7,2.4,3.1,2.8c0.7,0.4,1.5,0.6,2.3,0.6c0.7,0,1.3-0.1,1.9-0.4
	h14.2l-11,11h-12l-8.5-8.5V91.5z M123.6,104.5c1.3,0.6,2.9,0.5,4.2-0.2c1.4-0.4,2.6-1.5,3.1-2.8l10-10V107l-8.5,8.5h-12l-11-11
	H123.6z M99.6,132.7c1.4-0.5,2.4-1.7,2.8-3.1c0.7-1.3,0.8-2.9,0.2-4.2v-14.2l11,11v12l-8.5,8.5H89.6L99.6,132.7z M102.5,165.4
	c-0.4-1.4-1.5-2.6-2.8-3.1l-10-10h15.6l8.5,8.5v12l-11,11v-14.2C103.2,168.3,103.2,166.7,102.5,165.4z M140.9,203.6l-10-10
	c-0.5-1.4-1.7-2.4-3.1-2.8c-1.3-0.7-2.9-0.8-4.2-0.2h-14.2l11-11h12l8.5,8.5V203.6z M145.6,179.3l-9.3-9.3h-13.2v-13.2l-9.3-9.3
	l9.3-9.3V125h13.2l9.3-9.3l9.3,9.3h13.2v13.2l9.3,9.3l-9.3,9.3V170H155L145.6,179.3z M167.7,190.5c-1.3-0.6-2.9-0.5-4.2,0.2
	c-1.4,0.4-2.6,1.5-3.1,2.8l-10,10V188l8.5-8.5h12l11,11H167.7z M191.7,162.3c-1.4,0.5-2.4,1.7-2.8,3.1c-0.7,1.3-0.8,2.9-0.2,4.2
	v14.2l-11-11v-12l8.5-8.5h15.6L191.7,162.3z M186.1,142.8l-8.5-8.5v-12l11-11v14.2c-0.6,1.3-0.5,2.9,0.2,4.2
	c0.4,1.4,1.5,2.6,2.8,3.1l10,10H186.1z"/>
<g id="Vector_Smart_Object_00000023978050721904661730000006533140736407449515_">
	<g>
		<defs>
			<rect id="SVGID_00000147184638324994913110000004198615748514142873_" x="98.1" y="51.1" width="29.3" height="29.3"/>
		</defs>
		<clipPath id="SVGID_00000123400874841426967350000007119876023254285757_">
			<use xlink:href="#SVGID_00000147184638324994913110000004198615748514142873_"  style="overflow:visible;"/>
		</clipPath>
		<g style="clip-path:url(#SVGID_00000123400874841426967350000007119876023254285757_);">
			<defs>
				<rect id="SVGID_00000056396516178143680190000010244659072792577214_" x="98.1" y="51.1" width="29.3" height="29.3"/>
			</defs>
			<clipPath id="SVGID_00000058566378842576569960000014055716726452659355_">
				<use xlink:href="#SVGID_00000056396516178143680190000010244659072792577214_"  style="overflow:visible;"/>
			</clipPath>
			<path style="clip-path:url(#SVGID_00000058566378842576569960000014055716726452659355_);fill:#E2E391;" d="M125.3,66.2h1.5
				c0.3,0,0.5-0.2,0.5-0.5c0-0.3-0.2-0.5-0.5-0.5h-1.5l2-2c0.2-0.2,0.2-0.5,0-0.7c-0.2-0.2-0.5-0.2-0.7,0l-2.7,2.7h-1.1l1.4-1.4
				c0.2-0.2,0.2-0.5,0-0.7c-0.2-0.2-0.5-0.2-0.7,0l-2.1,2.1h-1.1l0.9-0.9c0.2-0.2,0.2-0.5,0-0.7c-0.2-0.2-0.5-0.2-0.7,0l-1.6,1.6
				h-2.1l-0.9-0.9v-1.2l1.5-1.5h2.3c0.3,0,0.5-0.2,0.5-0.5c0-0.3-0.2-0.5-0.5-0.5h-1.3l0.8-0.8h3c0.3,0,0.5-0.2,0.5-0.5
				c0-0.3-0.2-0.5-0.5-0.5h-2l0.8-0.8h3.9c0.3,0,0.5-0.2,0.5-0.5c0-0.3-0.2-0.5-0.5-0.5H122l1-1c0.2-0.2,0.2-0.5,0-0.7
				c-0.2-0.2-0.5-0.2-0.7,0l-1,1v-2.9c0-0.3-0.2-0.5-0.5-0.5c-0.3,0-0.5,0.2-0.5,0.5v3.9l-0.8,0.8v-2c0-0.3-0.2-0.5-0.5-0.5
				c-0.3,0-0.5,0.2-0.5,0.5v3l-0.8,0.8v-1.3c0-0.3-0.2-0.5-0.5-0.5c-0.3,0-0.5,0.2-0.5,0.5V61l-1.5,1.5h-1.2l-0.9-0.9v-2.1l1.6-1.6
				c0.2-0.2,0.2-0.5,0-0.7c-0.2-0.2-0.5-0.2-0.7,0l-0.9,0.9v-1.1l2.1-2.1c0.2-0.2,0.2-0.5,0-0.7c-0.2-0.2-0.5-0.2-0.7,0l-1.4,1.4
				v-1.1l2.7-2.7c0.2-0.2,0.2-0.5,0-0.7c-0.2-0.2-0.5-0.2-0.7,0l-2,2v-1.5c0-0.3-0.2-0.5-0.5-0.5c-0.3,0-0.5,0.2-0.5,0.5v1.5l-2-2
				c-0.2-0.2-0.5-0.2-0.7,0c-0.2,0.2-0.2,0.5,0,0.7l2.7,2.7v1.1l-1.4-1.4c-0.2-0.2-0.5-0.2-0.7,0c-0.2,0.2-0.2,0.5,0,0.7l2.1,2.1
				v1.1l-0.9-0.9c-0.2-0.2-0.5-0.2-0.7,0c-0.2,0.2-0.2,0.5,0,0.7l1.6,1.6v2.1l-0.9,0.9h-1.2l-1.5-1.5v-2.3c0-0.3-0.2-0.5-0.5-0.5
				c-0.3,0-0.5,0.2-0.5,0.5v1.3l-0.8-0.8v-3c0-0.3-0.2-0.5-0.5-0.5S106,56,106,56.3v2l-0.8-0.8v-3.9c0-0.3-0.2-0.5-0.5-0.5
				c-0.3,0-0.5,0.2-0.5,0.5v2.9l-1-1c-0.2-0.2-0.5-0.2-0.7,0c-0.2,0.2-0.2,0.5,0,0.7l1,1h-2.9c-0.3,0-0.5,0.2-0.5,0.5
				c0,0.3,0.2,0.5,0.5,0.5h3.9l0.8,0.8h-2c-0.3,0-0.5,0.2-0.5,0.5c0,0.3,0.2,0.5,0.5,0.5h3l0.8,0.8h-1.3c-0.3,0-0.5,0.2-0.5,0.5
				c0,0.3,0.2,0.5,0.5,0.5h2.3l1.5,1.5v1.2l-0.9,0.9h-2.1l-1.6-1.6c-0.2-0.2-0.5-0.2-0.7,0c-0.2,0.2-0.2,0.5,0,0.7l0.9,0.9h-1.1
				l-2.1-2.1c-0.2-0.2-0.5-0.2-0.7,0c-0.2,0.2-0.2,0.5,0,0.7l1.4,1.4h-1.1l-2.7-2.7c-0.2-0.2-0.5-0.2-0.7,0c-0.2,0.2-0.2,0.5,0,0.7
				l2,2h-1.5c-0.3,0-0.5,0.2-0.5,0.5c0,0.3,0.2,0.5,0.5,0.5h1.5l-2,2c-0.2,0.2-0.2,0.5,0,0.7c0.1,0.1,0.2,0.1,0.3,0.1
				c0.1,0,0.2,0,0.3-0.1l2.7-2.7h1.1l-1.4,1.4c-0.2,0.2-0.2,0.5,0,0.7c0.1,0.1,0.2,0.1,0.3,0.1c0.1,0,0.2,0,0.3-0.1l2.1-2.1h1.1
				l-0.9,0.9c-0.2,0.2-0.2,0.5,0,0.7c0.1,0.1,0.2,0.1,0.3,0.1c0.1,0,0.2,0,0.3-0.1l1.6-1.6h2.1l0.9,0.9v1.2l-1.5,1.5h-2.3
				c-0.3,0-0.5,0.2-0.5,0.5s0.2,0.5,0.5,0.5h1.3l-0.8,0.8h-3c-0.3,0-0.5,0.2-0.5,0.5c0,0.3,0.2,0.5,0.5,0.5h2l-0.8,0.8h-3.9
				c-0.3,0-0.5,0.2-0.5,0.5c0,0.3,0.2,0.5,0.5,0.5h2.9l-1,1c-0.2,0.2-0.2,0.5,0,0.7c0.1,0.1,0.2,0.1,0.3,0.1s0.2,0,0.3-0.1l1-1v2.9
				c0,0.3,0.2,0.5,0.5,0.5c0.3,0,0.5-0.2,0.5-0.5v-3.9l0.8-0.8v2c0,0.3,0.2,0.5,0.5,0.5s0.5-0.2,0.5-0.5v-3l0.8-0.8v1.3
				c0,0.3,0.2,0.5,0.5,0.5c0.3,0,0.5-0.2,0.5-0.5v-2.3l1.5-1.5h1.2l0.9,0.9v2.1l-1.6,1.6c-0.2,0.2-0.2,0.5,0,0.7
				c0.2,0.2,0.5,0.2,0.7,0l0.9-0.9v1.1l-2.1,2.1c-0.2,0.2-0.2,0.5,0,0.7c0.2,0.2,0.5,0.2,0.7,0l1.4-1.4v1.1l-2.7,2.7
				c-0.2,0.2-0.2,0.5,0,0.7s0.5,0.2,0.7,0l2-2v1.5c0,0.3,0.2,0.5,0.5,0.5c0.3,0,0.5-0.2,0.5-0.5v-1.5l2,2c0.1,0.1,0.2,0.1,0.3,0.1
				c0.1,0,0.2,0,0.3-0.1c0.2-0.2,0.2-0.5,0-0.7l-2.7-2.7v-1.1l1.4,1.4c0.1,0.1,0.2,0.1,0.3,0.1s0.2,0,0.3-0.1c0.2-0.2,0.2-0.5,0-0.7
				l-2.1-2.1v-1.1l0.9,0.9c0.1,0.1,0.2,0.1,0.3,0.1c0.1,0,0.2,0,0.3-0.1c0.2-0.2,0.2-0.5,0-0.7l-1.6-1.6v-2.1l0.9-0.9h1.2l1.5,1.5
				v2.3c0,0.3,0.2,0.5,0.5,0.5c0.3,0,0.5-0.2,0.5-0.5v-1.3l0.8,0.8v3c0,0.3,0.2,0.5,0.5,0.5c0.3,0,0.5-0.2,0.5-0.5v-2l0.8,0.8v3.9
				c0,0.3,0.2,0.5,0.5,0.5c0.3,0,0.5-0.2,0.5-0.5v-2.9l1,1c0.1,0.1,0.2,0.1,0.3,0.1s0.2,0,0.3-0.1c0.2-0.2,0.2-0.5,0-0.7l-1-1h2.9
				c0.3,0,0.5-0.2,0.5-0.5c0-0.3-0.2-0.5-0.5-0.5H121l-0.8-0.8h2c0.3,0,0.5-0.2,0.5-0.5c0-0.3-0.2-0.5-0.5-0.5h-3l-0.8-0.8h1.3
				c0.3,0,0.5-0.2,0.5-0.5s-0.2-0.5-0.5-0.5h-2.3l-1.5-1.5v-1.2l0.9-0.9h2.1l1.6,1.6c0.1,0.1,0.2,0.1,0.3,0.1c0.1,0,0.2,0,0.3-0.1
				c0.2-0.2,0.2-0.5,0-0.7l-0.9-0.9h1.1l2.1,2.1c0.1,0.1,0.2,0.1,0.3,0.1c0.1,0,0.2,0,0.3-0.1c0.2-0.2,0.2-0.5,0-0.7l-1.4-1.4h1.1
				l2.7,2.7c0.1,0.1,0.2,0.1,0.3,0.1c0.1,0,0.2,0,0.3-0.1c0.2-0.2,0.2-0.5,0-0.7L125.3,66.2z M115.1,66.7V68h-1.3l-0.9,0.9l-0.9-0.9
				h-1.3v-1.3l-0.9-0.9l0.9-0.9v-1.3h1.3l0.9-0.9l0.9,0.9h1.3v1.3l0.9,0.9L115.1,66.7z"/>
		</g>
	</g>
</g>
<g id="Vector_Smart_Object_00000158029431454730243600000006779895340179592853_">
	<g>
		<defs>
			<rect id="SVGID_00000074436171039398799220000001613371210904227249_" x="251.1" y="207.6" width="29.3" height="29.3"/>
		</defs>
		<clipPath id="SVGID_00000005258511587222192280000015226910007902439562_">
			<use xlink:href="#SVGID_00000074436171039398799220000001613371210904227249_"  style="overflow:visible;"/>
		</clipPath>
		<g style="clip-path:url(#SVGID_00000005258511587222192280000015226910007902439562_);">
			<defs>
				<rect id="SVGID_00000144340227253879327040000014930267885183855038_" x="251.1" y="207.6" width="29.3" height="29.3"/>
			</defs>
			<clipPath id="SVGID_00000176764411919915458620000003710056055732510137_">
				<use xlink:href="#SVGID_00000144340227253879327040000014930267885183855038_"  style="overflow:visible;"/>
			</clipPath>
			<path style="clip-path:url(#SVGID_00000176764411919915458620000003710056055732510137_);fill:#E2E391;" d="M278.3,222.7h1.5
				c0.3,0,0.5-0.2,0.5-0.5c0-0.3-0.2-0.5-0.5-0.5h-1.5l2-2c0.2-0.2,0.2-0.5,0-0.7c-0.2-0.2-0.5-0.2-0.7,0l-2.7,2.7h-1.1l1.4-1.4
				c0.2-0.2,0.2-0.5,0-0.7c-0.2-0.2-0.5-0.2-0.7,0l-2.1,2.1h-1.1l0.9-0.9c0.2-0.2,0.2-0.5,0-0.7c-0.2-0.2-0.5-0.2-0.7,0l-1.6,1.6
				h-2.1l-0.9-0.9v-1.2l1.5-1.5h2.3c0.3,0,0.5-0.2,0.5-0.5c0-0.3-0.2-0.5-0.5-0.5h-1.3l0.8-0.8h3c0.3,0,0.5-0.2,0.5-0.5
				c0-0.3-0.2-0.5-0.5-0.5h-2l0.8-0.8h3.9c0.3,0,0.5-0.2,0.5-0.5c0-0.3-0.2-0.5-0.5-0.5h-2.9l1-1c0.2-0.2,0.2-0.5,0-0.7
				c-0.2-0.2-0.5-0.2-0.7,0l-1,1v-2.9c0-0.3-0.2-0.5-0.5-0.5c-0.3,0-0.5,0.2-0.5,0.5v3.9l-0.8,0.8v-2c0-0.3-0.2-0.5-0.5-0.5
				c-0.3,0-0.5,0.2-0.5,0.5v3l-0.8,0.8v-1.3c0-0.3-0.2-0.5-0.5-0.5c-0.3,0-0.5,0.2-0.5,0.5v2.3l-1.5,1.5h-1.2l-0.9-0.9v-2.1l1.6-1.6
				c0.2-0.2,0.2-0.5,0-0.7c-0.2-0.2-0.5-0.2-0.7,0l-0.9,0.9v-1.1l2.1-2.1c0.2-0.2,0.2-0.5,0-0.7c-0.2-0.2-0.5-0.2-0.7,0l-1.4,1.4
				v-1.1l2.7-2.7c0.2-0.2,0.2-0.5,0-0.7c-0.2-0.2-0.5-0.2-0.7,0l-2,2v-1.5c0-0.3-0.2-0.5-0.5-0.5c-0.3,0-0.5,0.2-0.5,0.5v1.5l-2-2
				c-0.2-0.2-0.5-0.2-0.7,0c-0.2,0.2-0.2,0.5,0,0.7l2.7,2.7v1.1l-1.4-1.4c-0.2-0.2-0.5-0.2-0.7,0c-0.2,0.2-0.2,0.5,0,0.7l2.1,2.1
				v1.1l-0.9-0.9c-0.2-0.2-0.5-0.2-0.7,0c-0.2,0.2-0.2,0.5,0,0.7l1.6,1.6v2.1l-0.9,0.9h-1.2l-1.5-1.5v-2.3c0-0.3-0.2-0.5-0.5-0.5
				c-0.3,0-0.5,0.2-0.5,0.5v1.3l-0.8-0.8v-3c0-0.3-0.2-0.5-0.5-0.5c-0.3,0-0.5,0.2-0.5,0.5v2l-0.8-0.8v-3.9c0-0.3-0.2-0.5-0.5-0.5
				c-0.3,0-0.5,0.2-0.5,0.5v2.9l-1-1c-0.2-0.2-0.5-0.2-0.7,0c-0.2,0.2-0.2,0.5,0,0.7l1,1h-2.9c-0.3,0-0.5,0.2-0.5,0.5
				c0,0.3,0.2,0.5,0.5,0.5h3.9l0.8,0.8h-2c-0.3,0-0.5,0.2-0.5,0.5c0,0.3,0.2,0.5,0.5,0.5h3l0.8,0.8h-1.3c-0.3,0-0.5,0.2-0.5,0.5
				c0,0.3,0.2,0.5,0.5,0.5h2.3l1.5,1.5v1.2l-0.9,0.9h-2.1l-1.6-1.6c-0.2-0.2-0.5-0.2-0.7,0c-0.2,0.2-0.2,0.5,0,0.7l0.9,0.9h-1.1
				l-2.1-2.1c-0.2-0.2-0.5-0.2-0.7,0c-0.2,0.2-0.2,0.5,0,0.7l1.4,1.4h-1.1l-2.7-2.7c-0.2-0.2-0.5-0.2-0.7,0c-0.2,0.2-0.2,0.5,0,0.7
				l2,2h-1.5c-0.3,0-0.5,0.2-0.5,0.5c0,0.3,0.2,0.5,0.5,0.5h1.5l-2,2c-0.2,0.2-0.2,0.5,0,0.7c0.1,0.1,0.2,0.1,0.3,0.1
				c0.1,0,0.2,0,0.3-0.1l2.7-2.7h1.1l-1.4,1.4c-0.2,0.2-0.2,0.5,0,0.7c0.1,0.1,0.2,0.1,0.3,0.1c0.1,0,0.2,0,0.3-0.1l2.1-2.1h1.1
				l-0.9,0.9c-0.2,0.2-0.2,0.5,0,0.7c0.1,0.1,0.2,0.1,0.3,0.1c0.1,0,0.2,0,0.3-0.1l1.6-1.6h2.1l0.9,0.9v1.2l-1.5,1.5h-2.3
				c-0.3,0-0.5,0.2-0.5,0.5c0,0.3,0.2,0.5,0.5,0.5h1.3l-0.8,0.8h-3c-0.3,0-0.5,0.2-0.5,0.5c0,0.3,0.2,0.5,0.5,0.5h2l-0.8,0.8h-3.9
				c-0.3,0-0.5,0.2-0.5,0.5c0,0.3,0.2,0.5,0.5,0.5h2.9l-1,1c-0.2,0.2-0.2,0.5,0,0.7c0.1,0.1,0.2,0.1,0.3,0.1s0.2,0,0.3-0.1l1-1v2.9
				c0,0.3,0.2,0.5,0.5,0.5c0.3,0,0.5-0.2,0.5-0.5v-3.9l0.8-0.8v2c0,0.3,0.2,0.5,0.5,0.5c0.3,0,0.5-0.2,0.5-0.5v-3l0.8-0.8v1.3
				c0,0.3,0.2,0.5,0.5,0.5c0.3,0,0.5-0.2,0.5-0.5V227l1.5-1.5h1.2l0.9,0.9v2.1l-1.6,1.6c-0.2,0.2-0.2,0.5,0,0.7
				c0.2,0.2,0.5,0.2,0.7,0l0.9-0.9v1.1l-2.1,2.1c-0.2,0.2-0.2,0.5,0,0.7c0.2,0.2,0.5,0.2,0.7,0l1.4-1.4v1.1l-2.7,2.7
				c-0.2,0.2-0.2,0.5,0,0.7c0.2,0.2,0.5,0.2,0.7,0l2-2v1.5c0,0.3,0.2,0.5,0.5,0.5c0.3,0,0.5-0.2,0.5-0.5v-1.5l2,2
				c0.1,0.1,0.2,0.1,0.3,0.1c0.1,0,0.2,0,0.3-0.1c0.2-0.2,0.2-0.5,0-0.7l-2.7-2.7v-1.1l1.4,1.4c0.1,0.1,0.2,0.1,0.3,0.1
				c0.1,0,0.2,0,0.3-0.1c0.2-0.2,0.2-0.5,0-0.7l-2.1-2.1v-1.1l0.9,0.9c0.1,0.1,0.2,0.1,0.3,0.1c0.1,0,0.2,0,0.3-0.1
				c0.2-0.2,0.2-0.5,0-0.7l-1.6-1.6v-2.1l0.9-0.9h1.2l1.5,1.5v2.3c0,0.3,0.2,0.5,0.5,0.5c0.3,0,0.5-0.2,0.5-0.5v-1.3l0.8,0.8v3
				c0,0.3,0.2,0.5,0.5,0.5s0.5-0.2,0.5-0.5v-2l0.8,0.8v3.9c0,0.3,0.2,0.5,0.5,0.5c0.3,0,0.5-0.2,0.5-0.5v-2.9l1,1
				c0.1,0.1,0.2,0.1,0.3,0.1c0.1,0,0.2,0,0.3-0.1c0.2-0.2,0.2-0.5,0-0.7l-1-1h2.9c0.3,0,0.5-0.2,0.5-0.5c0-0.3-0.2-0.5-0.5-0.5H274
				l-0.8-0.8h2c0.3,0,0.5-0.2,0.5-0.5c0-0.3-0.2-0.5-0.5-0.5h-3l-0.8-0.8h1.3c0.3,0,0.5-0.2,0.5-0.5c0-0.3-0.2-0.5-0.5-0.5h-2.3
				l-1.5-1.5v-1.2l0.9-0.9h2.1l1.6,1.6c0.1,0.1,0.2,0.1,0.3,0.1c0.1,0,0.2,0,0.3-0.1c0.2-0.2,0.2-0.5,0-0.7l-0.9-0.9h1.1l2.1,2.1
				c0.1,0.1,0.2,0.1,0.3,0.1c0.1,0,0.2,0,0.3-0.1c0.2-0.2,0.2-0.5,0-0.7l-1.4-1.4h1.1l2.7,2.7c0.1,0.1,0.2,0.1,0.3,0.1
				c0.1,0,0.2,0,0.3-0.1c0.2-0.2,0.2-0.5,0-0.7L278.3,222.7z M268,223.2v1.3h-1.3l-0.9,0.9l-0.9-0.9h-1.3v-1.3l-0.9-0.9l0.9-0.9V220
				h1.3l0.9-0.9l0.9,0.9h1.3v1.3l0.9,0.9L268,223.2z"/>
		</g>
	</g>
</g>
<g id="Vector_Smart_Object_00000003073931428492183510000017179535097849690786_">
	<g>
		<defs>
			<rect id="SVGID_00000080925265651787414200000017426107416781423024_" x="36.3" y="196.9" width="29.3" height="29.3"/>
		</defs>
		<clipPath id="SVGID_00000152983671217279876010000005671756477845117868_">
			<use xlink:href="#SVGID_00000080925265651787414200000017426107416781423024_"  style="overflow:visible;"/>
		</clipPath>
		<g style="clip-path:url(#SVGID_00000152983671217279876010000005671756477845117868_);">
			<defs>
				<rect id="SVGID_00000121967850125132554090000010188383049292599952_" x="36.3" y="196.9" width="29.3" height="29.3"/>
			</defs>
			<clipPath id="SVGID_00000141417532819020080840000017682175757755837065_">
				<use xlink:href="#SVGID_00000121967850125132554090000010188383049292599952_"  style="overflow:visible;"/>
			</clipPath>
			<path style="clip-path:url(#SVGID_00000141417532819020080840000017682175757755837065_);fill:#E2E391;" d="M63.4,212h1.5
				c0.3,0,0.5-0.2,0.5-0.5c0-0.3-0.2-0.5-0.5-0.5h-1.5l2-2c0.2-0.2,0.2-0.5,0-0.7c-0.2-0.2-0.5-0.2-0.7,0l-2.7,2.7H61l1.4-1.4
				c0.2-0.2,0.2-0.5,0-0.7c-0.2-0.2-0.5-0.2-0.7,0l-2.1,2.1h-1.1l0.9-0.9c0.2-0.2,0.2-0.5,0-0.7c-0.2-0.2-0.5-0.2-0.7,0l-1.6,1.6H55
				l-0.9-0.9V209l1.5-1.5h2.3c0.3,0,0.5-0.2,0.5-0.5c0-0.3-0.2-0.5-0.5-0.5h-1.3l0.8-0.8h3c0.3,0,0.5-0.2,0.5-0.5
				c0-0.3-0.2-0.5-0.5-0.5h-2l0.8-0.8H63c0.3,0,0.5-0.2,0.5-0.5c0-0.3-0.2-0.5-0.5-0.5h-2.9l1-1c0.2-0.2,0.2-0.5,0-0.7
				c-0.2-0.2-0.5-0.2-0.7,0l-1,1v-2.9c0-0.3-0.2-0.5-0.5-0.5c-0.3,0-0.5,0.2-0.5,0.5v3.9l-0.8,0.8v-2c0-0.3-0.2-0.5-0.5-0.5
				c-0.3,0-0.5,0.2-0.5,0.5v3l-0.8,0.8v-1.3c0-0.3-0.2-0.5-0.5-0.5c-0.3,0-0.5,0.2-0.5,0.5v2.3l-1.5,1.5h-1.2l-0.9-0.9v-2.1l1.6-1.6
				c0.2-0.2,0.2-0.5,0-0.7c-0.2-0.2-0.5-0.2-0.7,0l-0.9,0.9v-1.1l2.1-2.1c0.2-0.2,0.2-0.5,0-0.7c-0.2-0.2-0.5-0.2-0.7,0l-1.4,1.4
				v-1.1l2.7-2.7c0.2-0.2,0.2-0.5,0-0.7c-0.2-0.2-0.5-0.2-0.7,0l-2,2v-1.5c0-0.3-0.2-0.5-0.5-0.5c-0.3,0-0.5,0.2-0.5,0.5v1.5l-2-2
				c-0.2-0.2-0.5-0.2-0.7,0s-0.2,0.5,0,0.7l2.7,2.7v1.1l-1.4-1.4c-0.2-0.2-0.5-0.2-0.7,0c-0.2,0.2-0.2,0.5,0,0.7l2.1,2.1v1.1
				l-0.9-0.9c-0.2-0.2-0.5-0.2-0.7,0c-0.2,0.2-0.2,0.5,0,0.7l1.6,1.6v2.1l-0.9,0.9h-1.2l-1.5-1.5v-2.3c0-0.3-0.2-0.5-0.5-0.5
				c-0.3,0-0.5,0.2-0.5,0.5v1.3l-0.8-0.8v-3c0-0.3-0.2-0.5-0.5-0.5c-0.3,0-0.5,0.2-0.5,0.5v2l-0.8-0.8v-3.9c0-0.3-0.2-0.5-0.5-0.5
				c-0.3,0-0.5,0.2-0.5,0.5v2.9l-1-1c-0.2-0.2-0.5-0.2-0.7,0c-0.2,0.2-0.2,0.5,0,0.7l1,1h-2.9c-0.3,0-0.5,0.2-0.5,0.5
				c0,0.3,0.2,0.5,0.5,0.5h3.9l0.8,0.8h-2c-0.3,0-0.5,0.2-0.5,0.5c0,0.3,0.2,0.5,0.5,0.5h3l0.8,0.8H44c-0.3,0-0.5,0.2-0.5,0.5
				c0,0.3,0.2,0.5,0.5,0.5h2.3l1.5,1.5v1.2l-0.9,0.9h-2.1l-1.6-1.6c-0.2-0.2-0.5-0.2-0.7,0c-0.2,0.2-0.2,0.5,0,0.7l0.9,0.9h-1.1
				l-2.1-2.1c-0.2-0.2-0.5-0.2-0.7,0c-0.2,0.2-0.2,0.5,0,0.7l1.4,1.4h-1.1l-2.7-2.7c-0.2-0.2-0.5-0.2-0.7,0c-0.2,0.2-0.2,0.5,0,0.7
				l2,2H37c-0.3,0-0.5,0.2-0.5,0.5c0,0.3,0.2,0.5,0.5,0.5h1.5l-2,2c-0.2,0.2-0.2,0.5,0,0.7c0.1,0.1,0.2,0.1,0.3,0.1
				c0.1,0,0.2,0,0.3-0.1l2.7-2.7h1.1l-1.4,1.4c-0.2,0.2-0.2,0.5,0,0.7c0.1,0.1,0.2,0.1,0.3,0.1c0.1,0,0.2,0,0.3-0.1l2.1-2.1h1.1
				l-0.9,0.9c-0.2,0.2-0.2,0.5,0,0.7c0.1,0.1,0.2,0.1,0.3,0.1c0.1,0,0.2,0,0.3-0.1l1.6-1.6h2.1l0.9,0.9v1.2l-1.5,1.5H44
				c-0.3,0-0.5,0.2-0.5,0.5s0.2,0.5,0.5,0.5h1.3l-0.8,0.8h-3c-0.3,0-0.5,0.2-0.5,0.5c0,0.3,0.2,0.5,0.5,0.5h2l-0.8,0.8h-3.9
				c-0.3,0-0.5,0.2-0.5,0.5c0,0.3,0.2,0.5,0.5,0.5h2.9l-1,1c-0.2,0.2-0.2,0.5,0,0.7c0.1,0.1,0.2,0.1,0.3,0.1c0.1,0,0.2,0,0.3-0.1
				l1-1v2.9c0,0.3,0.2,0.5,0.5,0.5c0.3,0,0.5-0.2,0.5-0.5v-3.9l0.8-0.8v2c0,0.3,0.2,0.5,0.5,0.5c0.3,0,0.5-0.2,0.5-0.5v-3l0.8-0.8
				v1.3c0,0.3,0.2,0.5,0.5,0.5c0.3,0,0.5-0.2,0.5-0.5v-2.3l1.5-1.5h1.2l0.9,0.9v2.1l-1.6,1.6c-0.2,0.2-0.2,0.5,0,0.7
				c0.2,0.2,0.5,0.2,0.7,0l0.9-0.9v1.1l-2.1,2.1c-0.2,0.2-0.2,0.5,0,0.7c0.2,0.2,0.5,0.2,0.7,0l1.4-1.4v1.1l-2.7,2.7
				c-0.2,0.2-0.2,0.5,0,0.7s0.5,0.2,0.7,0l2-2v1.5c0,0.3,0.2,0.5,0.5,0.5c0.3,0,0.5-0.2,0.5-0.5V224l2,2c0.1,0.1,0.2,0.1,0.3,0.1
				c0.1,0,0.2,0,0.3-0.1c0.2-0.2,0.2-0.5,0-0.7l-2.7-2.7v-1.1l1.4,1.4c0.1,0.1,0.2,0.1,0.3,0.1c0.1,0,0.2,0,0.3-0.1
				c0.2-0.2,0.2-0.5,0-0.7l-2.1-2.1v-1.1l0.9,0.9c0.1,0.1,0.2,0.1,0.3,0.1c0.1,0,0.2,0,0.3-0.1c0.2-0.2,0.2-0.5,0-0.7l-1.6-1.6v-2.1
				l0.9-0.9h1.2l1.5,1.5v2.3c0,0.3,0.2,0.5,0.5,0.5c0.3,0,0.5-0.2,0.5-0.5v-1.3l0.8,0.8v3c0,0.3,0.2,0.5,0.5,0.5
				c0.3,0,0.5-0.2,0.5-0.5v-2l0.8,0.8v3.9c0,0.3,0.2,0.5,0.5,0.5c0.3,0,0.5-0.2,0.5-0.5v-2.9l1,1c0.1,0.1,0.2,0.1,0.3,0.1
				c0.1,0,0.2,0,0.3-0.1c0.2-0.2,0.2-0.5,0-0.7l-1-1H63c0.3,0,0.5-0.2,0.5-0.5c0-0.3-0.2-0.5-0.5-0.5h-3.9l-0.8-0.8h2
				c0.3,0,0.5-0.2,0.5-0.5c0-0.3-0.2-0.5-0.5-0.5h-3l-0.8-0.8h1.3c0.3,0,0.5-0.2,0.5-0.5s-0.2-0.5-0.5-0.5h-2.3l-1.5-1.5v-1.2
				L55,212h2.1l1.6,1.6c0.1,0.1,0.2,0.1,0.3,0.1c0.1,0,0.2,0,0.3-0.1c0.2-0.2,0.2-0.5,0-0.7l-0.9-0.9h1.1l2.1,2.1
				c0.1,0.1,0.2,0.1,0.3,0.1c0.1,0,0.2,0,0.3-0.1c0.2-0.2,0.2-0.5,0-0.7L61,212h1.1l2.7,2.7c0.1,0.1,0.2,0.1,0.3,0.1
				c0.1,0,0.2,0,0.3-0.1c0.2-0.2,0.2-0.5,0-0.7L63.4,212z M53.2,212.5v1.3h-1.3l-0.9,0.9l-0.9-0.9h-1.3v-1.3l-0.9-0.9l0.9-0.9v-1.3
				H50l0.9-0.9l0.9,0.9h1.3v1.3l0.9,0.9L53.2,212.5z"/>
		</g>
	</g>
</g>
<g id="Vector_Smart_Object_00000125580729999966929860000011107985855761783961_">
	<g>
		<defs>
			<rect id="SVGID_00000050636018264093953500000007625258305056668050_" x="229.5" y="28.5" width="21.6" height="21.6"/>
		</defs>
		<clipPath id="SVGID_00000055687001003455681570000005162750954755683753_">
			<use xlink:href="#SVGID_00000050636018264093953500000007625258305056668050_"  style="overflow:visible;"/>
		</clipPath>
		<g style="clip-path:url(#SVGID_00000055687001003455681570000005162750954755683753_);">
			<defs>
				<rect id="SVGID_00000019666492127729903510000013692689043003467707_" x="229.5" y="28.5" width="21.6" height="21.6"/>
			</defs>
			<clipPath id="SVGID_00000078737502340541964380000003643879803209764509_">
				<use xlink:href="#SVGID_00000019666492127729903510000013692689043003467707_"  style="overflow:visible;"/>
			</clipPath>
			<path style="clip-path:url(#SVGID_00000078737502340541964380000003643879803209764509_);fill:#E2E391;" d="M249.5,39.7h1.1
				c0.2,0,0.4-0.2,0.4-0.4c0-0.2-0.2-0.4-0.4-0.4h-1.1l1.5-1.5c0.1-0.1,0.1-0.4,0-0.5c-0.1-0.1-0.4-0.1-0.5,0l-2,2h-0.8l1-1
				c0.1-0.1,0.1-0.4,0-0.5c-0.1-0.1-0.4-0.1-0.5,0l-1.5,1.5h-0.8l0.7-0.7c0.1-0.1,0.1-0.4,0-0.5c-0.1-0.1-0.4-0.1-0.5,0l-1.2,1.2
				h-1.5l-0.6-0.6v-0.9l1.1-1.1h1.7c0.2,0,0.4-0.2,0.4-0.4c0-0.2-0.2-0.4-0.4-0.4h-1l0.6-0.6h2.2c0.2,0,0.4-0.2,0.4-0.4
				c0-0.2-0.2-0.4-0.4-0.4h-1.5l0.6-0.6h2.8c0.2,0,0.4-0.2,0.4-0.4c0-0.2-0.2-0.4-0.4-0.4H247l0.8-0.8c0.1-0.1,0.1-0.4,0-0.5
				c-0.1-0.1-0.4-0.1-0.5,0l-0.8,0.8v-2.1c0-0.2-0.2-0.4-0.4-0.4c-0.2,0-0.4,0.2-0.4,0.4v2.8l-0.6,0.6v-1.5c0-0.2-0.2-0.4-0.4-0.4
				c-0.2,0-0.4,0.2-0.4,0.4v2.2l-0.6,0.6v-1c0-0.2-0.2-0.4-0.4-0.4c-0.2,0-0.4,0.2-0.4,0.4v1.7l-1.1,1.1h-0.9l-0.6-0.6v-1.5l1.2-1.2
				c0.1-0.1,0.1-0.4,0-0.5c-0.1-0.1-0.4-0.1-0.5,0l-0.7,0.7V33l1.5-1.5c0.1-0.1,0.1-0.4,0-0.5c-0.1-0.1-0.4-0.1-0.5,0l-1,1v-0.8l2-2
				c0.1-0.1,0.1-0.4,0-0.5c-0.1-0.1-0.4-0.1-0.5,0l-1.5,1.5v-1.1c0-0.2-0.2-0.4-0.4-0.4c-0.2,0-0.4,0.2-0.4,0.4v1.1l-1.5-1.5
				c-0.1-0.1-0.4-0.1-0.5,0s-0.1,0.4,0,0.5l2,2V32l-1-1c-0.1-0.1-0.4-0.1-0.5,0c-0.1,0.1-0.1,0.4,0,0.5l1.5,1.5v0.8l-0.7-0.7
				c-0.1-0.1-0.4-0.1-0.5,0c-0.1,0.1-0.1,0.4,0,0.5l1.2,1.2v1.5l-0.6,0.6h-0.9l-1.1-1.1v-1.7c0-0.2-0.2-0.4-0.4-0.4
				c-0.2,0-0.4,0.2-0.4,0.4v1l-0.6-0.6v-2.2c0-0.2-0.2-0.4-0.4-0.4c-0.2,0-0.4,0.2-0.4,0.4v1.5l-0.6-0.6v-2.8c0-0.2-0.2-0.4-0.4-0.4
				c-0.2,0-0.4,0.2-0.4,0.4v2.1l-0.8-0.8c-0.1-0.1-0.4-0.1-0.5,0c-0.1,0.1-0.1,0.4,0,0.5l0.8,0.8h-2.1c-0.2,0-0.4,0.2-0.4,0.4
				c0,0.2,0.2,0.4,0.4,0.4h2.8l0.6,0.6h-1.5c-0.2,0-0.4,0.2-0.4,0.4c0,0.2,0.2,0.4,0.4,0.4h2.2l0.6,0.6h-1c-0.2,0-0.4,0.2-0.4,0.4
				c0,0.2,0.2,0.4,0.4,0.4h1.7l1.1,1.1v0.9l-0.6,0.6h-1.5l-1.2-1.2c-0.1-0.1-0.4-0.1-0.5,0c-0.1,0.1-0.1,0.4,0,0.5l0.7,0.7h-0.8
				l-1.5-1.5c-0.1-0.1-0.4-0.1-0.5,0c-0.1,0.1-0.1,0.4,0,0.5l1,1h-0.8l-2-2c-0.1-0.1-0.4-0.1-0.5,0c-0.1,0.1-0.1,0.4,0,0.5l1.5,1.5
				H230c-0.2,0-0.4,0.2-0.4,0.4c0,0.2,0.2,0.4,0.4,0.4h1.1l-1.5,1.5c-0.1,0.1-0.1,0.4,0,0.5c0.1,0.1,0.2,0.1,0.2,0.1
				c0.1,0,0.2,0,0.2-0.1l2-2h0.8l-1,1c-0.1,0.1-0.1,0.4,0,0.5c0.1,0.1,0.2,0.1,0.2,0.1c0.1,0,0.2,0,0.2-0.1l1.5-1.5h0.8l-0.7,0.7
				c-0.1,0.1-0.1,0.4,0,0.5c0.1,0.1,0.2,0.1,0.2,0.1c0.1,0,0.2,0,0.2-0.1l1.2-1.2h1.5l0.6,0.6v0.9l-1.1,1.1h-1.7
				c-0.2,0-0.4,0.2-0.4,0.4s0.2,0.4,0.4,0.4h1l-0.6,0.6h-2.2c-0.2,0-0.4,0.2-0.4,0.4c0,0.2,0.2,0.4,0.4,0.4h1.5l-0.6,0.6h-2.8
				c-0.2,0-0.4,0.2-0.4,0.4c0,0.2,0.2,0.4,0.4,0.4h2.1l-0.8,0.8c-0.1,0.1-0.1,0.4,0,0.5c0.1,0.1,0.2,0.1,0.2,0.1s0.2,0,0.2-0.1
				l0.8-0.8v2.1c0,0.2,0.2,0.4,0.4,0.4c0.2,0,0.4-0.2,0.4-0.4v-2.8l0.6-0.6v1.5c0,0.2,0.2,0.4,0.4,0.4c0.2,0,0.4-0.2,0.4-0.4v-2.2
				l0.6-0.6v1c0,0.2,0.2,0.4,0.4,0.4c0.2,0,0.4-0.2,0.4-0.4v-1.7l1.1-1.1h0.9l0.6,0.6v1.5l-1.2,1.2c-0.1,0.1-0.1,0.4,0,0.5
				c0.1,0.1,0.4,0.1,0.5,0l0.7-0.7v0.8l-1.5,1.5c-0.1,0.1-0.1,0.4,0,0.5c0.1,0.1,0.4,0.1,0.5,0l1-1v0.8l-2,2c-0.1,0.1-0.1,0.4,0,0.5
				s0.4,0.1,0.5,0l1.5-1.5v1.1c0,0.2,0.2,0.4,0.4,0.4c0.2,0,0.4-0.2,0.4-0.4v-1.1l1.5,1.5c0.1,0.1,0.2,0.1,0.2,0.1
				c0.1,0,0.2,0,0.2-0.1c0.1-0.1,0.1-0.4,0-0.5l-2-2v-0.8l1,1c0.1,0.1,0.2,0.1,0.2,0.1s0.2,0,0.2-0.1c0.1-0.1,0.1-0.4,0-0.5
				l-1.5-1.5v-0.8l0.7,0.7c0.1,0.1,0.2,0.1,0.2,0.1c0.1,0,0.2,0,0.2-0.1c0.1-0.1,0.1-0.4,0-0.5l-1.2-1.2v-1.5l0.6-0.6h0.9l1.1,1.1
				v1.7c0,0.2,0.2,0.4,0.4,0.4c0.2,0,0.4-0.2,0.4-0.4v-1l0.6,0.6v2.2c0,0.2,0.2,0.4,0.4,0.4c0.2,0,0.4-0.2,0.4-0.4v-1.5l0.6,0.6v2.8
				c0,0.2,0.2,0.4,0.4,0.4c0.2,0,0.4-0.2,0.4-0.4v-2.1l0.8,0.8c0.1,0.1,0.2,0.1,0.2,0.1s0.2,0,0.2-0.1c0.1-0.1,0.1-0.4,0-0.5
				l-0.8-0.8h2.1c0.2,0,0.4-0.2,0.4-0.4c0-0.2-0.2-0.4-0.4-0.4h-2.8l-0.6-0.6h1.5c0.2,0,0.4-0.2,0.4-0.4c0-0.2-0.2-0.4-0.4-0.4h-2.2
				l-0.6-0.6h1c0.2,0,0.4-0.2,0.4-0.4s-0.2-0.4-0.4-0.4h-1.7l-1.1-1.1v-0.9l0.6-0.6h1.5l1.2,1.2c0.1,0.1,0.2,0.1,0.2,0.1
				c0.1,0,0.2,0,0.2-0.1c0.1-0.1,0.1-0.4,0-0.5l-0.7-0.7h0.8l1.5,1.5c0.1,0.1,0.2,0.1,0.2,0.1c0.1,0,0.2,0,0.2-0.1
				c0.1-0.1,0.1-0.4,0-0.5l-1-1h0.8l2,2c0.1,0.1,0.2,0.1,0.2,0.1c0.1,0,0.2,0,0.2-0.1c0.1-0.1,0.1-0.4,0-0.5L249.5,39.7z M242,40v1
				h-1l-0.7,0.7l-0.7-0.7h-1v-1l-0.7-0.7l0.7-0.7v-1h1l0.7-0.7l0.7,0.7h1v1l0.7,0.7L242,40z"/>
		</g>
	</g>
</g>
<g id="Vector_Smart_Object_00000060009937148482697890000006270142839168975033_">
	<g>
		<defs>
			<rect id="SVGID_00000074428249321639729130000013177433495514273169_" x="153.1" y="233.4" width="20.5" height="20.5"/>
		</defs>
		<clipPath id="SVGID_00000016771313832295237890000013687653435982885551_">
			<use xlink:href="#SVGID_00000074428249321639729130000013177433495514273169_"  style="overflow:visible;"/>
		</clipPath>
		<g style="clip-path:url(#SVGID_00000016771313832295237890000013687653435982885551_);">
			<defs>
				<rect id="SVGID_00000006693877600553777290000012544651001902150835_" x="153.1" y="233.4" width="20.5" height="20.5"/>
			</defs>
			<clipPath id="SVGID_00000033341940083714050080000009277493420170371989_">
				<use xlink:href="#SVGID_00000006693877600553777290000012544651001902150835_"  style="overflow:visible;"/>
			</clipPath>
			<path style="clip-path:url(#SVGID_00000033341940083714050080000009277493420170371989_);fill:#E2E391;" d="M172,243.9h1
				c0.2,0,0.3-0.1,0.3-0.3c0-0.2-0.1-0.3-0.3-0.3h-1l1.4-1.4c0.1-0.1,0.1-0.3,0-0.5c-0.1-0.1-0.3-0.1-0.5,0l-1.9,1.9h-0.8l1-1
				c0.1-0.1,0.1-0.3,0-0.5c-0.1-0.1-0.3-0.1-0.5,0l-1.5,1.5h-0.8l0.6-0.6c0.1-0.1,0.1-0.3,0-0.5c-0.1-0.1-0.3-0.1-0.5,0l-1.1,1.1
				h-1.5l-0.6-0.6v-0.8l1-1h1.6c0.2,0,0.3-0.1,0.3-0.3c0-0.2-0.1-0.3-0.3-0.3h-0.9l0.6-0.6h2.1c0.2,0,0.3-0.1,0.3-0.3
				c0-0.2-0.1-0.3-0.3-0.3h-1.4l0.6-0.6h2.7c0.2,0,0.3-0.1,0.3-0.3c0-0.2-0.1-0.3-0.3-0.3h-2l0.7-0.7c0.1-0.1,0.1-0.3,0-0.5
				c-0.1-0.1-0.3-0.1-0.5,0l-0.7,0.7v-2c0-0.2-0.1-0.3-0.3-0.3c-0.2,0-0.3,0.1-0.3,0.3v2.7l-0.6,0.6V237c0-0.2-0.1-0.3-0.3-0.3
				c-0.2,0-0.3,0.1-0.3,0.3v2.1l-0.6,0.6v-0.9c0-0.2-0.1-0.3-0.3-0.3c-0.2,0-0.3,0.1-0.3,0.3v1.6l-1,1h-0.8l-0.6-0.6v-1.5l1.1-1.1
				c0.1-0.1,0.1-0.3,0-0.5c-0.1-0.1-0.3-0.1-0.5,0l-0.6,0.6v-0.8l1.5-1.5c0.1-0.1,0.1-0.3,0-0.5c-0.1-0.1-0.3-0.1-0.5,0l-1,1v-0.8
				l1.9-1.9c0.1-0.1,0.1-0.3,0-0.5c-0.1-0.1-0.3-0.1-0.5,0l-1.4,1.4v-1c0-0.2-0.1-0.3-0.3-0.3c-0.2,0-0.3,0.1-0.3,0.3v1l-1.4-1.4
				c-0.1-0.1-0.3-0.1-0.5,0c-0.1,0.1-0.1,0.3,0,0.5l1.9,1.9v0.8l-1-1c-0.1-0.1-0.3-0.1-0.5,0c-0.1,0.1-0.1,0.3,0,0.5l1.5,1.5v0.8
				l-0.6-0.6c-0.1-0.1-0.3-0.1-0.5,0c-0.1,0.1-0.1,0.3,0,0.5l1.1,1.1v1.5l-0.6,0.6h-0.8l-1-1v-1.6c0-0.2-0.1-0.3-0.3-0.3
				c-0.2,0-0.3,0.1-0.3,0.3v0.9l-0.6-0.6V237c0-0.2-0.1-0.3-0.3-0.3s-0.3,0.1-0.3,0.3v1.4l-0.6-0.6v-2.7c0-0.2-0.1-0.3-0.3-0.3
				c-0.2,0-0.3,0.1-0.3,0.3v2l-0.7-0.7c-0.1-0.1-0.3-0.1-0.5,0c-0.1,0.1-0.1,0.3,0,0.5l0.7,0.7h-2c-0.2,0-0.3,0.1-0.3,0.3
				c0,0.2,0.1,0.3,0.3,0.3h2.7l0.6,0.6h-1.4c-0.2,0-0.3,0.1-0.3,0.3c0,0.2,0.1,0.3,0.3,0.3h2.1l0.6,0.6h-0.9c-0.2,0-0.3,0.1-0.3,0.3
				c0,0.2,0.1,0.3,0.3,0.3h1.6l1,1v0.8l-0.6,0.6H159l-1.1-1.1c-0.1-0.1-0.3-0.1-0.5,0c-0.1,0.1-0.1,0.3,0,0.5l0.6,0.6h-0.8l-1.5-1.5
				c-0.1-0.1-0.3-0.1-0.5,0c-0.1,0.1-0.1,0.3,0,0.5l1,1h-0.8l-1.9-1.9c-0.1-0.1-0.3-0.1-0.5,0c-0.1,0.1-0.1,0.3,0,0.5l1.4,1.4h-1
				c-0.2,0-0.3,0.1-0.3,0.3c0,0.2,0.1,0.3,0.3,0.3h1l-1.4,1.4c-0.1,0.1-0.1,0.3,0,0.5c0.1,0.1,0.2,0.1,0.2,0.1c0.1,0,0.2,0,0.2-0.1
				l1.9-1.9h0.8l-1,1c-0.1,0.1-0.1,0.3,0,0.5c0.1,0.1,0.2,0.1,0.2,0.1c0.1,0,0.2,0,0.2-0.1l1.5-1.5h0.8l-0.6,0.6
				c-0.1,0.1-0.1,0.3,0,0.5c0.1,0.1,0.2,0.1,0.2,0.1c0.1,0,0.2,0,0.2-0.1l1.1-1.1h1.5l0.6,0.6v0.8l-1,1h-1.6c-0.2,0-0.3,0.1-0.3,0.3
				s0.1,0.3,0.3,0.3h0.9l-0.6,0.6h-2.1c-0.2,0-0.3,0.1-0.3,0.3c0,0.2,0.1,0.3,0.3,0.3h1.4l-0.6,0.6h-2.7c-0.2,0-0.3,0.1-0.3,0.3
				c0,0.2,0.1,0.3,0.3,0.3h2l-0.7,0.7c-0.1,0.1-0.1,0.3,0,0.5c0.1,0.1,0.2,0.1,0.2,0.1s0.2,0,0.2-0.1l0.7-0.7v2
				c0,0.2,0.1,0.3,0.3,0.3c0.2,0,0.3-0.1,0.3-0.3v-2.7l0.6-0.6v1.4c0,0.2,0.1,0.3,0.3,0.3s0.3-0.1,0.3-0.3v-2.1l0.6-0.6v0.9
				c0,0.2,0.1,0.3,0.3,0.3c0.2,0,0.3-0.1,0.3-0.3v-1.6l1-1h0.8l0.6,0.6v1.5l-1.1,1.1c-0.1,0.1-0.1,0.3,0,0.5c0.1,0.1,0.3,0.1,0.5,0
				l0.6-0.6v0.8l-1.5,1.5c-0.1,0.1-0.1,0.3,0,0.5c0.1,0.1,0.3,0.1,0.5,0l1-1v0.8l-1.9,1.9c-0.1,0.1-0.1,0.3,0,0.5s0.3,0.1,0.5,0
				l1.4-1.4v1c0,0.2,0.1,0.3,0.3,0.3c0.2,0,0.3-0.1,0.3-0.3v-1l1.4,1.4c0.1,0.1,0.2,0.1,0.2,0.1c0.1,0,0.2,0,0.2-0.1
				c0.1-0.1,0.1-0.3,0-0.5l-1.9-1.9v-0.8l1,1c0.1,0.1,0.2,0.1,0.2,0.1s0.2,0,0.2-0.1c0.1-0.1,0.1-0.3,0-0.5l-1.5-1.5v-0.8l0.6,0.6
				c0.1,0.1,0.2,0.1,0.2,0.1c0.1,0,0.2,0,0.2-0.1c0.1-0.1,0.1-0.3,0-0.5l-1.1-1.1v-1.5l0.6-0.6h0.8l1,1v1.6c0,0.2,0.1,0.3,0.3,0.3
				c0.2,0,0.3-0.1,0.3-0.3v-0.9l0.6,0.6v2.1c0,0.2,0.1,0.3,0.3,0.3c0.2,0,0.3-0.1,0.3-0.3v-1.4l0.6,0.6v2.7c0,0.2,0.1,0.3,0.3,0.3
				c0.2,0,0.3-0.1,0.3-0.3v-2l0.7,0.7c0.1,0.1,0.2,0.1,0.2,0.1s0.2,0,0.2-0.1c0.1-0.1,0.1-0.3,0-0.5l-0.7-0.7h2
				c0.2,0,0.3-0.1,0.3-0.3c0-0.2-0.1-0.3-0.3-0.3H169l-0.6-0.6h1.4c0.2,0,0.3-0.1,0.3-0.3c0-0.2-0.1-0.3-0.3-0.3h-2.1l-0.6-0.6h0.9
				c0.2,0,0.3-0.1,0.3-0.3s-0.1-0.3-0.3-0.3h-1.6l-1-1v-0.8l0.6-0.6h1.5l1.1,1.1c0.1,0.1,0.2,0.1,0.2,0.1c0.1,0,0.2,0,0.2-0.1
				c0.1-0.1,0.1-0.3,0-0.5l-0.6-0.6h0.8l1.5,1.5c0.1,0.1,0.2,0.1,0.2,0.1c0.1,0,0.2,0,0.2-0.1c0.1-0.1,0.1-0.3,0-0.5l-1-1h0.8
				l1.9,1.9c0.1,0.1,0.2,0.1,0.2,0.1c0.1,0,0.2,0,0.2-0.1c0.1-0.1,0.1-0.3,0-0.5L172,243.9z M164.9,244.3v0.9H164l-0.7,0.7l-0.7-0.7
				h-0.9v-0.9l-0.7-0.7l0.7-0.7V242h0.9l0.7-0.7l0.7,0.7h0.9v0.9l0.7,0.7L164.9,244.3z"/>
		</g>
	</g>
</g>
<g>
	<path style="fill:#E2E48D;" d="M108.3,91.2c-3.6,0-7.2,0.3-10.7,1c-0.2-7.8-3.4-23.5-25-29.3c-29.2-7.9-47.2,16.5-45.8,42.7
		c0.9,17.5-14.3,20.4-21.3,13.5c0,0,0.9,9.3,12.9,15.7c10.2,5.5,31.3,6.7,37.6-27.6C59,91.3,75,83.1,82.7,97
		c-20.4,9.7-34.5,30.4-34.5,54.4c0,33.2,27,60.1,60.1,60.1s60.1-27,60.1-60.1S141.5,91.2,108.3,91.2z M160.5,151.4
		c0,28.8-23.4,52.2-52.2,52.2s-52.2-23.4-52.2-52.2c0-5.3,0.8-10.4,2.3-15.2c2.9-3.1,10.3-8.9,27.4-10.9l4-13.1l2.7,12.2
		c0,0,40.3-8.8,66.2,13c1.6,1.4,3.2,2.9,4.7,4.5c-1.5-1.6-3.1-3.1-4.7-4.5C159.8,141.9,160.5,146.5,160.5,151.4z"/>
	<path style="fill:#E2E48D;" d="M108.3,192.4c14.9,0,27.2-11.2,29.7-25H78.7C81.1,181.1,93.4,192.4,108.3,192.4z"/>
	
		<ellipse transform="matrix(0.7752 -0.6317 0.6317 0.7752 -71.6027 89.3476)" style="fill:#E2E48D;" cx="89.8" cy="145.3" rx="7" ry="7"/>
	
		<ellipse transform="matrix(0.7853 -0.6192 0.6192 0.7853 -62.5876 110.1172)" style="fill:#E2E48D;" cx="127.5" cy="145.3" rx="7" ry="7"/>
	<path style="fill:#E2E48D;" d="M248.7,97.8c2.2-4.6,8.3-6.8,8.3-6.8c-5-1.4-8.5-0.2-10.9,1.5c0.7-5.5-0.3-13.2-9.4-18.6
		c0,0,7.8,9.6,1.4,19.8c-5.3-1.5-10.9-2.4-16.7-2.4c-33.2,0-60.1,27-60.1,60.1s27,60.1,60.1,60.1c33.2,0,60.1-27,60.1-60.1
		C281.6,128,268.2,107.7,248.7,97.8z M221.4,203.5c-28.8,0-52.2-23.4-52.2-52.2c0-4.2,0.5-8.4,1.5-12.3
		c13.2-2.3,52.1-10.7,69.8-33.4c0,0,10.8,27.6,32.6,38.7c1.4,0.7,2.8,1.3,4.2,1.9c-1.5-0.6-2.9-1.2-4.2-1.9c0.3,2.3,0.5,4.6,0.5,7
		C273.6,180.1,250.2,203.5,221.4,203.5z"/>
	<path style="fill:#E2E48D;" d="M221.4,192.4c14.9,0,27.2-11.2,29.7-25h-59.3C194.2,181.1,206.5,192.4,221.4,192.4z"/>
	<circle style="fill:#E2E48D;" cx="202.6" cy="145.3" r="7"/>
	<circle style="fill:#E2E48D;" cx="240.3" cy="145.3" r="7"/>
</g>
</svg>
