<svg version="1.1" xmlns="http://www.w3.org/2000/svg" xmlns:xlink="http://www.w3.org/1999/xlink" x="0px" y="0px"
	 viewBox="0 0 291.2 294.7" style="enable-background:new 0 0 291.2 294.7;" xml:space="preserve">
<g id="Vector_Smart_Object_00000008870051139259632870000006029255475115898522_">
	<g>
		<defs>
			<rect id="SVGID_00000160167652168809174120000001482534195245064849_" x="2.4" y="4.1" width="286.5" height="286.5"/>
		</defs>
		<clipPath id="SVGID_00000137824672413311249940000005271247651199836087_">
			<use xlink:href="#SVGID_00000160167652168809174120000001482534195245064849_"  style="overflow:visible;"/>
		</clipPath>
		<g style="clip-path:url(#SVGID_00000137824672413311249940000005271247651199836087_);">
			<defs>
				<rect id="SVGID_00000002374383649417789250000009105961578887944633_" x="2.4" y="4.1" width="286.5" height="286.5"/>
			</defs>
			<clipPath id="SVGID_00000037666666962469191770000005297784566008744588_">
				<use xlink:href="#SVGID_00000002374383649417789250000009105961578887944633_"  style="overflow:visible;"/>
			</clipPath>
			<path style="clip-path:url(#SVGID_00000037666666962469191770000005297784566008744588_);fill:#C8D532;" d="M284.1,142.6h-12.7
				l9.1-9.1c1.9-1.9,1.9-4.9,0-6.7c-1.9-1.9-4.9-1.9-6.7,0l-15.8,15.8h-15.7l14.1-14.1c1.9-1.9,1.9-4.9,0-6.7
				c-1.9-1.9-4.9-1.9-6.7,0l-20.8,20.8h-71.7l13.3-13.3l45.8-4.1c2.6-0.2,4.5-2.5,4.3-5.2c-0.2-2.6-2.6-4.5-5.2-4.3l-34.4,3.1
				l26.1-26.1l14.6,14.6c0.9,0.9,2.1,1.4,3.4,1.4s2.4-0.5,3.4-1.4c1.9-1.9,1.9-4.9,0-6.7L213.6,86l6.1-6.1l11,11
				c0.9,0.9,2.1,1.4,3.4,1.4s2.4-0.5,3.4-1.4c1.9-1.9,1.9-4.9,0-6.7l-11-11l6.1-6.1l7.1,7.1c0.9,0.9,2.1,1.4,3.4,1.4
				c1.2,0,2.4-0.5,3.4-1.4c1.9-1.9,1.9-4.9,0-6.7l-7.1-7.1l7.6-7.6c1.9-1.9,1.9-4.9,0-6.7c-1.9-1.9-4.9-1.9-6.7,0l-7.6,7.6l-7.1-7.1
				c-1.9-1.9-4.9-1.9-6.7,0c-1.9,1.9-1.9,4.9,0,6.7l7.1,7.1l-6.1,6.1l-11-11c-1.9-1.9-4.9-1.9-6.7,0c-1.9,1.9-1.9,4.9,0,6.7l11,11
				l-6.1,6.1l-14.6-14.6c-1.9-1.9-4.9-1.9-6.7,0c-1.9,1.9-1.9,4.9,0,6.7L200.2,86l-26.1,26.1l3.1-34.4c0.2-2.6-1.7-4.9-4.3-5.2
				c-2.6-0.2-4.9,1.7-5.2,4.3l-4.1,45.8l-13.3,13.3V64.1l20.9-20.8c1.9-1.9,1.9-4.9,0-6.7c-1.9-1.9-4.9-1.9-6.7,0l-14.1,14.1V35
				l15.8-15.8c1.9-1.9,1.9-4.9,0-6.7c-1.9-1.9-4.9-1.9-6.7,0l-9.1,9.1V8.8c0-2.6-2.1-4.8-4.8-4.8c-2.6,0-4.8,2.1-4.8,4.8v12.7
				l-9.1-9.1c-1.9-1.9-4.9-1.9-6.7,0c-1.9,1.9-1.9,4.9,0,6.7L140.8,35v15.7l-14.1-14.1c-1.9-1.9-4.9-1.9-6.7,0
				c-1.9,1.9-1.9,4.9,0,6.7l20.9,20.8v71.7l-13.3-13.3l-4.1-45.8c-0.2-2.6-2.5-4.5-5.2-4.3c-2.6,0.2-4.5,2.5-4.3,5.2l3.1,34.4L91,86
				l14.6-14.6c1.9-1.9,1.9-4.9,0-6.7c-1.9-1.9-4.9-1.9-6.7,0L84.3,79.3l-6.1-6.1l11-11c1.9-1.9,1.9-4.9,0-6.7
				c-1.9-1.9-4.9-1.9-6.7,0l-11,11l-6.1-6.1l7.1-7.1c1.9-1.9,1.9-4.9,0-6.7c-1.9-1.9-4.9-1.9-6.7,0l-7.1,7.1L51,46
				c-1.9-1.9-4.9-1.9-6.7,0c-1.9,1.9-1.9,4.9,0,6.7l7.6,7.6l-7.1,7.1c-1.9,1.9-1.9,4.9,0,6.7c0.9,0.9,2.1,1.4,3.4,1.4
				c1.2,0,2.4-0.5,3.4-1.4l7.1-7.1l6.1,6.1l-11,11c-1.9,1.9-1.9,4.9,0,6.7c0.9,0.9,2.1,1.4,3.4,1.4c1.2,0,2.4-0.5,3.4-1.4l11-11
				l6.1,6.1l-14.6,14.6c-1.9,1.9-1.9,4.9,0,6.7c0.9,0.9,2.1,1.4,3.4,1.4s2.4-0.5,3.4-1.4l14.6-14.6l26.1,26.1l-34.4-3.1
				c-2.6-0.2-4.9,1.7-5.2,4.3c-0.2,2.6,1.7,4.9,4.3,5.2l45.8,4.1l13.3,13.3H62.4l-20.9-20.8c-1.9-1.9-4.9-1.9-6.7,0
				c-1.9,1.9-1.9,4.9,0,6.7L49,142.6H33.3l-15.8-15.8c-1.9-1.9-4.9-1.9-6.7,0c-1.9,1.9-1.9,4.9,0,6.7l9.1,9.1H7.1
				c-2.6,0-4.8,2.1-4.8,4.8c0,2.6,2.1,4.8,4.8,4.8h12.7l-9.1,9.1c-1.9,1.9-1.9,4.9,0,6.7c0.9,0.9,2.1,1.4,3.4,1.4
				c1.2,0,2.4-0.5,3.4-1.4l15.8-15.8H49l-14.1,14.1c-1.9,1.9-1.9,4.9,0,6.7c0.9,0.9,2.1,1.4,3.4,1.4c1.2,0,2.4-0.5,3.4-1.4
				l20.9-20.9h71.7l-13.3,13.3l-45.8,4.1c-2.6,0.2-4.5,2.5-4.3,5.2c0.2,2.6,2.6,4.6,5.2,4.3l34.4-3.1l-26.1,26.1l-14.6-14.6
				c-1.9-1.9-4.9-1.9-6.7,0c-1.9,1.9-1.9,4.9,0,6.7l14.6,14.6l-6.1,6.1l-11-11c-1.9-1.9-4.9-1.9-6.7,0c-1.9,1.9-1.9,4.9,0,6.7l11,11
				l-6.1,6.1l-7.1-7.1c-1.9-1.9-4.9-1.9-6.7,0c-1.9,1.9-1.9,4.9,0,6.7l7.1,7.1l-7.6,7.6c-1.9,1.9-1.9,4.9,0,6.7
				c0.9,0.9,2.1,1.4,3.4,1.4c1.2,0,2.4-0.5,3.4-1.4l7.6-7.6l7.1,7.1c0.9,0.9,2.1,1.4,3.4,1.4s2.4-0.5,3.4-1.4c1.9-1.9,1.9-4.9,0-6.7
				l-7.1-7.1l6.1-6.1l11,11c0.9,0.9,2.1,1.4,3.4,1.4c1.2,0,2.4-0.5,3.4-1.4c1.9-1.9,1.9-4.9,0-6.7l-11-11l6.1-6.1L98.9,230
				c0.9,0.9,2.1,1.4,3.4,1.4s2.4-0.5,3.4-1.4c1.9-1.9,1.9-4.9,0-6.7L91,208.6l26.1-26.1L114,217c-0.2,2.6,1.7,4.9,4.3,5.2
				c0.1,0,0.3,0,0.4,0c2.4,0,4.5-1.9,4.7-4.3l4.1-45.8l13.3-13.3v71.7L120,251.4c-1.9,1.9-1.9,4.9,0,6.7c1.9,1.9,4.9,1.9,6.7,0
				l14.1-14.1v15.7L125,275.5c-1.9,1.9-1.9,4.9,0,6.7c1.9,1.9,4.9,1.9,6.7,0l9.1-9.1v12.7c0,2.6,2.1,4.8,4.8,4.8
				c2.6,0,4.8-2.1,4.8-4.8v-12.7l9.1,9.1c0.9,0.9,2.1,1.4,3.4,1.4c1.2,0,2.4-0.5,3.4-1.4c1.9-1.9,1.9-4.9,0-6.7l-15.8-15.8V244
				l14.1,14.1c0.9,0.9,2.1,1.4,3.4,1.4c1.2,0,2.4-0.5,3.4-1.4c1.9-1.9,1.9-4.9,0-6.7l-20.9-20.9v-71.7l13.3,13.3l4.1,45.8
				c0.2,2.5,2.3,4.3,4.7,4.3c0.1,0,0.3,0,0.4,0c2.6-0.2,4.5-2.5,4.3-5.2l-3.1-34.4l26.1,26.1l-14.6,14.6c-1.9,1.9-1.9,4.9,0,6.7
				c0.9,0.9,2.1,1.4,3.4,1.4c1.2,0,2.4-0.5,3.4-1.4l14.6-14.6l6.1,6.1l-11,11c-1.9,1.9-1.9,4.9,0,6.7c0.9,0.9,2.1,1.4,3.4,1.4
				c1.2,0,2.4-0.5,3.4-1.4l11-11l6.1,6.1l-7.1,7.1c-1.9,1.9-1.9,4.9,0,6.7c0.9,0.9,2.1,1.4,3.4,1.4c1.2,0,2.4-0.5,3.4-1.4l7.1-7.1
				l7.6,7.6c0.9,0.9,2.1,1.4,3.4,1.4s2.4-0.5,3.4-1.4c1.9-1.9,1.9-4.9,0-6.7l-7.6-7.6l7.1-7.1c1.9-1.9,1.9-4.9,0-6.7
				c-1.9-1.9-4.9-1.9-6.7,0l-7.1,7.1l-6.1-6.1l11-11c1.9-1.9,1.9-4.9,0-6.7c-1.9-1.9-4.9-1.9-6.7,0l-11,11l-6.1-6.1l14.6-14.6
				c1.9-1.9,1.9-4.9,0-6.7c-1.9-1.9-4.9-1.9-6.7,0l-14.6,14.6l-26.1-26.1l34.4,3.1c2.6,0.2,4.9-1.7,5.2-4.3c0.2-2.6-1.7-4.9-4.3-5.2
				l-45.8-4.1l-13.3-13.3h71.7l20.8,20.9c0.9,0.9,2.1,1.4,3.4,1.4c1.2,0,2.4-0.5,3.4-1.4c1.9-1.9,1.9-4.9,0-6.7l-14.1-14.1h15.7
				l15.8,15.8c0.9,0.9,2.1,1.4,3.4,1.4c1.2,0,2.4-0.5,3.4-1.4c1.9-1.9,1.9-4.9,0-6.7l-9.1-9.1h12.7c2.6,0,4.8-2.1,4.8-4.8
				C288.8,144.7,286.7,142.6,284.1,142.6"/>
		</g>
	</g>
</g>
</svg>
