<svg version="1.1" xmlns="http://www.w3.org/2000/svg" xmlns:xlink="http://www.w3.org/1999/xlink" x="0px" y="0px"
	 viewBox="0 0 291.2 294.7" style="enable-background:new 0 0 291.2 294.7;" xml:space="preserve">
<path style="display:none;fill:#97BB3A;" d="M284.1,142.8h-4.6l2.8-2.8c1.9-1.9,1.9-4.9,0-6.7c-1.9-1.9-4.9-1.9-6.7,0l-9.5,9.5H260
	l10.2-10.2c1.9-1.9,1.9-4.9,0-6.7c-1.9-1.9-4.9-1.9-6.7,0l-16.9,16.9h-6.4l-16.9-16.9c-1.9-1.9-4.9-1.9-6.7,0
	c-1.9,1.9-1.9,4.9,0,6.7l10.2,10.2h-11.6l-17-17v-24l8.2-8.2V108c0,2.6,2.1,4.8,4.8,4.8c2.6,0,4.8-2.1,4.8-4.8V84.1l4.5-4.5h23.9
	c2.6,0,4.8-2.1,4.8-4.8s-2.1-4.8-4.8-4.8h-14.4l4.3-4.3h13.4c2.6,0,4.8-2.1,4.8-4.8c0-2.6-2.1-4.8-4.8-4.8h-3.9l3.2-3.2
	c1.9-1.9,1.9-4.9,0-6.7c-1.9-1.9-4.9-1.9-6.7,0l-3.2,3.2v-3.9c0-2.6-2.1-4.8-4.8-4.8c-2.6,0-4.8,2.1-4.8,4.8V59l-4.3,4.3V48.9
	c0-2.6-2.1-4.8-4.8-4.8c-2.6,0-4.8,2.1-4.8,4.8v23.9l-4.5,4.5h-23.9c-2.6,0-4.8,2.1-4.8,4.8c0,2.6,2.1,4.8,4.8,4.8h14.4l-8.2,8.2
	h-24l-17-17V66.5l10.2,10.2c0.9,0.9,2.1,1.4,3.4,1.4c1.2,0,2.4-0.5,3.4-1.4c1.9-1.9,1.9-4.9,0-6.7L150.4,53v-6.4l16.9-16.9
	c1.9-1.9,1.9-4.9,0-6.7c-1.9-1.9-4.9-1.9-6.7,0l-10.2,10.2V27l9.5-9.5c1.9-1.9,1.9-4.9,0-6.7c-1.9-1.9-4.9-1.9-6.7,0l-2.8,2.8V9
	c0-2.6-2.1-4.8-4.8-4.8s-4.8,2.1-4.8,4.8v4.6l-2.8-2.8c-1.9-1.9-4.9-1.9-6.7,0c-1.9,1.9-1.9,4.9,0,6.7l9.5,9.5v6.1L130.7,23
	c-1.9-1.9-4.9-1.9-6.7,0c-1.9,1.9-1.9,4.9,0,6.7l16.9,16.9V53L124,69.9c-1.9,1.9-1.9,4.9,0,6.7c1.9,1.9,4.9,1.9,6.7,0l10.2-10.2V78
	l-17,17h-24l-8.2-8.2h14.4c2.6,0,4.8-2.1,4.8-4.8c0-2.6-2.1-4.8-4.8-4.8H82.2l-4.5-4.5V48.9c0-2.6-2.1-4.8-4.8-4.8
	c-2.6,0-4.8,2.1-4.8,4.8v14.4L63.8,59V45.6c0-2.6-2.1-4.8-4.8-4.8c-2.6,0-4.8,2.1-4.8,4.8v3.9l-3.2-3.2c-1.9-1.9-4.9-1.9-6.7,0
	c-1.9,1.9-1.9,4.9,0,6.7l3.2,3.2h-3.9c-2.6,0-4.8,2.1-4.8,4.8c0,2.6,2.1,4.8,4.8,4.8h13.4l4.3,4.3H47c-2.6,0-4.8,2.1-4.8,4.8
	s2.1,4.8,4.8,4.8h23.9l4.5,4.5V108c0,2.6,2.1,4.8,4.8,4.8c2.6,0,4.8-2.1,4.8-4.8V93.6l8.2,8.2v24l-17,17H64.6l10.2-10.2
	c1.9-1.9,1.9-4.9,0-6.7c-1.9-1.9-4.9-1.9-6.7,0l-16.9,16.9h-6.4l-16.9-16.9c-1.9-1.9-4.9-1.9-6.7,0c-1.9,1.9-1.9,4.9,0,6.7
	l10.2,10.2h-6.1l-9.5-9.5c-1.9-1.9-4.9-1.9-6.7,0c-1.9,1.9-1.9,4.9,0,6.7l2.8,2.8H7.2c-2.6,0-4.8,2.1-4.8,4.8c0,2.6,2.1,4.8,4.8,4.8
	h4.6L9,155c-1.9,1.9-1.9,4.9,0,6.7c0.9,0.9,2.1,1.4,3.4,1.4c1.2,0,2.4-0.5,3.4-1.4l9.5-9.5h6.1l-10.2,10.2c-1.9,1.9-1.9,4.9,0,6.7
	c0.9,0.9,2.1,1.4,3.4,1.4s2.4-0.5,3.4-1.4l16.9-16.9h6.4l16.9,16.9c0.9,0.9,2.1,1.4,3.4,1.4c1.2,0,2.4-0.5,3.4-1.4
	c1.9-1.9,1.9-4.9,0-6.7l-10.2-10.2h11.6l17,17v24l-8.2,8.2v-14.4c0-2.6-2.1-4.8-4.8-4.8c-2.6,0-4.8,2.1-4.8,4.8V211l-4.5,4.5H47
	c-2.6,0-4.8,2.1-4.8,4.8c0,2.6,2.1,4.8,4.8,4.8h14.4l-4.3,4.3H43.7c-2.6,0-4.8,2.1-4.8,4.8c0,2.6,2.1,4.8,4.8,4.8h3.9l-3.2,3.2
	c-1.9,1.9-1.9,4.9,0,6.7c0.9,0.9,2.1,1.4,3.4,1.4s2.4-0.5,3.4-1.4l3.2-3.2v3.9c0,2.6,2.1,4.8,4.8,4.8c2.6,0,4.8-2.1,4.8-4.8v-13.4
	l4.3-4.3v14.4c0,2.6,2.1,4.8,4.8,4.8c2.6,0,4.8-2.1,4.8-4.8v-23.9l4.5-4.5h23.9c2.6,0,4.8-2.1,4.8-4.8c0-2.6-2.1-4.8-4.8-4.8H91.7
	l8.2-8.2h24l17,17v11.6l-10.2-10.2c-1.9-1.9-4.9-1.9-6.7,0c-1.9,1.9-1.9,4.9,0,6.7l16.9,16.9v6.4L124,265.4c-1.9,1.9-1.9,4.9,0,6.7
	c1.9,1.9,4.9,1.9,6.7,0l10.2-10.2v6.1l-9.5,9.5c-1.9,1.9-1.9,4.9,0,6.7c1.9,1.9,4.9,1.9,6.7,0l2.8-2.8v4.6c0,2.6,2.1,4.8,4.8,4.8
	s4.8-2.1,4.8-4.8v-4.6l2.8,2.8c0.9,0.9,2.1,1.4,3.4,1.4c1.2,0,2.4-0.5,3.4-1.4c1.9-1.9,1.9-4.9,0-6.7l-9.5-9.5v-6.1l10.2,10.2
	c0.9,0.9,2.1,1.4,3.4,1.4c1.2,0,2.4-0.5,3.4-1.4c1.9-1.9,1.9-4.9,0-6.7l-16.9-16.9v-6.4l16.9-16.9c1.9-1.9,1.9-4.9,0-6.7
	c-1.9-1.9-4.9-1.9-6.7,0l-10.2,10.2V217l17-17h24l8.2,8.2h-14.4c-2.6,0-4.8,2.1-4.8,4.8c0,2.6,2.1,4.8,4.8,4.8h23.9l4.5,4.5v23.9
	c0,2.6,2.1,4.8,4.8,4.8c2.6,0,4.8-2.1,4.8-4.8v-14.4l4.3,4.3v13.4c0,2.6,2.1,4.8,4.8,4.8c2.6,0,4.8-2.1,4.8-4.8v-3.9l3.2,3.2
	c0.9,0.9,2.1,1.4,3.4,1.4c1.2,0,2.4-0.5,3.4-1.4c1.9-1.9,1.9-4.9,0-6.7l-3.2-3.2h3.9c2.6,0,4.8-2.1,4.8-4.8c0-2.6-2.1-4.8-4.8-4.8
	h-13.4l-4.3-4.3h14.4c2.6,0,4.8-2.1,4.8-4.8c0-2.6-2.1-4.8-4.8-4.8h-23.9l-4.5-4.5v-23.9c0-2.6-2.1-4.8-4.8-4.8
	c-2.6,0-4.8,2.1-4.8,4.8v14.4l-8.2-8.2v-24l17-17h11.6l-10.2,10.2c-1.9,1.9-1.9,4.9,0,6.7c0.9,0.9,2.1,1.4,3.4,1.4s2.4-0.5,3.4-1.4
	l16.9-16.9h6.4l16.9,16.9c0.9,0.9,2.1,1.4,3.4,1.4s2.4-0.5,3.4-1.4c1.9-1.9,1.9-4.9,0-6.7L260,152.3h6.1l9.5,9.5
	c0.9,0.9,2.1,1.4,3.4,1.4s2.4-0.5,3.4-1.4c1.9-1.9,1.9-4.9,0-6.7l-2.8-2.8h4.6c2.6,0,4.8-2.1,4.8-4.8
	C288.9,144.9,286.8,142.8,284.1,142.8z M150.4,91.5l10,10c0.5,1.4,1.7,2.4,3.1,2.8c0.7,0.4,1.5,0.6,2.3,0.6c0.7,0,1.3-0.1,1.9-0.4
	h14.2l-11,11h-12l-8.5-8.5V91.5z M123.6,104.5c1.3,0.6,2.9,0.5,4.2-0.2c1.4-0.4,2.6-1.5,3.1-2.8l10-10V107l-8.5,8.5h-12l-11-11
	H123.6z M99.6,132.7c1.4-0.5,2.4-1.7,2.8-3.1c0.7-1.3,0.8-2.9,0.2-4.2v-14.2l11,11v12l-8.5,8.5H89.6L99.6,132.7z M102.5,165.4
	c-0.4-1.4-1.5-2.6-2.8-3.1l-10-10h15.6l8.5,8.5v12l-11,11v-14.2C103.2,168.3,103.2,166.7,102.5,165.4z M140.9,203.6l-10-10
	c-0.5-1.4-1.7-2.4-3.1-2.8c-1.3-0.7-2.9-0.8-4.2-0.2h-14.2l11-11h12l8.5,8.5V203.6z M145.6,179.3l-9.3-9.3h-13.2v-13.2l-9.3-9.3
	l9.3-9.3V125h13.2l9.3-9.3l9.3,9.3h13.2v13.2l9.3,9.3l-9.3,9.3V170H155L145.6,179.3z M167.7,190.5c-1.3-0.6-2.9-0.5-4.2,0.2
	c-1.4,0.4-2.6,1.5-3.1,2.8l-10,10V188l8.5-8.5h12l11,11H167.7z M191.7,162.3c-1.4,0.5-2.4,1.7-2.8,3.1c-0.7,1.3-0.8,2.9-0.2,4.2
	v14.2l-11-11v-12l8.5-8.5h15.6L191.7,162.3z M186.1,142.8l-8.5-8.5v-12l11-11v14.2c-0.6,1.3-0.5,2.9,0.2,4.2
	c0.4,1.4,1.5,2.6,2.8,3.1l10,10H186.1z"/>
<g style="display:none;">
	<g id="Vector_Smart_Object_00000023978050721904661730000006533140736407449515_" style="display:inline;">
		<g>
			<defs>
				<rect id="SVGID_00000160895278979848701480000007671786345455977901_" x="98.1" y="51.1" width="29.3" height="29.3"/>
			</defs>
			<clipPath id="SVGID_00000071537380036519292100000009018085394648227724_">
				<use xlink:href="#SVGID_00000160895278979848701480000007671786345455977901_"  style="overflow:visible;"/>
			</clipPath>
			<g style="clip-path:url(#SVGID_00000071537380036519292100000009018085394648227724_);">
				<defs>
					<rect id="SVGID_00000025413658086083378130000000626816116836316605_" x="98.1" y="51.1" width="29.3" height="29.3"/>
				</defs>
				<clipPath id="SVGID_00000049929505647519850770000011845607155974647424_">
					<use xlink:href="#SVGID_00000025413658086083378130000000626816116836316605_"  style="overflow:visible;"/>
				</clipPath>
				<path style="clip-path:url(#SVGID_00000049929505647519850770000011845607155974647424_);fill:#E2E391;" d="M125.3,66.2h1.5
					c0.3,0,0.5-0.2,0.5-0.5c0-0.3-0.2-0.5-0.5-0.5h-1.5l2-2c0.2-0.2,0.2-0.5,0-0.7c-0.2-0.2-0.5-0.2-0.7,0l-2.7,2.7h-1.1l1.4-1.4
					c0.2-0.2,0.2-0.5,0-0.7c-0.2-0.2-0.5-0.2-0.7,0l-2.1,2.1h-1.1l0.9-0.9c0.2-0.2,0.2-0.5,0-0.7c-0.2-0.2-0.5-0.2-0.7,0l-1.6,1.6
					h-2.1l-0.9-0.9v-1.2l1.5-1.5h2.3c0.3,0,0.5-0.2,0.5-0.5c0-0.3-0.2-0.5-0.5-0.5h-1.3l0.8-0.8h3c0.3,0,0.5-0.2,0.5-0.5
					c0-0.3-0.2-0.5-0.5-0.5h-2l0.8-0.8h3.9c0.3,0,0.5-0.2,0.5-0.5c0-0.3-0.2-0.5-0.5-0.5H122l1-1c0.2-0.2,0.2-0.5,0-0.7
					c-0.2-0.2-0.5-0.2-0.7,0l-1,1v-2.9c0-0.3-0.2-0.5-0.5-0.5c-0.3,0-0.5,0.2-0.5,0.5v3.9l-0.8,0.8v-2c0-0.3-0.2-0.5-0.5-0.5
					c-0.3,0-0.5,0.2-0.5,0.5v3l-0.8,0.8v-1.3c0-0.3-0.2-0.5-0.5-0.5c-0.3,0-0.5,0.2-0.5,0.5V61l-1.5,1.5h-1.2l-0.9-0.9v-2.1l1.6-1.6
					c0.2-0.2,0.2-0.5,0-0.7c-0.2-0.2-0.5-0.2-0.7,0l-0.9,0.9v-1.1l2.1-2.1c0.2-0.2,0.2-0.5,0-0.7c-0.2-0.2-0.5-0.2-0.7,0l-1.4,1.4
					v-1.1l2.7-2.7c0.2-0.2,0.2-0.5,0-0.7c-0.2-0.2-0.5-0.2-0.7,0l-2,2v-1.5c0-0.3-0.2-0.5-0.5-0.5c-0.3,0-0.5,0.2-0.5,0.5v1.5l-2-2
					c-0.2-0.2-0.5-0.2-0.7,0c-0.2,0.2-0.2,0.5,0,0.7l2.7,2.7v1.1l-1.4-1.4c-0.2-0.2-0.5-0.2-0.7,0c-0.2,0.2-0.2,0.5,0,0.7l2.1,2.1
					v1.1l-0.9-0.9c-0.2-0.2-0.5-0.2-0.7,0c-0.2,0.2-0.2,0.5,0,0.7l1.6,1.6v2.1l-0.9,0.9h-1.2l-1.5-1.5v-2.3c0-0.3-0.2-0.5-0.5-0.5
					c-0.3,0-0.5,0.2-0.5,0.5v1.3l-0.8-0.8v-3c0-0.3-0.2-0.5-0.5-0.5S106,56,106,56.3v2l-0.8-0.8v-3.9c0-0.3-0.2-0.5-0.5-0.5
					c-0.3,0-0.5,0.2-0.5,0.5v2.9l-1-1c-0.2-0.2-0.5-0.2-0.7,0c-0.2,0.2-0.2,0.5,0,0.7l1,1h-2.9c-0.3,0-0.5,0.2-0.5,0.5
					c0,0.3,0.2,0.5,0.5,0.5h3.9l0.8,0.8h-2c-0.3,0-0.5,0.2-0.5,0.5c0,0.3,0.2,0.5,0.5,0.5h3l0.8,0.8h-1.3c-0.3,0-0.5,0.2-0.5,0.5
					c0,0.3,0.2,0.5,0.5,0.5h2.3l1.5,1.5v1.2l-0.9,0.9h-2.1l-1.6-1.6c-0.2-0.2-0.5-0.2-0.7,0c-0.2,0.2-0.2,0.5,0,0.7l0.9,0.9h-1.1
					l-2.1-2.1c-0.2-0.2-0.5-0.2-0.7,0c-0.2,0.2-0.2,0.5,0,0.7l1.4,1.4h-1.1l-2.7-2.7c-0.2-0.2-0.5-0.2-0.7,0c-0.2,0.2-0.2,0.5,0,0.7
					l2,2h-1.5c-0.3,0-0.5,0.2-0.5,0.5c0,0.3,0.2,0.5,0.5,0.5h1.5l-2,2c-0.2,0.2-0.2,0.5,0,0.7c0.1,0.1,0.2,0.1,0.3,0.1
					c0.1,0,0.2,0,0.3-0.1l2.7-2.7h1.1l-1.4,1.4c-0.2,0.2-0.2,0.5,0,0.7c0.1,0.1,0.2,0.1,0.3,0.1c0.1,0,0.2,0,0.3-0.1l2.1-2.1h1.1
					l-0.9,0.9c-0.2,0.2-0.2,0.5,0,0.7c0.1,0.1,0.2,0.1,0.3,0.1c0.1,0,0.2,0,0.3-0.1l1.6-1.6h2.1l0.9,0.9v1.2l-1.5,1.5h-2.3
					c-0.3,0-0.5,0.2-0.5,0.5s0.2,0.5,0.5,0.5h1.3l-0.8,0.8h-3c-0.3,0-0.5,0.2-0.5,0.5c0,0.3,0.2,0.5,0.5,0.5h2l-0.8,0.8h-3.9
					c-0.3,0-0.5,0.2-0.5,0.5c0,0.3,0.2,0.5,0.5,0.5h2.9l-1,1c-0.2,0.2-0.2,0.5,0,0.7c0.1,0.1,0.2,0.1,0.3,0.1s0.2,0,0.3-0.1l1-1v2.9
					c0,0.3,0.2,0.5,0.5,0.5c0.3,0,0.5-0.2,0.5-0.5v-3.9l0.8-0.8v2c0,0.3,0.2,0.5,0.5,0.5s0.5-0.2,0.5-0.5v-3l0.8-0.8v1.3
					c0,0.3,0.2,0.5,0.5,0.5c0.3,0,0.5-0.2,0.5-0.5v-2.3l1.5-1.5h1.2l0.9,0.9v2.1l-1.6,1.6c-0.2,0.2-0.2,0.5,0,0.7
					c0.2,0.2,0.5,0.2,0.7,0l0.9-0.9v1.1l-2.1,2.1c-0.2,0.2-0.2,0.5,0,0.7c0.2,0.2,0.5,0.2,0.7,0l1.4-1.4v1.1l-2.7,2.7
					c-0.2,0.2-0.2,0.5,0,0.7s0.5,0.2,0.7,0l2-2v1.5c0,0.3,0.2,0.5,0.5,0.5c0.3,0,0.5-0.2,0.5-0.5v-1.5l2,2c0.1,0.1,0.2,0.1,0.3,0.1
					c0.1,0,0.2,0,0.3-0.1c0.2-0.2,0.2-0.5,0-0.7l-2.7-2.7v-1.1l1.4,1.4c0.1,0.1,0.2,0.1,0.3,0.1s0.2,0,0.3-0.1
					c0.2-0.2,0.2-0.5,0-0.7l-2.1-2.1v-1.1l0.9,0.9c0.1,0.1,0.2,0.1,0.3,0.1c0.1,0,0.2,0,0.3-0.1c0.2-0.2,0.2-0.5,0-0.7l-1.6-1.6
					v-2.1l0.9-0.9h1.2l1.5,1.5v2.3c0,0.3,0.2,0.5,0.5,0.5c0.3,0,0.5-0.2,0.5-0.5v-1.3l0.8,0.8v3c0,0.3,0.2,0.5,0.5,0.5
					c0.3,0,0.5-0.2,0.5-0.5v-2l0.8,0.8v3.9c0,0.3,0.2,0.5,0.5,0.5c0.3,0,0.5-0.2,0.5-0.5v-2.9l1,1c0.1,0.1,0.2,0.1,0.3,0.1
					s0.2,0,0.3-0.1c0.2-0.2,0.2-0.5,0-0.7l-1-1h2.9c0.3,0,0.5-0.2,0.5-0.5c0-0.3-0.2-0.5-0.5-0.5H121l-0.8-0.8h2
					c0.3,0,0.5-0.2,0.5-0.5c0-0.3-0.2-0.5-0.5-0.5h-3l-0.8-0.8h1.3c0.3,0,0.5-0.2,0.5-0.5s-0.2-0.5-0.5-0.5h-2.3l-1.5-1.5v-1.2
					l0.9-0.9h2.1l1.6,1.6c0.1,0.1,0.2,0.1,0.3,0.1c0.1,0,0.2,0,0.3-0.1c0.2-0.2,0.2-0.5,0-0.7l-0.9-0.9h1.1l2.1,2.1
					c0.1,0.1,0.2,0.1,0.3,0.1c0.1,0,0.2,0,0.3-0.1c0.2-0.2,0.2-0.5,0-0.7l-1.4-1.4h1.1l2.7,2.7c0.1,0.1,0.2,0.1,0.3,0.1
					c0.1,0,0.2,0,0.3-0.1c0.2-0.2,0.2-0.5,0-0.7L125.3,66.2z M115.1,66.7V68h-1.3l-0.9,0.9l-0.9-0.9h-1.3v-1.3l-0.9-0.9l0.9-0.9
					v-1.3h1.3l0.9-0.9l0.9,0.9h1.3v1.3l0.9,0.9L115.1,66.7z"/>
			</g>
		</g>
	</g>
	<g id="Vector_Smart_Object_00000158029431454730243600000006779895340179592853_" style="display:inline;">
		<g>
			<defs>
				<rect id="SVGID_00000022531528854304195360000013295928252630386833_" x="251.1" y="207.6" width="29.3" height="29.3"/>
			</defs>
			<clipPath id="SVGID_00000111179582507937887420000017236818912998289051_">
				<use xlink:href="#SVGID_00000022531528854304195360000013295928252630386833_"  style="overflow:visible;"/>
			</clipPath>
			<g style="clip-path:url(#SVGID_00000111179582507937887420000017236818912998289051_);">
				<defs>
					<rect id="SVGID_00000039822497032886160520000012942836170310395785_" x="251.1" y="207.6" width="29.3" height="29.3"/>
				</defs>
				<clipPath id="SVGID_00000003100927518666596550000011142532052863260043_">
					<use xlink:href="#SVGID_00000039822497032886160520000012942836170310395785_"  style="overflow:visible;"/>
				</clipPath>
				<path style="clip-path:url(#SVGID_00000003100927518666596550000011142532052863260043_);fill:#E2E391;" d="M278.3,222.7h1.5
					c0.3,0,0.5-0.2,0.5-0.5c0-0.3-0.2-0.5-0.5-0.5h-1.5l2-2c0.2-0.2,0.2-0.5,0-0.7c-0.2-0.2-0.5-0.2-0.7,0l-2.7,2.7h-1.1l1.4-1.4
					c0.2-0.2,0.2-0.5,0-0.7c-0.2-0.2-0.5-0.2-0.7,0l-2.1,2.1h-1.1l0.9-0.9c0.2-0.2,0.2-0.5,0-0.7c-0.2-0.2-0.5-0.2-0.7,0l-1.6,1.6
					h-2.1l-0.9-0.9v-1.2l1.5-1.5h2.3c0.3,0,0.5-0.2,0.5-0.5c0-0.3-0.2-0.5-0.5-0.5h-1.3l0.8-0.8h3c0.3,0,0.5-0.2,0.5-0.5
					c0-0.3-0.2-0.5-0.5-0.5h-2l0.8-0.8h3.9c0.3,0,0.5-0.2,0.5-0.5c0-0.3-0.2-0.5-0.5-0.5h-2.9l1-1c0.2-0.2,0.2-0.5,0-0.7
					c-0.2-0.2-0.5-0.2-0.7,0l-1,1v-2.9c0-0.3-0.2-0.5-0.5-0.5c-0.3,0-0.5,0.2-0.5,0.5v3.9l-0.8,0.8v-2c0-0.3-0.2-0.5-0.5-0.5
					c-0.3,0-0.5,0.2-0.5,0.5v3l-0.8,0.8v-1.3c0-0.3-0.2-0.5-0.5-0.5c-0.3,0-0.5,0.2-0.5,0.5v2.3l-1.5,1.5h-1.2l-0.9-0.9v-2.1
					l1.6-1.6c0.2-0.2,0.2-0.5,0-0.7c-0.2-0.2-0.5-0.2-0.7,0l-0.9,0.9v-1.1l2.1-2.1c0.2-0.2,0.2-0.5,0-0.7c-0.2-0.2-0.5-0.2-0.7,0
					l-1.4,1.4v-1.1l2.7-2.7c0.2-0.2,0.2-0.5,0-0.7c-0.2-0.2-0.5-0.2-0.7,0l-2,2v-1.5c0-0.3-0.2-0.5-0.5-0.5c-0.3,0-0.5,0.2-0.5,0.5
					v1.5l-2-2c-0.2-0.2-0.5-0.2-0.7,0c-0.2,0.2-0.2,0.5,0,0.7l2.7,2.7v1.1l-1.4-1.4c-0.2-0.2-0.5-0.2-0.7,0c-0.2,0.2-0.2,0.5,0,0.7
					l2.1,2.1v1.1l-0.9-0.9c-0.2-0.2-0.5-0.2-0.7,0c-0.2,0.2-0.2,0.5,0,0.7l1.6,1.6v2.1l-0.9,0.9h-1.2l-1.5-1.5v-2.3
					c0-0.3-0.2-0.5-0.5-0.5c-0.3,0-0.5,0.2-0.5,0.5v1.3l-0.8-0.8v-3c0-0.3-0.2-0.5-0.5-0.5c-0.3,0-0.5,0.2-0.5,0.5v2l-0.8-0.8v-3.9
					c0-0.3-0.2-0.5-0.5-0.5c-0.3,0-0.5,0.2-0.5,0.5v2.9l-1-1c-0.2-0.2-0.5-0.2-0.7,0c-0.2,0.2-0.2,0.5,0,0.7l1,1h-2.9
					c-0.3,0-0.5,0.2-0.5,0.5c0,0.3,0.2,0.5,0.5,0.5h3.9l0.8,0.8h-2c-0.3,0-0.5,0.2-0.5,0.5c0,0.3,0.2,0.5,0.5,0.5h3l0.8,0.8h-1.3
					c-0.3,0-0.5,0.2-0.5,0.5c0,0.3,0.2,0.5,0.5,0.5h2.3l1.5,1.5v1.2l-0.9,0.9h-2.1l-1.6-1.6c-0.2-0.2-0.5-0.2-0.7,0
					c-0.2,0.2-0.2,0.5,0,0.7l0.9,0.9h-1.1l-2.1-2.1c-0.2-0.2-0.5-0.2-0.7,0c-0.2,0.2-0.2,0.5,0,0.7l1.4,1.4h-1.1l-2.7-2.7
					c-0.2-0.2-0.5-0.2-0.7,0c-0.2,0.2-0.2,0.5,0,0.7l2,2h-1.5c-0.3,0-0.5,0.2-0.5,0.5c0,0.3,0.2,0.5,0.5,0.5h1.5l-2,2
					c-0.2,0.2-0.2,0.5,0,0.7c0.1,0.1,0.2,0.1,0.3,0.1c0.1,0,0.2,0,0.3-0.1l2.7-2.7h1.1l-1.4,1.4c-0.2,0.2-0.2,0.5,0,0.7
					c0.1,0.1,0.2,0.1,0.3,0.1c0.1,0,0.2,0,0.3-0.1l2.1-2.1h1.1l-0.9,0.9c-0.2,0.2-0.2,0.5,0,0.7c0.1,0.1,0.2,0.1,0.3,0.1
					c0.1,0,0.2,0,0.3-0.1l1.6-1.6h2.1l0.9,0.9v1.2l-1.5,1.5h-2.3c-0.3,0-0.5,0.2-0.5,0.5c0,0.3,0.2,0.5,0.5,0.5h1.3l-0.8,0.8h-3
					c-0.3,0-0.5,0.2-0.5,0.5c0,0.3,0.2,0.5,0.5,0.5h2l-0.8,0.8h-3.9c-0.3,0-0.5,0.2-0.5,0.5c0,0.3,0.2,0.5,0.5,0.5h2.9l-1,1
					c-0.2,0.2-0.2,0.5,0,0.7c0.1,0.1,0.2,0.1,0.3,0.1s0.2,0,0.3-0.1l1-1v2.9c0,0.3,0.2,0.5,0.5,0.5c0.3,0,0.5-0.2,0.5-0.5v-3.9
					l0.8-0.8v2c0,0.3,0.2,0.5,0.5,0.5c0.3,0,0.5-0.2,0.5-0.5v-3l0.8-0.8v1.3c0,0.3,0.2,0.5,0.5,0.5c0.3,0,0.5-0.2,0.5-0.5V227
					l1.5-1.5h1.2l0.9,0.9v2.1l-1.6,1.6c-0.2,0.2-0.2,0.5,0,0.7c0.2,0.2,0.5,0.2,0.7,0l0.9-0.9v1.1l-2.1,2.1c-0.2,0.2-0.2,0.5,0,0.7
					c0.2,0.2,0.5,0.2,0.7,0l1.4-1.4v1.1l-2.7,2.7c-0.2,0.2-0.2,0.5,0,0.7c0.2,0.2,0.5,0.2,0.7,0l2-2v1.5c0,0.3,0.2,0.5,0.5,0.5
					c0.3,0,0.5-0.2,0.5-0.5v-1.5l2,2c0.1,0.1,0.2,0.1,0.3,0.1c0.1,0,0.2,0,0.3-0.1c0.2-0.2,0.2-0.5,0-0.7l-2.7-2.7v-1.1l1.4,1.4
					c0.1,0.1,0.2,0.1,0.3,0.1c0.1,0,0.2,0,0.3-0.1c0.2-0.2,0.2-0.5,0-0.7l-2.1-2.1v-1.1l0.9,0.9c0.1,0.1,0.2,0.1,0.3,0.1
					c0.1,0,0.2,0,0.3-0.1c0.2-0.2,0.2-0.5,0-0.7l-1.6-1.6v-2.1l0.9-0.9h1.2l1.5,1.5v2.3c0,0.3,0.2,0.5,0.5,0.5
					c0.3,0,0.5-0.2,0.5-0.5v-1.3l0.8,0.8v3c0,0.3,0.2,0.5,0.5,0.5s0.5-0.2,0.5-0.5v-2l0.8,0.8v3.9c0,0.3,0.2,0.5,0.5,0.5
					c0.3,0,0.5-0.2,0.5-0.5v-2.9l1,1c0.1,0.1,0.2,0.1,0.3,0.1c0.1,0,0.2,0,0.3-0.1c0.2-0.2,0.2-0.5,0-0.7l-1-1h2.9
					c0.3,0,0.5-0.2,0.5-0.5c0-0.3-0.2-0.5-0.5-0.5H274l-0.8-0.8h2c0.3,0,0.5-0.2,0.5-0.5c0-0.3-0.2-0.5-0.5-0.5h-3l-0.8-0.8h1.3
					c0.3,0,0.5-0.2,0.5-0.5c0-0.3-0.2-0.5-0.5-0.5h-2.3l-1.5-1.5v-1.2l0.9-0.9h2.1l1.6,1.6c0.1,0.1,0.2,0.1,0.3,0.1
					c0.1,0,0.2,0,0.3-0.1c0.2-0.2,0.2-0.5,0-0.7l-0.9-0.9h1.1l2.1,2.1c0.1,0.1,0.2,0.1,0.3,0.1c0.1,0,0.2,0,0.3-0.1
					c0.2-0.2,0.2-0.5,0-0.7l-1.4-1.4h1.1l2.7,2.7c0.1,0.1,0.2,0.1,0.3,0.1c0.1,0,0.2,0,0.3-0.1c0.2-0.2,0.2-0.5,0-0.7L278.3,222.7z
					 M268,223.2v1.3h-1.3l-0.9,0.9l-0.9-0.9h-1.3v-1.3l-0.9-0.9l0.9-0.9V220h1.3l0.9-0.9l0.9,0.9h1.3v1.3l0.9,0.9L268,223.2z"/>
			</g>
		</g>
	</g>
	<g id="Vector_Smart_Object_00000003073931428492183510000017179535097849690786_" style="display:inline;">
		<g>
			<defs>
				<rect id="SVGID_00000015314363450860971570000002591247912090878367_" x="36.3" y="196.9" width="29.3" height="29.3"/>
			</defs>
			<clipPath id="SVGID_00000018924440889508149130000011991492316315267213_">
				<use xlink:href="#SVGID_00000015314363450860971570000002591247912090878367_"  style="overflow:visible;"/>
			</clipPath>
			<g style="clip-path:url(#SVGID_00000018924440889508149130000011991492316315267213_);">
				<defs>
					<rect id="SVGID_00000120521256543344806750000002491285830967446157_" x="36.3" y="196.9" width="29.3" height="29.3"/>
				</defs>
				<clipPath id="SVGID_00000081636069870553338050000004203537587692007849_">
					<use xlink:href="#SVGID_00000120521256543344806750000002491285830967446157_"  style="overflow:visible;"/>
				</clipPath>
				<path style="clip-path:url(#SVGID_00000081636069870553338050000004203537587692007849_);fill:#E2E391;" d="M63.4,212h1.5
					c0.3,0,0.5-0.2,0.5-0.5c0-0.3-0.2-0.5-0.5-0.5h-1.5l2-2c0.2-0.2,0.2-0.5,0-0.7c-0.2-0.2-0.5-0.2-0.7,0l-2.7,2.7H61l1.4-1.4
					c0.2-0.2,0.2-0.5,0-0.7c-0.2-0.2-0.5-0.2-0.7,0l-2.1,2.1h-1.1l0.9-0.9c0.2-0.2,0.2-0.5,0-0.7c-0.2-0.2-0.5-0.2-0.7,0l-1.6,1.6
					H55l-0.9-0.9V209l1.5-1.5h2.3c0.3,0,0.5-0.2,0.5-0.5c0-0.3-0.2-0.5-0.5-0.5h-1.3l0.8-0.8h3c0.3,0,0.5-0.2,0.5-0.5
					c0-0.3-0.2-0.5-0.5-0.5h-2l0.8-0.8H63c0.3,0,0.5-0.2,0.5-0.5c0-0.3-0.2-0.5-0.5-0.5h-2.9l1-1c0.2-0.2,0.2-0.5,0-0.7
					c-0.2-0.2-0.5-0.2-0.7,0l-1,1v-2.9c0-0.3-0.2-0.5-0.5-0.5c-0.3,0-0.5,0.2-0.5,0.5v3.9l-0.8,0.8v-2c0-0.3-0.2-0.5-0.5-0.5
					c-0.3,0-0.5,0.2-0.5,0.5v3l-0.8,0.8v-1.3c0-0.3-0.2-0.5-0.5-0.5c-0.3,0-0.5,0.2-0.5,0.5v2.3l-1.5,1.5h-1.2l-0.9-0.9v-2.1
					l1.6-1.6c0.2-0.2,0.2-0.5,0-0.7c-0.2-0.2-0.5-0.2-0.7,0l-0.9,0.9v-1.1l2.1-2.1c0.2-0.2,0.2-0.5,0-0.7c-0.2-0.2-0.5-0.2-0.7,0
					l-1.4,1.4v-1.1l2.7-2.7c0.2-0.2,0.2-0.5,0-0.7c-0.2-0.2-0.5-0.2-0.7,0l-2,2v-1.5c0-0.3-0.2-0.5-0.5-0.5c-0.3,0-0.5,0.2-0.5,0.5
					v1.5l-2-2c-0.2-0.2-0.5-0.2-0.7,0s-0.2,0.5,0,0.7l2.7,2.7v1.1l-1.4-1.4c-0.2-0.2-0.5-0.2-0.7,0c-0.2,0.2-0.2,0.5,0,0.7l2.1,2.1
					v1.1l-0.9-0.9c-0.2-0.2-0.5-0.2-0.7,0c-0.2,0.2-0.2,0.5,0,0.7l1.6,1.6v2.1l-0.9,0.9h-1.2l-1.5-1.5v-2.3c0-0.3-0.2-0.5-0.5-0.5
					c-0.3,0-0.5,0.2-0.5,0.5v1.3l-0.8-0.8v-3c0-0.3-0.2-0.5-0.5-0.5c-0.3,0-0.5,0.2-0.5,0.5v2l-0.8-0.8v-3.9c0-0.3-0.2-0.5-0.5-0.5
					c-0.3,0-0.5,0.2-0.5,0.5v2.9l-1-1c-0.2-0.2-0.5-0.2-0.7,0c-0.2,0.2-0.2,0.5,0,0.7l1,1h-2.9c-0.3,0-0.5,0.2-0.5,0.5
					c0,0.3,0.2,0.5,0.5,0.5h3.9l0.8,0.8h-2c-0.3,0-0.5,0.2-0.5,0.5c0,0.3,0.2,0.5,0.5,0.5h3l0.8,0.8H44c-0.3,0-0.5,0.2-0.5,0.5
					c0,0.3,0.2,0.5,0.5,0.5h2.3l1.5,1.5v1.2l-0.9,0.9h-2.1l-1.6-1.6c-0.2-0.2-0.5-0.2-0.7,0c-0.2,0.2-0.2,0.5,0,0.7l0.9,0.9h-1.1
					l-2.1-2.1c-0.2-0.2-0.5-0.2-0.7,0c-0.2,0.2-0.2,0.5,0,0.7l1.4,1.4h-1.1l-2.7-2.7c-0.2-0.2-0.5-0.2-0.7,0c-0.2,0.2-0.2,0.5,0,0.7
					l2,2H37c-0.3,0-0.5,0.2-0.5,0.5c0,0.3,0.2,0.5,0.5,0.5h1.5l-2,2c-0.2,0.2-0.2,0.5,0,0.7c0.1,0.1,0.2,0.1,0.3,0.1
					c0.1,0,0.2,0,0.3-0.1l2.7-2.7h1.1l-1.4,1.4c-0.2,0.2-0.2,0.5,0,0.7c0.1,0.1,0.2,0.1,0.3,0.1c0.1,0,0.2,0,0.3-0.1l2.1-2.1h1.1
					l-0.9,0.9c-0.2,0.2-0.2,0.5,0,0.7c0.1,0.1,0.2,0.1,0.3,0.1c0.1,0,0.2,0,0.3-0.1l1.6-1.6h2.1l0.9,0.9v1.2l-1.5,1.5H44
					c-0.3,0-0.5,0.2-0.5,0.5s0.2,0.5,0.5,0.5h1.3l-0.8,0.8h-3c-0.3,0-0.5,0.2-0.5,0.5c0,0.3,0.2,0.5,0.5,0.5h2l-0.8,0.8h-3.9
					c-0.3,0-0.5,0.2-0.5,0.5c0,0.3,0.2,0.5,0.5,0.5h2.9l-1,1c-0.2,0.2-0.2,0.5,0,0.7c0.1,0.1,0.2,0.1,0.3,0.1c0.1,0,0.2,0,0.3-0.1
					l1-1v2.9c0,0.3,0.2,0.5,0.5,0.5c0.3,0,0.5-0.2,0.5-0.5v-3.9l0.8-0.8v2c0,0.3,0.2,0.5,0.5,0.5c0.3,0,0.5-0.2,0.5-0.5v-3l0.8-0.8
					v1.3c0,0.3,0.2,0.5,0.5,0.5c0.3,0,0.5-0.2,0.5-0.5v-2.3l1.5-1.5h1.2l0.9,0.9v2.1l-1.6,1.6c-0.2,0.2-0.2,0.5,0,0.7
					c0.2,0.2,0.5,0.2,0.7,0l0.9-0.9v1.1l-2.1,2.1c-0.2,0.2-0.2,0.5,0,0.7c0.2,0.2,0.5,0.2,0.7,0l1.4-1.4v1.1l-2.7,2.7
					c-0.2,0.2-0.2,0.5,0,0.7s0.5,0.2,0.7,0l2-2v1.5c0,0.3,0.2,0.5,0.5,0.5c0.3,0,0.5-0.2,0.5-0.5V224l2,2c0.1,0.1,0.2,0.1,0.3,0.1
					c0.1,0,0.2,0,0.3-0.1c0.2-0.2,0.2-0.5,0-0.7l-2.7-2.7v-1.1l1.4,1.4c0.1,0.1,0.2,0.1,0.3,0.1c0.1,0,0.2,0,0.3-0.1
					c0.2-0.2,0.2-0.5,0-0.7l-2.1-2.1v-1.1l0.9,0.9c0.1,0.1,0.2,0.1,0.3,0.1c0.1,0,0.2,0,0.3-0.1c0.2-0.2,0.2-0.5,0-0.7l-1.6-1.6
					v-2.1l0.9-0.9h1.2l1.5,1.5v2.3c0,0.3,0.2,0.5,0.5,0.5c0.3,0,0.5-0.2,0.5-0.5v-1.3l0.8,0.8v3c0,0.3,0.2,0.5,0.5,0.5
					c0.3,0,0.5-0.2,0.5-0.5v-2l0.8,0.8v3.9c0,0.3,0.2,0.5,0.5,0.5c0.3,0,0.5-0.2,0.5-0.5v-2.9l1,1c0.1,0.1,0.2,0.1,0.3,0.1
					c0.1,0,0.2,0,0.3-0.1c0.2-0.2,0.2-0.5,0-0.7l-1-1H63c0.3,0,0.5-0.2,0.5-0.5c0-0.3-0.2-0.5-0.5-0.5h-3.9l-0.8-0.8h2
					c0.3,0,0.5-0.2,0.5-0.5c0-0.3-0.2-0.5-0.5-0.5h-3l-0.8-0.8h1.3c0.3,0,0.5-0.2,0.5-0.5s-0.2-0.5-0.5-0.5h-2.3l-1.5-1.5v-1.2
					L55,212h2.1l1.6,1.6c0.1,0.1,0.2,0.1,0.3,0.1c0.1,0,0.2,0,0.3-0.1c0.2-0.2,0.2-0.5,0-0.7l-0.9-0.9h1.1l2.1,2.1
					c0.1,0.1,0.2,0.1,0.3,0.1c0.1,0,0.2,0,0.3-0.1c0.2-0.2,0.2-0.5,0-0.7L61,212h1.1l2.7,2.7c0.1,0.1,0.2,0.1,0.3,0.1
					c0.1,0,0.2,0,0.3-0.1c0.2-0.2,0.2-0.5,0-0.7L63.4,212z M53.2,212.5v1.3h-1.3l-0.9,0.9l-0.9-0.9h-1.3v-1.3l-0.9-0.9l0.9-0.9v-1.3
					H50l0.9-0.9l0.9,0.9h1.3v1.3l0.9,0.9L53.2,212.5z"/>
			</g>
		</g>
	</g>
	<g id="Vector_Smart_Object_00000125580729999966929860000011107985855761783961_" style="display:inline;">
		<g>
			<defs>
				<rect id="SVGID_00000069387064940352970400000003516382426445879976_" x="229.5" y="28.5" width="21.6" height="21.6"/>
			</defs>
			<clipPath id="SVGID_00000159443901894581025050000002136682293612023940_">
				<use xlink:href="#SVGID_00000069387064940352970400000003516382426445879976_"  style="overflow:visible;"/>
			</clipPath>
			<g style="clip-path:url(#SVGID_00000159443901894581025050000002136682293612023940_);">
				<defs>
					<rect id="SVGID_00000037675333946918110880000007430785155155095476_" x="229.5" y="28.5" width="21.6" height="21.6"/>
				</defs>
				<clipPath id="SVGID_00000000928892439863835420000015198391869396741055_">
					<use xlink:href="#SVGID_00000037675333946918110880000007430785155155095476_"  style="overflow:visible;"/>
				</clipPath>
				<path style="clip-path:url(#SVGID_00000000928892439863835420000015198391869396741055_);fill:#E2E391;" d="M249.5,39.7h1.1
					c0.2,0,0.4-0.2,0.4-0.4c0-0.2-0.2-0.4-0.4-0.4h-1.1l1.5-1.5c0.1-0.1,0.1-0.4,0-0.5c-0.1-0.1-0.4-0.1-0.5,0l-2,2h-0.8l1-1
					c0.1-0.1,0.1-0.4,0-0.5c-0.1-0.1-0.4-0.1-0.5,0l-1.5,1.5h-0.8l0.7-0.7c0.1-0.1,0.1-0.4,0-0.5c-0.1-0.1-0.4-0.1-0.5,0l-1.2,1.2
					h-1.5l-0.6-0.6v-0.9l1.1-1.1h1.7c0.2,0,0.4-0.2,0.4-0.4c0-0.2-0.2-0.4-0.4-0.4h-1l0.6-0.6h2.2c0.2,0,0.4-0.2,0.4-0.4
					c0-0.2-0.2-0.4-0.4-0.4h-1.5l0.6-0.6h2.8c0.2,0,0.4-0.2,0.4-0.4c0-0.2-0.2-0.4-0.4-0.4H247l0.8-0.8c0.1-0.1,0.1-0.4,0-0.5
					c-0.1-0.1-0.4-0.1-0.5,0l-0.8,0.8v-2.1c0-0.2-0.2-0.4-0.4-0.4c-0.2,0-0.4,0.2-0.4,0.4v2.8l-0.6,0.6v-1.5c0-0.2-0.2-0.4-0.4-0.4
					c-0.2,0-0.4,0.2-0.4,0.4v2.2l-0.6,0.6v-1c0-0.2-0.2-0.4-0.4-0.4c-0.2,0-0.4,0.2-0.4,0.4v1.7l-1.1,1.1h-0.9l-0.6-0.6v-1.5
					l1.2-1.2c0.1-0.1,0.1-0.4,0-0.5c-0.1-0.1-0.4-0.1-0.5,0l-0.7,0.7V33l1.5-1.5c0.1-0.1,0.1-0.4,0-0.5c-0.1-0.1-0.4-0.1-0.5,0l-1,1
					v-0.8l2-2c0.1-0.1,0.1-0.4,0-0.5c-0.1-0.1-0.4-0.1-0.5,0l-1.5,1.5v-1.1c0-0.2-0.2-0.4-0.4-0.4c-0.2,0-0.4,0.2-0.4,0.4v1.1
					l-1.5-1.5c-0.1-0.1-0.4-0.1-0.5,0s-0.1,0.4,0,0.5l2,2V32l-1-1c-0.1-0.1-0.4-0.1-0.5,0c-0.1,0.1-0.1,0.4,0,0.5l1.5,1.5v0.8
					l-0.7-0.7c-0.1-0.1-0.4-0.1-0.5,0c-0.1,0.1-0.1,0.4,0,0.5l1.2,1.2v1.5l-0.6,0.6h-0.9l-1.1-1.1v-1.7c0-0.2-0.2-0.4-0.4-0.4
					c-0.2,0-0.4,0.2-0.4,0.4v1l-0.6-0.6v-2.2c0-0.2-0.2-0.4-0.4-0.4c-0.2,0-0.4,0.2-0.4,0.4v1.5l-0.6-0.6v-2.8
					c0-0.2-0.2-0.4-0.4-0.4c-0.2,0-0.4,0.2-0.4,0.4v2.1l-0.8-0.8c-0.1-0.1-0.4-0.1-0.5,0c-0.1,0.1-0.1,0.4,0,0.5l0.8,0.8h-2.1
					c-0.2,0-0.4,0.2-0.4,0.4c0,0.2,0.2,0.4,0.4,0.4h2.8l0.6,0.6h-1.5c-0.2,0-0.4,0.2-0.4,0.4c0,0.2,0.2,0.4,0.4,0.4h2.2l0.6,0.6h-1
					c-0.2,0-0.4,0.2-0.4,0.4c0,0.2,0.2,0.4,0.4,0.4h1.7l1.1,1.1v0.9l-0.6,0.6h-1.5l-1.2-1.2c-0.1-0.1-0.4-0.1-0.5,0
					c-0.1,0.1-0.1,0.4,0,0.5l0.7,0.7h-0.8l-1.5-1.5c-0.1-0.1-0.4-0.1-0.5,0c-0.1,0.1-0.1,0.4,0,0.5l1,1h-0.8l-2-2
					c-0.1-0.1-0.4-0.1-0.5,0c-0.1,0.1-0.1,0.4,0,0.5l1.5,1.5H230c-0.2,0-0.4,0.2-0.4,0.4c0,0.2,0.2,0.4,0.4,0.4h1.1l-1.5,1.5
					c-0.1,0.1-0.1,0.4,0,0.5c0.1,0.1,0.2,0.1,0.2,0.1c0.1,0,0.2,0,0.2-0.1l2-2h0.8l-1,1c-0.1,0.1-0.1,0.4,0,0.5
					c0.1,0.1,0.2,0.1,0.2,0.1c0.1,0,0.2,0,0.2-0.1l1.5-1.5h0.8l-0.7,0.7c-0.1,0.1-0.1,0.4,0,0.5c0.1,0.1,0.2,0.1,0.2,0.1
					c0.1,0,0.2,0,0.2-0.1l1.2-1.2h1.5l0.6,0.6v0.9l-1.1,1.1h-1.7c-0.2,0-0.4,0.2-0.4,0.4s0.2,0.4,0.4,0.4h1l-0.6,0.6h-2.2
					c-0.2,0-0.4,0.2-0.4,0.4c0,0.2,0.2,0.4,0.4,0.4h1.5l-0.6,0.6h-2.8c-0.2,0-0.4,0.2-0.4,0.4c0,0.2,0.2,0.4,0.4,0.4h2.1l-0.8,0.8
					c-0.1,0.1-0.1,0.4,0,0.5c0.1,0.1,0.2,0.1,0.2,0.1s0.2,0,0.2-0.1l0.8-0.8v2.1c0,0.2,0.2,0.4,0.4,0.4c0.2,0,0.4-0.2,0.4-0.4v-2.8
					l0.6-0.6v1.5c0,0.2,0.2,0.4,0.4,0.4c0.2,0,0.4-0.2,0.4-0.4v-2.2l0.6-0.6v1c0,0.2,0.2,0.4,0.4,0.4c0.2,0,0.4-0.2,0.4-0.4v-1.7
					l1.1-1.1h0.9l0.6,0.6v1.5l-1.2,1.2c-0.1,0.1-0.1,0.4,0,0.5c0.1,0.1,0.4,0.1,0.5,0l0.7-0.7v0.8l-1.5,1.5c-0.1,0.1-0.1,0.4,0,0.5
					c0.1,0.1,0.4,0.1,0.5,0l1-1v0.8l-2,2c-0.1,0.1-0.1,0.4,0,0.5s0.4,0.1,0.5,0l1.5-1.5v1.1c0,0.2,0.2,0.4,0.4,0.4
					c0.2,0,0.4-0.2,0.4-0.4v-1.1l1.5,1.5c0.1,0.1,0.2,0.1,0.2,0.1c0.1,0,0.2,0,0.2-0.1c0.1-0.1,0.1-0.4,0-0.5l-2-2v-0.8l1,1
					c0.1,0.1,0.2,0.1,0.2,0.1s0.2,0,0.2-0.1c0.1-0.1,0.1-0.4,0-0.5l-1.5-1.5v-0.8l0.7,0.7c0.1,0.1,0.2,0.1,0.2,0.1
					c0.1,0,0.2,0,0.2-0.1c0.1-0.1,0.1-0.4,0-0.5l-1.2-1.2v-1.5l0.6-0.6h0.9l1.1,1.1v1.7c0,0.2,0.2,0.4,0.4,0.4
					c0.2,0,0.4-0.2,0.4-0.4v-1l0.6,0.6v2.2c0,0.2,0.2,0.4,0.4,0.4c0.2,0,0.4-0.2,0.4-0.4v-1.5l0.6,0.6v2.8c0,0.2,0.2,0.4,0.4,0.4
					c0.2,0,0.4-0.2,0.4-0.4v-2.1l0.8,0.8c0.1,0.1,0.2,0.1,0.2,0.1s0.2,0,0.2-0.1c0.1-0.1,0.1-0.4,0-0.5l-0.8-0.8h2.1
					c0.2,0,0.4-0.2,0.4-0.4c0-0.2-0.2-0.4-0.4-0.4h-2.8l-0.6-0.6h1.5c0.2,0,0.4-0.2,0.4-0.4c0-0.2-0.2-0.4-0.4-0.4h-2.2l-0.6-0.6h1
					c0.2,0,0.4-0.2,0.4-0.4s-0.2-0.4-0.4-0.4h-1.7l-1.1-1.1v-0.9l0.6-0.6h1.5l1.2,1.2c0.1,0.1,0.2,0.1,0.2,0.1c0.1,0,0.2,0,0.2-0.1
					c0.1-0.1,0.1-0.4,0-0.5l-0.7-0.7h0.8l1.5,1.5c0.1,0.1,0.2,0.1,0.2,0.1c0.1,0,0.2,0,0.2-0.1c0.1-0.1,0.1-0.4,0-0.5l-1-1h0.8l2,2
					c0.1,0.1,0.2,0.1,0.2,0.1c0.1,0,0.2,0,0.2-0.1c0.1-0.1,0.1-0.4,0-0.5L249.5,39.7z M242,40v1h-1l-0.7,0.7l-0.7-0.7h-1v-1
					l-0.7-0.7l0.7-0.7v-1h1l0.7-0.7l0.7,0.7h1v1l0.7,0.7L242,40z"/>
			</g>
		</g>
	</g>
	<g id="Vector_Smart_Object_00000060009937148482697890000006270142839168975033_" style="display:inline;">
		<g>
			<defs>
				<rect id="SVGID_00000054249810157018753700000004657528625017484221_" x="153.1" y="233.4" width="20.5" height="20.5"/>
			</defs>
			<clipPath id="SVGID_00000002373344080338933220000016139894428047055033_">
				<use xlink:href="#SVGID_00000054249810157018753700000004657528625017484221_"  style="overflow:visible;"/>
			</clipPath>
			<g style="clip-path:url(#SVGID_00000002373344080338933220000016139894428047055033_);">
				<defs>
					<rect id="SVGID_00000137127488328367401130000010046234074529729962_" x="153.1" y="233.4" width="20.5" height="20.5"/>
				</defs>
				<clipPath id="SVGID_00000039133039124696138330000012528385864697623975_">
					<use xlink:href="#SVGID_00000137127488328367401130000010046234074529729962_"  style="overflow:visible;"/>
				</clipPath>
				<path style="clip-path:url(#SVGID_00000039133039124696138330000012528385864697623975_);fill:#E2E391;" d="M172,243.9h1
					c0.2,0,0.3-0.1,0.3-0.3c0-0.2-0.1-0.3-0.3-0.3h-1l1.4-1.4c0.1-0.1,0.1-0.3,0-0.5c-0.1-0.1-0.3-0.1-0.5,0l-1.9,1.9h-0.8l1-1
					c0.1-0.1,0.1-0.3,0-0.5c-0.1-0.1-0.3-0.1-0.5,0l-1.5,1.5h-0.8l0.6-0.6c0.1-0.1,0.1-0.3,0-0.5c-0.1-0.1-0.3-0.1-0.5,0l-1.1,1.1
					h-1.5l-0.6-0.6v-0.8l1-1h1.6c0.2,0,0.3-0.1,0.3-0.3c0-0.2-0.1-0.3-0.3-0.3h-0.9l0.6-0.6h2.1c0.2,0,0.3-0.1,0.3-0.3
					c0-0.2-0.1-0.3-0.3-0.3h-1.4l0.6-0.6h2.7c0.2,0,0.3-0.1,0.3-0.3c0-0.2-0.1-0.3-0.3-0.3h-2l0.7-0.7c0.1-0.1,0.1-0.3,0-0.5
					c-0.1-0.1-0.3-0.1-0.5,0l-0.7,0.7v-2c0-0.2-0.1-0.3-0.3-0.3c-0.2,0-0.3,0.1-0.3,0.3v2.7l-0.6,0.6V237c0-0.2-0.1-0.3-0.3-0.3
					c-0.2,0-0.3,0.1-0.3,0.3v2.1l-0.6,0.6v-0.9c0-0.2-0.1-0.3-0.3-0.3c-0.2,0-0.3,0.1-0.3,0.3v1.6l-1,1h-0.8l-0.6-0.6v-1.5l1.1-1.1
					c0.1-0.1,0.1-0.3,0-0.5c-0.1-0.1-0.3-0.1-0.5,0l-0.6,0.6v-0.8l1.5-1.5c0.1-0.1,0.1-0.3,0-0.5c-0.1-0.1-0.3-0.1-0.5,0l-1,1v-0.8
					l1.9-1.9c0.1-0.1,0.1-0.3,0-0.5c-0.1-0.1-0.3-0.1-0.5,0l-1.4,1.4v-1c0-0.2-0.1-0.3-0.3-0.3c-0.2,0-0.3,0.1-0.3,0.3v1l-1.4-1.4
					c-0.1-0.1-0.3-0.1-0.5,0c-0.1,0.1-0.1,0.3,0,0.5l1.9,1.9v0.8l-1-1c-0.1-0.1-0.3-0.1-0.5,0c-0.1,0.1-0.1,0.3,0,0.5l1.5,1.5v0.8
					l-0.6-0.6c-0.1-0.1-0.3-0.1-0.5,0c-0.1,0.1-0.1,0.3,0,0.5l1.1,1.1v1.5l-0.6,0.6h-0.8l-1-1v-1.6c0-0.2-0.1-0.3-0.3-0.3
					c-0.2,0-0.3,0.1-0.3,0.3v0.9l-0.6-0.6V237c0-0.2-0.1-0.3-0.3-0.3s-0.3,0.1-0.3,0.3v1.4l-0.6-0.6v-2.7c0-0.2-0.1-0.3-0.3-0.3
					c-0.2,0-0.3,0.1-0.3,0.3v2l-0.7-0.7c-0.1-0.1-0.3-0.1-0.5,0c-0.1,0.1-0.1,0.3,0,0.5l0.7,0.7h-2c-0.2,0-0.3,0.1-0.3,0.3
					c0,0.2,0.1,0.3,0.3,0.3h2.7l0.6,0.6h-1.4c-0.2,0-0.3,0.1-0.3,0.3c0,0.2,0.1,0.3,0.3,0.3h2.1l0.6,0.6h-0.9
					c-0.2,0-0.3,0.1-0.3,0.3c0,0.2,0.1,0.3,0.3,0.3h1.6l1,1v0.8l-0.6,0.6H159l-1.1-1.1c-0.1-0.1-0.3-0.1-0.5,0
					c-0.1,0.1-0.1,0.3,0,0.5l0.6,0.6h-0.8l-1.5-1.5c-0.1-0.1-0.3-0.1-0.5,0c-0.1,0.1-0.1,0.3,0,0.5l1,1h-0.8l-1.9-1.9
					c-0.1-0.1-0.3-0.1-0.5,0c-0.1,0.1-0.1,0.3,0,0.5l1.4,1.4h-1c-0.2,0-0.3,0.1-0.3,0.3c0,0.2,0.1,0.3,0.3,0.3h1l-1.4,1.4
					c-0.1,0.1-0.1,0.3,0,0.5c0.1,0.1,0.2,0.1,0.2,0.1c0.1,0,0.2,0,0.2-0.1l1.9-1.9h0.8l-1,1c-0.1,0.1-0.1,0.3,0,0.5
					c0.1,0.1,0.2,0.1,0.2,0.1c0.1,0,0.2,0,0.2-0.1l1.5-1.5h0.8l-0.6,0.6c-0.1,0.1-0.1,0.3,0,0.5c0.1,0.1,0.2,0.1,0.2,0.1
					c0.1,0,0.2,0,0.2-0.1l1.1-1.1h1.5l0.6,0.6v0.8l-1,1h-1.6c-0.2,0-0.3,0.1-0.3,0.3s0.1,0.3,0.3,0.3h0.9l-0.6,0.6h-2.1
					c-0.2,0-0.3,0.1-0.3,0.3c0,0.2,0.1,0.3,0.3,0.3h1.4l-0.6,0.6h-2.7c-0.2,0-0.3,0.1-0.3,0.3c0,0.2,0.1,0.3,0.3,0.3h2l-0.7,0.7
					c-0.1,0.1-0.1,0.3,0,0.5c0.1,0.1,0.2,0.1,0.2,0.1s0.2,0,0.2-0.1l0.7-0.7v2c0,0.2,0.1,0.3,0.3,0.3c0.2,0,0.3-0.1,0.3-0.3v-2.7
					l0.6-0.6v1.4c0,0.2,0.1,0.3,0.3,0.3s0.3-0.1,0.3-0.3v-2.1l0.6-0.6v0.9c0,0.2,0.1,0.3,0.3,0.3c0.2,0,0.3-0.1,0.3-0.3v-1.6l1-1
					h0.8l0.6,0.6v1.5l-1.1,1.1c-0.1,0.1-0.1,0.3,0,0.5c0.1,0.1,0.3,0.1,0.5,0l0.6-0.6v0.8l-1.5,1.5c-0.1,0.1-0.1,0.3,0,0.5
					c0.1,0.1,0.3,0.1,0.5,0l1-1v0.8l-1.9,1.9c-0.1,0.1-0.1,0.3,0,0.5s0.3,0.1,0.5,0l1.4-1.4v1c0,0.2,0.1,0.3,0.3,0.3
					c0.2,0,0.3-0.1,0.3-0.3v-1l1.4,1.4c0.1,0.1,0.2,0.1,0.2,0.1c0.1,0,0.2,0,0.2-0.1c0.1-0.1,0.1-0.3,0-0.5l-1.9-1.9v-0.8l1,1
					c0.1,0.1,0.2,0.1,0.2,0.1s0.2,0,0.2-0.1c0.1-0.1,0.1-0.3,0-0.5l-1.5-1.5v-0.8l0.6,0.6c0.1,0.1,0.2,0.1,0.2,0.1
					c0.1,0,0.2,0,0.2-0.1c0.1-0.1,0.1-0.3,0-0.5l-1.1-1.1v-1.5l0.6-0.6h0.8l1,1v1.6c0,0.2,0.1,0.3,0.3,0.3c0.2,0,0.3-0.1,0.3-0.3
					v-0.9l0.6,0.6v2.1c0,0.2,0.1,0.3,0.3,0.3c0.2,0,0.3-0.1,0.3-0.3v-1.4l0.6,0.6v2.7c0,0.2,0.1,0.3,0.3,0.3c0.2,0,0.3-0.1,0.3-0.3
					v-2l0.7,0.7c0.1,0.1,0.2,0.1,0.2,0.1s0.2,0,0.2-0.1c0.1-0.1,0.1-0.3,0-0.5l-0.7-0.7h2c0.2,0,0.3-0.1,0.3-0.3
					c0-0.2-0.1-0.3-0.3-0.3H169l-0.6-0.6h1.4c0.2,0,0.3-0.1,0.3-0.3c0-0.2-0.1-0.3-0.3-0.3h-2.1l-0.6-0.6h0.9c0.2,0,0.3-0.1,0.3-0.3
					s-0.1-0.3-0.3-0.3h-1.6l-1-1v-0.8l0.6-0.6h1.5l1.1,1.1c0.1,0.1,0.2,0.1,0.2,0.1c0.1,0,0.2,0,0.2-0.1c0.1-0.1,0.1-0.3,0-0.5
					l-0.6-0.6h0.8l1.5,1.5c0.1,0.1,0.2,0.1,0.2,0.1c0.1,0,0.2,0,0.2-0.1c0.1-0.1,0.1-0.3,0-0.5l-1-1h0.8l1.9,1.9
					c0.1,0.1,0.2,0.1,0.2,0.1c0.1,0,0.2,0,0.2-0.1c0.1-0.1,0.1-0.3,0-0.5L172,243.9z M164.9,244.3v0.9H164l-0.7,0.7l-0.7-0.7h-0.9
					v-0.9l-0.7-0.7l0.7-0.7V242h0.9l0.7-0.7l0.7,0.7h0.9v0.9l0.7,0.7L164.9,244.3z"/>
			</g>
		</g>
	</g>
</g>
<g id="Vector_Smart_Object_00000027591613884397109020000015555740031965119896_">
	<g>
		<defs>
			<rect id="SVGID_00000075127249584247346040000012253073132307397560_" x="128.7" y="89" width="41.4" height="41.4"/>
		</defs>
		<clipPath id="SVGID_00000021832605975079049710000005922927011666064275_">
			<use xlink:href="#SVGID_00000075127249584247346040000012253073132307397560_"  style="overflow:visible;"/>
		</clipPath>
		<g style="clip-path:url(#SVGID_00000021832605975079049710000005922927011666064275_);">
			<defs>
				<rect id="SVGID_00000075844172003117877290000003604387004625689735_" x="128.7" y="89" width="41.4" height="41.4"/>
			</defs>
			<clipPath id="SVGID_00000091706511458264595770000018170196275230641541_">
				<use xlink:href="#SVGID_00000075844172003117877290000003604387004625689735_"  style="overflow:visible;"/>
			</clipPath>
			<path style="clip-path:url(#SVGID_00000091706511458264595770000018170196275230641541_);fill:#C8D532;" d="M169.4,109h-1.8
				l1.3-1.3c0.3-0.3,0.3-0.7,0-1c-0.3-0.3-0.7-0.3-1,0l-2.3,2.3h-2.3l2-2c0.3-0.3,0.3-0.7,0-1c-0.3-0.3-0.7-0.3-1,0l-3,3h-10.4
				l1.9-1.9l6.6-0.6c0.4,0,0.7-0.4,0.6-0.7c0-0.4-0.4-0.7-0.7-0.6l-5,0.4l3.8-3.8l2.1,2.1c0.1,0.1,0.3,0.2,0.5,0.2
				c0.2,0,0.4-0.1,0.5-0.2c0.3-0.3,0.3-0.7,0-1l-2.1-2.1l0.9-0.9l1.6,1.6c0.1,0.1,0.3,0.2,0.5,0.2c0.2,0,0.4-0.1,0.5-0.2
				c0.3-0.3,0.3-0.7,0-1l-1.6-1.6l0.9-0.9l1,1c0.1,0.1,0.3,0.2,0.5,0.2s0.4-0.1,0.5-0.2c0.3-0.3,0.3-0.7,0-1l-1-1l1.1-1.1
				c0.3-0.3,0.3-0.7,0-1s-0.7-0.3-1,0l-1.1,1.1l-1-1c-0.3-0.3-0.7-0.3-1,0c-0.3,0.3-0.3,0.7,0,1l1,1l-0.9,0.9l-1.6-1.6
				c-0.3-0.3-0.7-0.3-1,0c-0.3,0.3-0.3,0.7,0,1l1.6,1.6l-0.9,0.9l-2.1-2.1c-0.3-0.3-0.7-0.3-1,0c-0.3,0.3-0.3,0.7,0,1l2.1,2.1
				l-3.8,3.8l0.4-5c0-0.4-0.2-0.7-0.6-0.7c-0.4,0-0.7,0.2-0.7,0.6l-0.6,6.6l-1.9,1.9V97.7l3-3c0.3-0.3,0.3-0.7,0-1s-0.7-0.3-1,0
				l-2,2v-2.3l2.3-2.3c0.3-0.3,0.3-0.7,0-1c-0.3-0.3-0.7-0.3-1,0l-1.3,1.3v-1.8c0-0.4-0.3-0.7-0.7-0.7c-0.4,0-0.7,0.3-0.7,0.7v1.8
				l-1.3-1.3c-0.3-0.3-0.7-0.3-1,0s-0.3,0.7,0,1l2.3,2.3v2.3l-2-2c-0.3-0.3-0.7-0.3-1,0c-0.3,0.3-0.3,0.7,0,1l3,3V108l-1.9-1.9
				l-0.6-6.6c0-0.4-0.4-0.7-0.7-0.6c-0.4,0-0.7,0.4-0.6,0.7l0.4,5l-3.8-3.8l2.1-2.1c0.3-0.3,0.3-0.7,0-1c-0.3-0.3-0.7-0.3-1,0
				l-2.1,2.1l-0.9-0.9l1.6-1.6c0.3-0.3,0.3-0.7,0-1c-0.3-0.3-0.7-0.3-1,0l-1.6,1.6l-0.9-0.9l1-1c0.3-0.3,0.3-0.7,0-1
				c-0.3-0.3-0.7-0.3-1,0l-1,1l-1.1-1.1c-0.3-0.3-0.7-0.3-1,0s-0.3,0.7,0,1l1.1,1.1l-1,1c-0.3,0.3-0.3,0.7,0,1
				c0.1,0.1,0.3,0.2,0.5,0.2s0.4-0.1,0.5-0.2l1-1l0.9,0.9l-1.6,1.6c-0.3,0.3-0.3,0.7,0,1c0.1,0.1,0.3,0.2,0.5,0.2
				c0.2,0,0.4-0.1,0.5-0.2l1.6-1.6l0.9,0.9l-2.1,2.1c-0.3,0.3-0.3,0.7,0,1c0.1,0.1,0.3,0.2,0.5,0.2c0.2,0,0.4-0.1,0.5-0.2l2.1-2.1
				l3.8,3.8l-5-0.4c-0.4,0-0.7,0.2-0.7,0.6c0,0.4,0.2,0.7,0.6,0.7l6.6,0.6l1.9,1.9h-10.4l-3-3c-0.3-0.3-0.7-0.3-1,0
				c-0.3,0.3-0.3,0.7,0,1l2,2h-2.3l-2.3-2.3c-0.3-0.3-0.7-0.3-1,0c-0.3,0.3-0.3,0.7,0,1l1.3,1.3h-1.8c-0.4,0-0.7,0.3-0.7,0.7
				c0,0.4,0.3,0.7,0.7,0.7h1.8l-1.3,1.3c-0.3,0.3-0.3,0.7,0,1c0.1,0.1,0.3,0.2,0.5,0.2s0.4-0.1,0.5-0.2l2.3-2.3h2.3l-2,2
				c-0.3,0.3-0.3,0.7,0,1c0.1,0.1,0.3,0.2,0.5,0.2c0.2,0,0.4-0.1,0.5-0.2l3-3h10.4l-1.9,1.9l-6.6,0.6c-0.4,0-0.7,0.4-0.6,0.7
				c0,0.4,0.4,0.7,0.7,0.6l5-0.4l-3.8,3.8l-2.1-2.1c-0.3-0.3-0.7-0.3-1,0c-0.3,0.3-0.3,0.7,0,1l2.1,2.1l-0.9,0.9l-1.6-1.6
				c-0.3-0.3-0.7-0.3-1,0c-0.3,0.3-0.3,0.7,0,1l1.6,1.6l-0.9,0.9l-1-1c-0.3-0.3-0.7-0.3-1,0c-0.3,0.3-0.3,0.7,0,1l1,1l-1.1,1.1
				c-0.3,0.3-0.3,0.7,0,1c0.1,0.1,0.3,0.2,0.5,0.2c0.2,0,0.4-0.1,0.5-0.2l1.1-1.1l1,1c0.1,0.1,0.3,0.2,0.5,0.2
				c0.2,0,0.4-0.1,0.5-0.2c0.3-0.3,0.3-0.7,0-1l-1-1l0.9-0.9l1.6,1.6c0.1,0.1,0.3,0.2,0.5,0.2c0.2,0,0.4-0.1,0.5-0.2
				c0.3-0.3,0.3-0.7,0-1l-1.6-1.6l0.9-0.9l2.1,2.1c0.1,0.1,0.3,0.2,0.5,0.2c0.2,0,0.4-0.1,0.5-0.2c0.3-0.3,0.3-0.7,0-1l-2.1-2.1
				l3.8-3.8l-0.4,5c0,0.4,0.2,0.7,0.6,0.7c0,0,0,0,0.1,0c0.4,0,0.7-0.3,0.7-0.6l0.6-6.6l1.9-1.9v10.4l-3,3c-0.3,0.3-0.3,0.7,0,1
				c0.3,0.3,0.7,0.3,1,0l2-2v2.3l-2.3,2.3c-0.3,0.3-0.3,0.7,0,1c0.3,0.3,0.7,0.3,1,0l1.3-1.3v1.8c0,0.4,0.3,0.7,0.7,0.7
				c0.4,0,0.7-0.3,0.7-0.7v-1.8l1.3,1.3c0.1,0.1,0.3,0.2,0.5,0.2s0.4-0.1,0.5-0.2c0.3-0.3,0.3-0.7,0-1l-2.3-2.3v-2.3l2,2
				c0.1,0.1,0.3,0.2,0.5,0.2c0.2,0,0.4-0.1,0.5-0.2c0.3-0.3,0.3-0.7,0-1l-3-3v-10.4l1.9,1.9l0.6,6.6c0,0.4,0.3,0.6,0.7,0.6
				c0,0,0,0,0.1,0c0.4,0,0.7-0.4,0.6-0.7l-0.4-5l3.8,3.8l-2.1,2.1c-0.3,0.3-0.3,0.7,0,1c0.1,0.1,0.3,0.2,0.5,0.2
				c0.2,0,0.4-0.1,0.5-0.2l2.1-2.1l0.9,0.9l-1.6,1.6c-0.3,0.3-0.3,0.7,0,1c0.1,0.1,0.3,0.2,0.5,0.2c0.2,0,0.4-0.1,0.5-0.2l1.6-1.6
				l0.9,0.9l-1,1c-0.3,0.3-0.3,0.7,0,1c0.1,0.1,0.3,0.2,0.5,0.2s0.4-0.1,0.5-0.2l1-1l1.1,1.1c0.1,0.1,0.3,0.2,0.5,0.2
				c0.2,0,0.4-0.1,0.5-0.2c0.3-0.3,0.3-0.7,0-1l-1.1-1.1l1-1c0.3-0.3,0.3-0.7,0-1c-0.3-0.3-0.7-0.3-1,0l-1,1l-0.9-0.9l1.6-1.6
				c0.3-0.3,0.3-0.7,0-1c-0.3-0.3-0.7-0.3-1,0l-1.6,1.6l-0.9-0.9l2.1-2.1c0.3-0.3,0.3-0.7,0-1c-0.3-0.3-0.7-0.3-1,0l-2.1,2.1
				l-3.8-3.8l5,0.4c0.4,0,0.7-0.2,0.7-0.6c0-0.4-0.2-0.7-0.6-0.7l-6.6-0.6l-1.9-1.9h10.4l3,3c0.1,0.1,0.3,0.2,0.5,0.2
				c0.2,0,0.4-0.1,0.5-0.2c0.3-0.3,0.3-0.7,0-1l-2-2h2.3l2.3,2.3c0.1,0.1,0.3,0.2,0.5,0.2c0.2,0,0.4-0.1,0.5-0.2
				c0.3-0.3,0.3-0.7,0-1l-1.3-1.3h1.8c0.4,0,0.7-0.3,0.7-0.7C170.1,109.3,169.8,109,169.4,109"/>
		</g>
	</g>
</g>
<path style="fill:#C4D600;" d="M264.9,59.2h-231c-5,0-8.3,3.3-8.3,8.3v165c0,5,3.3,8.3,8.3,8.3h231c5,0,8.3-3.3,8.3-8.3v-165
	C273.2,62.5,269.9,59.2,264.9,59.2z M256.7,212.7l-65.2-65.2l65.2-61.1V212.7z M244.3,75.7l-94.9,87.5L54.6,75.7H244.3z M42.2,86.5
	l65.2,61.1l-65.2,65.2V86.5z M119.7,158.3l23.9,22.3c1.7,1.7,3.3,2.5,5.8,2.5c2.5,0,4.1-0.8,5.8-2.5l23.9-22.3l66,66H53.7
	L119.7,158.3z"/>
</svg>
