<svg version="1.1" xmlns="http://www.w3.org/2000/svg" xmlns:xlink="http://www.w3.org/1999/xlink" x="0px" y="0px"
	 viewBox="0 0 291.2 294.7" style="enable-background:new 0 0 291.2 294.7;" xml:space="preserve">
<g>
	<g>
		<path style="fill:#97BB3A;" d="M284.1,142.8h-4.6l2.8-2.8c1.9-1.9,1.9-4.9,0-6.7c-1.9-1.9-4.9-1.9-6.7,0l-9.5,9.5H260l10.2-10.2
			c1.9-1.9,1.9-4.9,0-6.7c-1.9-1.9-4.9-1.9-6.7,0l-16.9,16.9h-6.4l-16.9-16.9c-1.9-1.9-4.9-1.9-6.7,0c-1.9,1.9-1.9,4.9,0,6.7
			l10.2,10.2h-11.6l-17-17v-24l8.2-8.2V108c0,2.6,2.1,4.8,4.8,4.8c2.6,0,4.8-2.1,4.8-4.8V84.1l4.5-4.5h23.9c2.6,0,4.8-2.1,4.8-4.8
			s-2.1-4.8-4.8-4.8h-14.4l4.3-4.3h13.4c2.6,0,4.8-2.1,4.8-4.8c0-2.6-2.1-4.8-4.8-4.8h-3.9l3.2-3.2c1.9-1.9,1.9-4.9,0-6.7
			c-1.9-1.9-4.9-1.9-6.7,0l-3.2,3.2v-3.9c0-2.6-2.1-4.8-4.8-4.8c-2.6,0-4.8,2.1-4.8,4.8V59l-4.3,4.3V48.9c0-2.6-2.1-4.8-4.8-4.8
			c-2.6,0-4.8,2.1-4.8,4.8v23.9l-4.5,4.5h-23.9c-2.6,0-4.8,2.1-4.8,4.8c0,2.6,2.1,4.8,4.8,4.8h14.4l-8.2,8.2h-24l-17-17V66.5
			l10.2,10.2c0.9,0.9,2.1,1.4,3.4,1.4c1.2,0,2.4-0.5,3.4-1.4c1.9-1.9,1.9-4.9,0-6.7L150.4,53v-6.4l16.9-16.9c1.9-1.9,1.9-4.9,0-6.7
			c-1.9-1.9-4.9-1.9-6.7,0l-10.2,10.2V27l9.5-9.5c1.9-1.9,1.9-4.9,0-6.7c-1.9-1.9-4.9-1.9-6.7,0l-2.8,2.8V9c0-2.6-2.1-4.8-4.8-4.8
			s-4.8,2.1-4.8,4.8v4.6l-2.8-2.8c-1.9-1.9-4.9-1.9-6.7,0c-1.9,1.9-1.9,4.9,0,6.7l9.5,9.5v6.1L130.7,23c-1.9-1.9-4.9-1.9-6.7,0
			c-1.9,1.9-1.9,4.9,0,6.7l16.9,16.9V53L124,69.9c-1.9,1.9-1.9,4.9,0,6.7c1.9,1.9,4.9,1.9,6.7,0l10.2-10.2V78l-17,17h-24l-8.2-8.2
			h14.4c2.6,0,4.8-2.1,4.8-4.8c0-2.6-2.1-4.8-4.8-4.8H82.2l-4.5-4.5V48.9c0-2.6-2.1-4.8-4.8-4.8c-2.6,0-4.8,2.1-4.8,4.8v14.4
			L63.8,59V45.6c0-2.6-2.1-4.8-4.8-4.8c-2.6,0-4.8,2.1-4.8,4.8v3.9l-3.2-3.2c-1.9-1.9-4.9-1.9-6.7,0c-1.9,1.9-1.9,4.9,0,6.7l3.2,3.2
			h-3.9c-2.6,0-4.8,2.1-4.8,4.8c0,2.6,2.1,4.8,4.8,4.8h13.4l4.3,4.3H47c-2.6,0-4.8,2.1-4.8,4.8s2.1,4.8,4.8,4.8h23.9l4.5,4.5V108
			c0,2.6,2.1,4.8,4.8,4.8c2.6,0,4.8-2.1,4.8-4.8V93.6l8.2,8.2v24l-17,17H64.6l10.2-10.2c1.9-1.9,1.9-4.9,0-6.7
			c-1.9-1.9-4.9-1.9-6.7,0l-16.9,16.9h-6.4l-16.9-16.9c-1.9-1.9-4.9-1.9-6.7,0c-1.9,1.9-1.9,4.9,0,6.7l10.2,10.2h-6.1l-9.5-9.5
			c-1.9-1.9-4.9-1.9-6.7,0c-1.9,1.9-1.9,4.9,0,6.7l2.8,2.8H7.2c-2.6,0-4.8,2.1-4.8,4.8c0,2.6,2.1,4.8,4.8,4.8h4.6L9,155
			c-1.9,1.9-1.9,4.9,0,6.7c0.9,0.9,2.1,1.4,3.4,1.4c1.2,0,2.4-0.5,3.4-1.4l9.5-9.5h6.1l-10.2,10.2c-1.9,1.9-1.9,4.9,0,6.7
			c0.9,0.9,2.1,1.4,3.4,1.4s2.4-0.5,3.4-1.4l16.9-16.9h6.4l16.9,16.9c0.9,0.9,2.1,1.4,3.4,1.4c1.2,0,2.4-0.5,3.4-1.4
			c1.9-1.9,1.9-4.9,0-6.7l-10.2-10.2h11.6l17,17v24l-8.2,8.2v-14.4c0-2.6-2.1-4.8-4.8-4.8c-2.6,0-4.8,2.1-4.8,4.8V211l-4.5,4.5H47
			c-2.6,0-4.8,2.1-4.8,4.8c0,2.6,2.1,4.8,4.8,4.8h14.4l-4.3,4.3H43.7c-2.6,0-4.8,2.1-4.8,4.8c0,2.6,2.1,4.8,4.8,4.8h3.9l-3.2,3.2
			c-1.9,1.9-1.9,4.9,0,6.7c0.9,0.9,2.1,1.4,3.4,1.4s2.4-0.5,3.4-1.4l3.2-3.2v3.9c0,2.6,2.1,4.8,4.8,4.8c2.6,0,4.8-2.1,4.8-4.8v-13.4
			l4.3-4.3v14.4c0,2.6,2.1,4.8,4.8,4.8c2.6,0,4.8-2.1,4.8-4.8v-23.9l4.5-4.5h23.9c2.6,0,4.8-2.1,4.8-4.8c0-2.6-2.1-4.8-4.8-4.8H91.7
			l8.2-8.2h24l17,17v11.6l-10.2-10.2c-1.9-1.9-4.9-1.9-6.7,0c-1.9,1.9-1.9,4.9,0,6.7l16.9,16.9v6.4L124,265.4
			c-1.9,1.9-1.9,4.9,0,6.7c1.9,1.9,4.9,1.9,6.7,0l10.2-10.2v6.1l-9.5,9.5c-1.9,1.9-1.9,4.9,0,6.7c1.9,1.9,4.9,1.9,6.7,0l2.8-2.8v4.6
			c0,2.6,2.1,4.8,4.8,4.8s4.8-2.1,4.8-4.8v-4.6l2.8,2.8c0.9,0.9,2.1,1.4,3.4,1.4c1.2,0,2.4-0.5,3.4-1.4c1.9-1.9,1.9-4.9,0-6.7
			l-9.5-9.5v-6.1l10.2,10.2c0.9,0.9,2.1,1.4,3.4,1.4c1.2,0,2.4-0.5,3.4-1.4c1.9-1.9,1.9-4.9,0-6.7l-16.9-16.9v-6.4l16.9-16.9
			c1.9-1.9,1.9-4.9,0-6.7c-1.9-1.9-4.9-1.9-6.7,0l-10.2,10.2V217l17-17h24l8.2,8.2h-14.4c-2.6,0-4.8,2.1-4.8,4.8
			c0,2.6,2.1,4.8,4.8,4.8h23.9l4.5,4.5v23.9c0,2.6,2.1,4.8,4.8,4.8c2.6,0,4.8-2.1,4.8-4.8v-14.4l4.3,4.3v13.4c0,2.6,2.1,4.8,4.8,4.8
			c2.6,0,4.8-2.1,4.8-4.8v-3.9l3.2,3.2c0.9,0.9,2.1,1.4,3.4,1.4c1.2,0,2.4-0.5,3.4-1.4c1.9-1.9,1.9-4.9,0-6.7l-3.2-3.2h3.9
			c2.6,0,4.8-2.1,4.8-4.8c0-2.6-2.1-4.8-4.8-4.8h-13.4l-4.3-4.3h14.4c2.6,0,4.8-2.1,4.8-4.8c0-2.6-2.1-4.8-4.8-4.8h-23.9l-4.5-4.5
			v-23.9c0-2.6-2.1-4.8-4.8-4.8c-2.6,0-4.8,2.1-4.8,4.8v14.4l-8.2-8.2v-24l17-17h11.6l-10.2,10.2c-1.9,1.9-1.9,4.9,0,6.7
			c0.9,0.9,2.1,1.4,3.4,1.4s2.4-0.5,3.4-1.4l16.9-16.9h6.4l16.9,16.9c0.9,0.9,2.1,1.4,3.4,1.4s2.4-0.5,3.4-1.4
			c1.9-1.9,1.9-4.9,0-6.7L260,152.3h6.1l9.5,9.5c0.9,0.9,2.1,1.4,3.4,1.4s2.4-0.5,3.4-1.4c1.9-1.9,1.9-4.9,0-6.7l-2.8-2.8h4.6
			c2.6,0,4.8-2.1,4.8-4.8C288.9,144.9,286.8,142.8,284.1,142.8z M150.4,91.5l10,10c0.5,1.4,1.7,2.4,3.1,2.8c0.7,0.4,1.5,0.6,2.3,0.6
			c0.7,0,1.3-0.1,1.9-0.4h14.2l-11,11h-12l-8.5-8.5V91.5z M123.6,104.5c1.3,0.6,2.9,0.5,4.2-0.2c1.4-0.4,2.6-1.5,3.1-2.8l10-10V107
			l-8.5,8.5h-12l-11-11H123.6z M99.6,132.7c1.4-0.5,2.4-1.7,2.8-3.1c0.7-1.3,0.8-2.9,0.2-4.2v-14.2l11,11v12l-8.5,8.5H89.6
			L99.6,132.7z M102.5,165.4c-0.4-1.4-1.5-2.6-2.8-3.1l-10-10h15.6l8.5,8.5v12l-11,11v-14.2C103.2,168.3,103.2,166.7,102.5,165.4z
			 M140.9,203.6l-10-10c-0.5-1.4-1.7-2.4-3.1-2.8c-1.3-0.7-2.9-0.8-4.2-0.2h-14.2l11-11h12l8.5,8.5V203.6z M145.6,179.3l-9.3-9.3
			h-13.2v-13.2l-9.3-9.3l9.3-9.3V125h13.2l9.3-9.3l9.3,9.3h13.2v13.2l9.3,9.3l-9.3,9.3V170H155L145.6,179.3z M167.7,190.5
			c-1.3-0.6-2.9-0.5-4.2,0.2c-1.4,0.4-2.6,1.5-3.1,2.8l-10,10V188l8.5-8.5h12l11,11H167.7z M191.7,162.3c-1.4,0.5-2.4,1.7-2.8,3.1
			c-0.7,1.3-0.8,2.9-0.2,4.2v14.2l-11-11v-12l8.5-8.5h15.6L191.7,162.3z M186.1,142.8l-8.5-8.5v-12l11-11v14.2
			c-0.6,1.3-0.5,2.9,0.2,4.2c0.4,1.4,1.5,2.6,2.8,3.1l10,10H186.1z"/>
	</g>
</g>
</svg>
