<svg version="1.1"  xmlns="http://www.w3.org/2000/svg" xmlns:xlink="http://www.w3.org/1999/xlink" x="0px" y="0px"
	 viewBox="0 0 291.2 294.7" style="enable-background:new 0 0 291.2 294.7;" xml:space="preserve">
<path style="display:none;fill:#97BB3A;" d="M284.1,142.8h-4.6l2.8-2.8c1.9-1.9,1.9-4.9,0-6.7c-1.9-1.9-4.9-1.9-6.7,0l-9.5,9.5H260
	l10.2-10.2c1.9-1.9,1.9-4.9,0-6.7c-1.9-1.9-4.9-1.9-6.7,0l-16.9,16.9h-6.4l-16.9-16.9c-1.9-1.9-4.9-1.9-6.7,0
	c-1.9,1.9-1.9,4.9,0,6.7l10.2,10.2h-11.6l-17-17v-24l8.2-8.2V108c0,2.6,2.1,4.8,4.8,4.8c2.6,0,4.8-2.1,4.8-4.8V84.1l4.5-4.5h23.9
	c2.6,0,4.8-2.1,4.8-4.8s-2.1-4.8-4.8-4.8h-14.4l4.3-4.3h13.4c2.6,0,4.8-2.1,4.8-4.8c0-2.6-2.1-4.8-4.8-4.8h-3.9l3.2-3.2
	c1.9-1.9,1.9-4.9,0-6.7c-1.9-1.9-4.9-1.9-6.7,0l-3.2,3.2v-3.9c0-2.6-2.1-4.8-4.8-4.8c-2.6,0-4.8,2.1-4.8,4.8V59l-4.3,4.3V48.9
	c0-2.6-2.1-4.8-4.8-4.8c-2.6,0-4.8,2.1-4.8,4.8v23.9l-4.5,4.5h-23.9c-2.6,0-4.8,2.1-4.8,4.8c0,2.6,2.1,4.8,4.8,4.8h14.4l-8.2,8.2
	h-24l-17-17V66.5l10.2,10.2c0.9,0.9,2.1,1.4,3.4,1.4c1.2,0,2.4-0.5,3.4-1.4c1.9-1.9,1.9-4.9,0-6.7L150.4,53v-6.4l16.9-16.9
	c1.9-1.9,1.9-4.9,0-6.7c-1.9-1.9-4.9-1.9-6.7,0l-10.2,10.2V27l9.5-9.5c1.9-1.9,1.9-4.9,0-6.7c-1.9-1.9-4.9-1.9-6.7,0l-2.8,2.8V9
	c0-2.6-2.1-4.8-4.8-4.8s-4.8,2.1-4.8,4.8v4.6l-2.8-2.8c-1.9-1.9-4.9-1.9-6.7,0c-1.9,1.9-1.9,4.9,0,6.7l9.5,9.5v6.1L130.7,23
	c-1.9-1.9-4.9-1.9-6.7,0c-1.9,1.9-1.9,4.9,0,6.7l16.9,16.9V53L124,69.9c-1.9,1.9-1.9,4.9,0,6.7c1.9,1.9,4.9,1.9,6.7,0l10.2-10.2V78
	l-17,17h-24l-8.2-8.2h14.4c2.6,0,4.8-2.1,4.8-4.8c0-2.6-2.1-4.8-4.8-4.8H82.2l-4.5-4.5V48.9c0-2.6-2.1-4.8-4.8-4.8
	c-2.6,0-4.8,2.1-4.8,4.8v14.4L63.8,59V45.6c0-2.6-2.1-4.8-4.8-4.8c-2.6,0-4.8,2.1-4.8,4.8v3.9l-3.2-3.2c-1.9-1.9-4.9-1.9-6.7,0
	c-1.9,1.9-1.9,4.9,0,6.7l3.2,3.2h-3.9c-2.6,0-4.8,2.1-4.8,4.8c0,2.6,2.1,4.8,4.8,4.8h13.4l4.3,4.3H47c-2.6,0-4.8,2.1-4.8,4.8
	s2.1,4.8,4.8,4.8h23.9l4.5,4.5V108c0,2.6,2.1,4.8,4.8,4.8c2.6,0,4.8-2.1,4.8-4.8V93.6l8.2,8.2v24l-17,17H64.6l10.2-10.2
	c1.9-1.9,1.9-4.9,0-6.7c-1.9-1.9-4.9-1.9-6.7,0l-16.9,16.9h-6.4l-16.9-16.9c-1.9-1.9-4.9-1.9-6.7,0c-1.9,1.9-1.9,4.9,0,6.7
	l10.2,10.2h-6.1l-9.5-9.5c-1.9-1.9-4.9-1.9-6.7,0c-1.9,1.9-1.9,4.9,0,6.7l2.8,2.8H7.2c-2.6,0-4.8,2.1-4.8,4.8c0,2.6,2.1,4.8,4.8,4.8
	h4.6L9,155c-1.9,1.9-1.9,4.9,0,6.7c0.9,0.9,2.1,1.4,3.4,1.4c1.2,0,2.4-0.5,3.4-1.4l9.5-9.5h6.1l-10.2,10.2c-1.9,1.9-1.9,4.9,0,6.7
	c0.9,0.9,2.1,1.4,3.4,1.4s2.4-0.5,3.4-1.4l16.9-16.9h6.4l16.9,16.9c0.9,0.9,2.1,1.4,3.4,1.4c1.2,0,2.4-0.5,3.4-1.4
	c1.9-1.9,1.9-4.9,0-6.7l-10.2-10.2h11.6l17,17v24l-8.2,8.2v-14.4c0-2.6-2.1-4.8-4.8-4.8c-2.6,0-4.8,2.1-4.8,4.8V211l-4.5,4.5H47
	c-2.6,0-4.8,2.1-4.8,4.8c0,2.6,2.1,4.8,4.8,4.8h14.4l-4.3,4.3H43.7c-2.6,0-4.8,2.1-4.8,4.8c0,2.6,2.1,4.8,4.8,4.8h3.9l-3.2,3.2
	c-1.9,1.9-1.9,4.9,0,6.7c0.9,0.9,2.1,1.4,3.4,1.4s2.4-0.5,3.4-1.4l3.2-3.2v3.9c0,2.6,2.1,4.8,4.8,4.8c2.6,0,4.8-2.1,4.8-4.8v-13.4
	l4.3-4.3v14.4c0,2.6,2.1,4.8,4.8,4.8c2.6,0,4.8-2.1,4.8-4.8v-23.9l4.5-4.5h23.9c2.6,0,4.8-2.1,4.8-4.8c0-2.6-2.1-4.8-4.8-4.8H91.7
	l8.2-8.2h24l17,17v11.6l-10.2-10.2c-1.9-1.9-4.9-1.9-6.7,0c-1.9,1.9-1.9,4.9,0,6.7l16.9,16.9v6.4L124,265.4c-1.9,1.9-1.9,4.9,0,6.7
	c1.9,1.9,4.9,1.9,6.7,0l10.2-10.2v6.1l-9.5,9.5c-1.9,1.9-1.9,4.9,0,6.7c1.9,1.9,4.9,1.9,6.7,0l2.8-2.8v4.6c0,2.6,2.1,4.8,4.8,4.8
	s4.8-2.1,4.8-4.8v-4.6l2.8,2.8c0.9,0.9,2.1,1.4,3.4,1.4c1.2,0,2.4-0.5,3.4-1.4c1.9-1.9,1.9-4.9,0-6.7l-9.5-9.5v-6.1l10.2,10.2
	c0.9,0.9,2.1,1.4,3.4,1.4c1.2,0,2.4-0.5,3.4-1.4c1.9-1.9,1.9-4.9,0-6.7l-16.9-16.9v-6.4l16.9-16.9c1.9-1.9,1.9-4.9,0-6.7
	c-1.9-1.9-4.9-1.9-6.7,0l-10.2,10.2V217l17-17h24l8.2,8.2h-14.4c-2.6,0-4.8,2.1-4.8,4.8c0,2.6,2.1,4.8,4.8,4.8h23.9l4.5,4.5v23.9
	c0,2.6,2.1,4.8,4.8,4.8c2.6,0,4.8-2.1,4.8-4.8v-14.4l4.3,4.3v13.4c0,2.6,2.1,4.8,4.8,4.8c2.6,0,4.8-2.1,4.8-4.8v-3.9l3.2,3.2
	c0.9,0.9,2.1,1.4,3.4,1.4c1.2,0,2.4-0.5,3.4-1.4c1.9-1.9,1.9-4.9,0-6.7l-3.2-3.2h3.9c2.6,0,4.8-2.1,4.8-4.8c0-2.6-2.1-4.8-4.8-4.8
	h-13.4l-4.3-4.3h14.4c2.6,0,4.8-2.1,4.8-4.8c0-2.6-2.1-4.8-4.8-4.8h-23.9l-4.5-4.5v-23.9c0-2.6-2.1-4.8-4.8-4.8
	c-2.6,0-4.8,2.1-4.8,4.8v14.4l-8.2-8.2v-24l17-17h11.6l-10.2,10.2c-1.9,1.9-1.9,4.9,0,6.7c0.9,0.9,2.1,1.4,3.4,1.4s2.4-0.5,3.4-1.4
	l16.9-16.9h6.4l16.9,16.9c0.9,0.9,2.1,1.4,3.4,1.4s2.4-0.5,3.4-1.4c1.9-1.9,1.9-4.9,0-6.7L260,152.3h6.1l9.5,9.5
	c0.9,0.9,2.1,1.4,3.4,1.4s2.4-0.5,3.4-1.4c1.9-1.9,1.9-4.9,0-6.7l-2.8-2.8h4.6c2.6,0,4.8-2.1,4.8-4.8
	C288.9,144.9,286.8,142.8,284.1,142.8z M150.4,91.5l10,10c0.5,1.4,1.7,2.4,3.1,2.8c0.7,0.4,1.5,0.6,2.3,0.6c0.7,0,1.3-0.1,1.9-0.4
	h14.2l-11,11h-12l-8.5-8.5V91.5z M123.6,104.5c1.3,0.6,2.9,0.5,4.2-0.2c1.4-0.4,2.6-1.5,3.1-2.8l10-10V107l-8.5,8.5h-12l-11-11
	H123.6z M99.6,132.7c1.4-0.5,2.4-1.7,2.8-3.1c0.7-1.3,0.8-2.9,0.2-4.2v-14.2l11,11v12l-8.5,8.5H89.6L99.6,132.7z M102.5,165.4
	c-0.4-1.4-1.5-2.6-2.8-3.1l-10-10h15.6l8.5,8.5v12l-11,11v-14.2C103.2,168.3,103.2,166.7,102.5,165.4z M140.9,203.6l-10-10
	c-0.5-1.4-1.7-2.4-3.1-2.8c-1.3-0.7-2.9-0.8-4.2-0.2h-14.2l11-11h12l8.5,8.5V203.6z M145.6,179.3l-9.3-9.3h-13.2v-13.2l-9.3-9.3
	l9.3-9.3V125h13.2l9.3-9.3l9.3,9.3h13.2v13.2l9.3,9.3l-9.3,9.3V170H155L145.6,179.3z M167.7,190.5c-1.3-0.6-2.9-0.5-4.2,0.2
	c-1.4,0.4-2.6,1.5-3.1,2.8l-10,10V188l8.5-8.5h12l11,11H167.7z M191.7,162.3c-1.4,0.5-2.4,1.7-2.8,3.1c-0.7,1.3-0.8,2.9-0.2,4.2
	v14.2l-11-11v-12l8.5-8.5h15.6L191.7,162.3z M186.1,142.8l-8.5-8.5v-12l11-11v14.2c-0.6,1.3-0.5,2.9,0.2,4.2
	c0.4,1.4,1.5,2.6,2.8,3.1l10,10H186.1z"/>
<g>
	<path style="fill:#ED7D31;" d="M169.3,113.4L169.3,113.4v3.1v0c0.1,0,7.7,0,13.1,3.4l1.7-2.6h0l0,0
		C177.9,113.4,169.6,113.4,169.3,113.4z"/>
	<path style="fill:#ED7D31;" d="M116,130.2c-3.5,0-6.4,2.8-7,6.5c-0.1,0.4-0.1,0.9-0.1,1.3v0v0c0,1.4,0.3,2.7,0.9,3.8
		c1.2,2.4,3.5,4,6.2,4c1.7,0,3.2-0.6,4.5-1.7c1.2-1.1,2.1-2.6,2.4-4.4c0.1-0.5,0.2-1.1,0.2-1.7v0v0
		C123.1,133.7,119.9,130.2,116,130.2z M118.1,138.7c-1.2,0-2.1-1.1-2.1-2.3c0-1.3,0.9-2.3,2.1-2.3c1.2,0,2.1,1,2.1,2.3
		C120.2,137.7,119.3,138.7,118.1,138.7z"/>
	<path style="fill:#ED7D31;" d="M172.6,137.1c-0.4-3.9-3.4-6.9-7-6.9c-3.9,0-7.1,3.5-7.1,7.8v0v0c0,0.7,0.1,1.3,0.2,2
		c0.4,1.8,1.4,3.3,2.7,4.3c1.2,1,2.6,1.5,4.2,1.5c2.5,0,4.7-1.4,6-3.6c0.7-1.2,1.1-2.6,1.1-4.2v0v0
		C172.7,137.7,172.7,137.4,172.6,137.1z M167.7,134.1c1.2,0,2.1,1,2.1,2.3c0,0.6-0.2,1.1-0.5,1.5c-0.4,0.5-1,0.8-1.6,0.8
		c-0.3,0-0.7-0.1-1-0.3h0c-0.7-0.4-1.1-1.2-1.1-2.1C165.6,135.1,166.5,134.1,167.7,134.1z"/>
	<path style="fill:#ED7D31;" d="M115.6,116.5v-3.1v0c-0.3,0-8.5,0.1-14.6,3.8c0,0-0.1,0-0.1,0.1l0,0c0,0,0,0-0.1,0l0,0h0l1.7,2.6
		C107.8,116.6,115.5,116.5,115.6,116.5L115.6,116.5L115.6,116.5z"/>
	<path style="fill:#ED7D31;" d="M266.4,52.8C253.3,35.2,222.9,9.7,167,10.3c-44.2,0.5-76.5,30.9-92.5,51.7c0,0,0,0,0,0
		c-10.3,8.7-15.9,19.2-15.9,30.3v26.9c-5,1.5-9.1,5-11.3,9.8c-1.9,4.1-2.2,8.7-1,13.2c-0.2,0.3-0.5,0.6-0.7,0.9
		c-4.5,6-7.9,11.5-10.5,17c-5.6,11.7-7.7,24.1-6.6,37.8c1.3,15.9,10.2,31.9,25.1,45.1c2.3,2.1,4.9,4.1,7.6,6.1
		c16.9,12.4,60.3,35.1,80.4,35.1c20,0,63.4-22.7,80.4-35.1c3.5-2.6,6.8-5.3,9.8-8.1c13.5-12.8,21.7-28.1,22.9-43.1
		c1.1-13.7-1-26.1-6.6-37.8c-2.5-5.4-5.9-10.9-10.3-16.7c-0.2-0.3-0.4-0.6-0.7-0.9c1.3-4.6,1-9.3-0.9-13.5
		c-2.3-4.9-6.5-8.3-11.6-9.9V92.4c0-7.2-2.3-14.1-6.8-20.4l0,0c-0.3-6,0.1-12.2,1.7-17.4c0.1-0.2,0.1-0.3,0.2-0.5
		c0.4-1.1,0.8-2.1,1.3-3.1c0.1-0.2,0.2-0.4,0.3-0.6c0.5-0.9,1.1-1.8,1.8-2.6c0.1-0.1,0.2-0.3,0.3-0.4c1.6-1.8,3.6-3.2,6.1-4
		c9.2-3,17.5,0.1,23.9,4.4c1.1,0.7,2.1,1.5,3.1,2.4C247.3,50.5,240,58,240,67.2c0,9.4,7.7,17.1,17.1,17.1c9.4,0,17.1-7.7,17.1-17.1
		C274.2,61.2,271.1,55.9,266.4,52.8z M215,114.8c-0.7-0.8-1.3-1.5-2-2.3c-0.1-0.1-0.3-0.3-0.4-0.4c-0.5-0.5-1.1-1.1-1.6-1.6
		l-0.2-0.2c-0.1-0.1-0.2-0.2-0.3-0.2l-0.3-0.3c-0.8-0.7-1.7-1.5-2.5-2.2l-0.4-0.4l-0.3-0.2c-0.9-0.7-1.8-1.4-2.8-2.1
		c-0.2-0.2-0.4-0.3-0.6-0.4c-0.9-0.7-1.9-1.3-2.9-1.9l-0.1-0.1c-0.1-0.1-0.3-0.2-0.5-0.3c-2.4-1.4-5-2.8-7.5-4
		c-0.1-0.1-0.3-0.1-0.4-0.2l-0.1-0.1c-1.2-0.6-2.4-1.1-3.8-1.7c-0.1,0-0.2-0.1-0.3-0.1c-0.8-0.3-1.6-0.6-2.4-0.9
		c-2.1-0.8-4.4-1.6-6.7-2.3c-0.1,0-0.3-0.1-0.4-0.1c-1.3-0.4-2.6-0.7-3.8-1.1c-3.5-0.9-7.2-1.7-10.9-2.3l-0.2,0
		c-3.5-0.6-7.1-1-10.6-1.3l-0.2,0c-1.7-0.1-3.5-0.3-5.2-0.3H147c-1.7-0.1-3.5-0.1-5.5-0.1c-2,0-3.8,0-5.5,0.1h-0.3
		c-1.7,0.1-3.5,0.2-5.2,0.3l-0.2,0c-1.4,0.1-2.7,0.3-4,0.5c-0.8,0.1-1.7,0.2-2.5,0.3c-1.3,0.2-2.7,0.3-4,0.5l-0.3,0
		c-3.7,0.6-7.3,1.4-10.8,2.3c-1.3,0.3-2.6,0.7-3.8,1.1c-0.1,0-0.3,0.1-0.5,0.1c-0.4,0.1-0.8,0.2-1.1,0.4c-1.4,0.4-2.7,1-4,1.5
		c0,0,0,0,0,0c-1.2,0.5-2.6,0.9-3.7,1.4c-0.1,0-0.3,0.1-0.4,0.2c-1.4,0.6-2.7,1.1-3.8,1.7L91,98.1c-0.1,0.1-0.3,0.1-0.3,0.2
		c-1,0.5-1.9,1-2.9,1.5c-0.6,0.3-1.2,0.7-1.9,1c-1,0.5-2,1-2.9,1.6c-0.1,0.1-0.3,0.2-0.4,0.2l-0.1,0.1c-1,0.6-2,1.3-2.8,1.9
		c-0.3,0.2-0.5,0.3-0.6,0.4c-1,0.7-2,1.4-2.9,2.1l-0.3,0.2l-0.4,0.4c-0.9,0.7-1.7,1.4-2.6,2.2l-0.3,0.2c-0.1,0.1-0.2,0.2-0.3,0.2
		l-0.2,0.2c-0.5,0.4-0.9,0.9-1.4,1.3c-0.2,0.3-0.5,0.5-0.8,0.8c-0.5,0.5-1,1.1-1.5,1.6c-0.2,0.2-0.4,0.4-0.6,0.6V92.6v-0.2
		c0-1.8,0.2-3.6,0.6-5.3c0.4-1.6,0.9-3.2,1.6-4.7c3-6.6,8.8-12.8,17.2-18c13.2-8.2,31-13,50.2-13.6c1.3,0,2.6,0,3.9,0
		c1.3,0,2.6,0,3.9,0.1c19.2,0.6,37,5.4,50.2,13.6c8.4,5.2,14.2,11.4,17.2,18c0.7,1.6,1.2,3.1,1.6,4.7c0.4,1.8,0.6,3.5,0.6,5.3v3.6
		v10.9L215,114.8z M230,154.3c2.7,3.9,4.9,7.6,6.6,11.3c4.7,9.8,6.4,19.8,5.4,31.4c-1,12.3-8.5,25.6-20.6,36.4c-2.2,2-4.5,3.9-7,5.7
		c-17.3,12.6-57.7,32.7-72.9,32.7c-15.2,0-55.7-20.1-72.9-32.7c-1.7-1.3-3.4-2.6-5.1-4c-13.2-11.2-21.4-25.1-22.5-38.1
		c-1-11.6,0.7-21.5,5.4-31.4c1.8-3.7,4-7.4,6.7-11.4c0.8,0.8,1.7,1.5,2.5,2.2c-0.7,1.5-1.2,3.3-1.2,5.1v0.1
		c0,19,18.1,34.7,41.2,36.3c1.3,0.1,2.6,0.1,3.9,0.1c2.6,0,5.2-0.2,7.7-0.5c2.3-0.3,4.6-0.8,6.8-1.4l0,0c0.2,0.3,0.4,0.6,0.7,0.9
		c1.4,1.9,3.2,3.6,5.4,5.1c2.8,2,6.1,3.6,9.7,4.7c0.5,0.1,0.9,0.3,1.4,0.4c0,0,0,0,0,0c3.3,0.8,6.7,1.3,10.2,1.3
		c3.5,0,6.9-0.4,10.2-1.3c0,0,0,0,0,0c0.5-0.1,0.9-0.3,1.4-0.4c3.6-1.1,6.9-2.7,9.7-4.7c2.1-1.5,3.9-3.2,5.4-5.1
		c0.2-0.3,0.5-0.6,0.7-0.9c0,0,0,0,0,0c2.3,0.6,4.8,1.1,7.2,1.4c2.4,0.3,4.8,0.5,7.2,0.5c1.4,0,2.9-0.1,4.3-0.2
		c22.8-1.7,40.8-17.3,40.8-36.2v-0.1c0-1.8-0.4-3.4-1.1-4.9c0.8-0.6,1.7-1.3,2.4-2.1C229.9,154.4,230,154.4,230,154.3z M77.8,161.7
		c0.7,0.4,1.3,0.8,2.1,1.2c8.2,3.9,16.8,5.8,24.9,5.8c5.2,0,10.1-0.8,14.6-2.3c0.4-0.1,0.8-0.2,1.2-0.3c0.6,5,3.9,9.3,8.7,12.1
		c0.5,0.3,1,0.6,1.6,0.8c0.1,0.1,0.2,0.1,0.3,0.2c-2.6,2.9-5.9,5.3-9.6,7.3c-2.3,1.3-4.9,2.3-7.6,3.1c-4.4,1.4-9.3,2.1-14.3,2.1
		c-4.3,0-8.4-0.6-12.3-1.6c-6.9-1.8-13-5.1-17.5-9.3c-5.6-5.2-8.9-11.9-8.9-19.2v-0.1c0-0.7,0.1-1.4,0.4-2c0.7-1.9,2.3-3.2,4.2-3.5
		c0.4-0.1,0.7-0.1,1.1-0.1c1.2,0,2.4,0.4,3.4,1.1c0.8,0.6,1.6,1.2,2.5,1.7c0.7,0.4,1.4,0.8,2.1,1.2
		C75.6,160.5,76.7,161.1,77.8,161.7z M152,179.1c0.7-0.3,1.4-0.6,2-1c4.7-2.8,8-7.1,8.6-12l0,0c4.8,1.8,10.2,2.7,15.8,2.7
		c8,0,16.6-1.9,24.9-5.8c2.7-1.3,5.3-2.8,7.7-4.4c0.7-0.5,1.5-1,2.2-1.5c1.1-0.8,2.3-1.1,3.4-1.1c0.4,0,0.9,0,1.3,0.2
		c1.8,0.4,3.4,1.7,4.1,3.6c0.2,0.6,0.3,1.2,0.3,1.9v0.1c0,6.9-3,13.4-8.1,18.4c0,0,0,0,0,0c-4.5,4.5-10.7,8-17.8,9.9
		c-4,1.1-8.3,1.7-12.8,1.7c-4.7,0-9.2-0.6-13.3-1.8c0,0,0,0,0,0c-3.4-1-6.5-2.3-9.3-3.9c-2.8-1.6-5.3-3.5-7.5-5.7
		C152.9,179.9,152.4,179.5,152,179.1z M162.7,193.9c-1,1.1-2.1,2.1-3.4,3.1c-2.3,1.6-4.9,2.9-7.9,3.7c-6.2,1.9-13.5,1.9-19.7,0
		c-3-0.9-5.6-2.1-7.9-3.7c-1.1-0.8-2.1-1.7-3-2.6c-0.2-0.2-0.3-0.3-0.5-0.5c2-0.8,3.9-1.8,5.7-2.9c4.2-2.5,8.5-4.9,13-6.8l2.5-1.1
		l1.8,0.7c4.6,1.9,9,4.4,13.3,7c1.4,0.9,3,1.6,4.6,2.3C161.9,193.4,162.3,193.7,162.7,193.9z M140.5,158.4c0,1.3-0.8,2.5-2,3.2
		c0,0,0,0-0.1,0c-0.7,0.4-1.5,0.6-2.3,0.6c-2,0-3.8-1.2-4.3-2.8c-0.1-0.3-0.2-0.6-0.2-1c0-1.7,1.2-3.1,3-3.6c0,0,0,0,0,0
		c0.4-0.1,0.9-0.2,1.4-0.2c1.6,0,3.1,0.8,3.8,1.9c0.3,0.4,0.5,1,0.6,1.5c0,0,0,0,0,0c0,0,0,0,0,0
		C140.5,158.1,140.5,158.2,140.5,158.4z M216.7,136.3l2.5-4l2.3-3.7l0.7,0l0.4,0c2.3,0.9,4.1,2.5,5,4.7c0,0.1,0.1,0.1,0.1,0.2
		c0.9,2.1,0.9,4.6,0,7.4c-0.5,1.4-1.3,3-2.4,4.5c-0.3,0.4-0.6,0.8-1,1.2c0,0,0,0,0,0c-1.2,1.5-2.7,2.6-4.3,3.4
		c-1.1-0.3-2.3-0.5-3.5-0.5c-2.6,0-5.1,0.8-7.2,2.4c-2.7,2-5.7,3.8-8.8,5.3c-7.1,3.4-14.8,5.2-22.1,5.2c-6.3,0-12-1.3-16.9-3.7
		c-1.5-3.4-4.3-6.3-7.9-8.3c-3.4-1.9-7.6-3-12.1-3c-4.5,0-8.7,1.1-12.1,3c-3.6,2-6.4,4.9-7.9,8.3c-4.8,2.4-10.6,3.7-16.9,3.7
		c-7.4,0-15-1.8-22.1-5.2c-3.1-1.5-6.1-3.3-8.8-5.3c-2.1-1.6-4.6-2.4-7.2-2.4c-1.1,0-2.3,0.2-3.3,0.5c-1.5-0.8-3-1.9-4.2-3.3
		c0,0-0.1-0.1-0.1-0.1c-0.4-0.4-0.7-0.8-1-1.3c-1.1-1.6-1.9-3.1-2.4-4.6c-1-3-0.8-5.7,0.3-7.8c0,0,0-0.1,0.1-0.1
		c1-1.9,2.7-3.4,4.8-4.2l0.1,0l1.4,0.1l2.1,3.4l2.5,4l2.6,4.2l2.2,3.6v-0.1l0.1,0.1v-9.3v-8.7c0.1-0.3,0.3-0.5,0.5-0.8
		c0.7-1.2,1.5-2.3,2.4-3.4c0.8-0.9,1.5-1.8,2.2-2.5c0.6-0.6,1.2-1.2,1.7-1.7c0.2-0.1,0.3-0.3,0.5-0.5l0.1-0.1c0.7-0.6,1.3-1.2,2-1.8
		l0.3-0.1l0.3-0.3c0.8-0.6,1.7-1.3,2.6-1.9c0.1-0.1,0.3-0.2,0.5-0.3c0.8-0.6,1.6-1.1,2.5-1.6c0.2-0.1,0.4-0.3,0.6-0.3
		c2.1-1.3,4.4-2.5,6.9-3.7c0.1-0.1,0.3-0.1,0.3-0.1c1.1-0.5,2.3-1,3.4-1.5l0.2-0.1c2.6-1.1,5.3-2,8.1-2.9l0.4-0.1
		c4.4-1.3,8.9-2.4,13.6-3.2l0.3,0c3.2-0.5,6.4-0.9,9.7-1.2l0.2,0c1.6-0.1,3.3-0.3,4.9-0.3l0.3,0c1.6-0.1,3.3-0.1,5.2-0.1
		c1.9,0,3.6,0,5.2,0.1l0.3,0c1.7,0.1,3.3,0.2,4.9,0.3l0.2,0c3.2,0.3,6.5,0.7,9.7,1.2l0.2,0c4.6,0.8,9.2,1.9,13.7,3.2l0.2,0.1
		c2.8,0.9,5.5,1.8,8.2,2.9l0.2,0.1c1.2,0.5,2.3,1,3.4,1.5c0.1,0.1,0.3,0.1,0.4,0.2l0.1,0.1c1,0.5,2,1,3,1.5c0.3,0.2,0.6,0.3,0.9,0.5
		c0.9,0.5,1.9,1,2.8,1.6c0.2,0.1,0.4,0.3,0.6,0.4c0.8,0.5,1.7,1.1,2.6,1.7c0.1,0.1,0.3,0.2,0.4,0.3c0.9,0.6,1.7,1.2,2.6,1.9l0.4,0.4
		l0.2,0.1c0.7,0.6,1.4,1.2,2,1.7l0.2,0.2c0.2,0.2,0.3,0.3,0.5,0.5c0.6,0.6,1.2,1.2,1.7,1.7c0.8,0.8,1.5,1.6,2.2,2.5
		c0.9,1.1,1.7,2.3,2.5,3.4c0.3,0.5,0.6,0.9,0.8,1.4l0.3,0.5v9.1l-0.1,7.7l0.1-0.1v0.2L216.7,136.3z M257.1,78
		c-6,0-10.8-4.9-10.8-10.8c0-6,4.8-10.8,10.8-10.8c6,0,10.8,4.8,10.8,10.8C267.9,73.2,263.1,78,257.1,78z"/>
</g>
</svg>
