<svg version="1.1"  xmlns="http://www.w3.org/2000/svg" xmlns:xlink="http://www.w3.org/1999/xlink" x="0px" y="0px"
	 viewBox="0 0 291.2 294.7" style="enable-background:new 0 0 291.2 294.7;" xml:space="preserve">
<g id="Vector_Smart_Object_00000020382792723312181910000004774649688464213397_">
	<g>
		<defs>
			<rect id="SVGID_1_" x="2.3" y="4.5" width="286.6" height="286.6"/>
		</defs>
		<clipPath id="SVGID_00000139978293232219802580000017875277988239671945_">
			<use xlink:href="#SVGID_1_"  style="overflow:visible;"/>
		</clipPath>
		<g style="clip-path:url(#SVGID_00000139978293232219802580000017875277988239671945_);">
			<defs>
				<rect id="SVGID_00000111873579034047500190000000682792844792556978_" x="2.3" y="4.5" width="286.6" height="286.6"/>
			</defs>
			<clipPath id="SVGID_00000169550959465454853190000006506692069241083061_">
				<use xlink:href="#SVGID_00000111873579034047500190000000682792844792556978_"  style="overflow:visible;"/>
			</clipPath>
			<path style="clip-path:url(#SVGID_00000169550959465454853190000006506692069241083061_);fill:#D47C3A;" d="M273.4,132.3
				c-6.9,0-12.8,4.6-14.8,10.8h-12.9l17.7-17.7c1.8-1.8,1.8-4.7,0-6.5c-1.8-1.8-4.7-1.8-6.5,0l-24.2,24.2h-4.9
				c-2.1-8.4-9.7-14.6-18.7-14.6c-9,0-16.6,6.2-18.7,14.6h-33.7l22.5-22.5h34.2c2.5,0,4.6-2.1,4.6-4.6c0-2.5-2.1-4.6-4.6-4.6h-25
				l6.5-6.5c2.5,1.4,5.2,2.1,8,2.1c4.2,0,8.5-1.6,11.7-4.8c3.1-3.1,4.9-7.3,4.9-11.7c0-2.8-0.7-5.6-2.1-8l2.7-2.7h20
				c2.5,0,4.6-2.1,4.6-4.6c0-2.5-2.1-4.6-4.6-4.6h-10.8l7.5-7.5c1.8-1.8,1.8-4.7,0-6.5c-1.8-1.8-4.7-1.8-6.5,0l-7.5,7.5V53.2
				c0-2.5-2.1-4.6-4.6-4.6c-2.5,0-4.6,2.1-4.6,4.6v20l-2.7,2.7c-2.4-1.3-5.2-2.1-8-2.1c-4.4,0-8.6,1.7-11.7,4.9
				c-5.3,5.3-6.3,13.4-2.8,19.7l-6.5,6.5v-25c0-2.5-2.1-4.6-4.6-4.6c-2.5,0-4.6,2.1-4.6,4.6v34.2l-22.5,22.5v-33.7
				c8.4-2.1,14.6-9.7,14.6-18.7s-6.2-16.6-14.6-18.7v-4.9l24.2-24.2c1.8-1.8,1.8-4.7,0-6.5c-1.8-1.8-4.7-1.8-6.5,0l-17.7,17.7V34.7
				c6.3-2,10.8-7.8,10.8-14.8c0-8.5-6.9-15.5-15.5-15.5c-8.5,0-15.5,6.9-15.5,15.5c0,6.9,4.6,12.8,10.8,14.8v12.9l-17.7-17.7
				c-1.8-1.8-4.7-1.8-6.5,0c-1.8,1.8-1.8,4.7,0,6.5L141,60.6v4.9c-8.4,2.1-14.6,9.7-14.6,18.7s6.2,16.6,14.6,18.7v33.7l-22.5-22.5
				V79.9c0-2.5-2.1-4.6-4.6-4.6c-2.5,0-4.6,2.1-4.6,4.6v25l-6.5-6.5c3.5-6.3,2.5-14.4-2.8-19.7c-3.1-3.1-7.3-4.9-11.7-4.9
				c-2.8,0-5.6,0.7-8,2.1l-2.7-2.7v-20c0-2.5-2.1-4.6-4.6-4.6c-2.5,0-4.6,2.1-4.6,4.6V64l-7.5-7.5c-1.8-1.8-4.7-1.8-6.5,0
				c-1.8,1.8-1.8,4.7,0,6.5l7.5,7.5H51c-2.5,0-4.6,2.1-4.6,4.6c0,2.5,2.1,4.6,4.6,4.6h20l2.7,2.7c-1.3,2.4-2.1,5.2-2.1,8
				c0,4.4,1.7,8.6,4.9,11.7c3.2,3.2,7.5,4.8,11.7,4.8c2.8,0,5.5-0.7,8-2.1l6.5,6.5h-25c-2.5,0-4.6,2.1-4.6,4.6
				c0,2.5,2.1,4.6,4.6,4.6H112l22.5,22.5h-33.7c-2.1-8.4-9.7-14.6-18.7-14.6c-9,0-16.6,6.2-18.7,14.6h-4.9L34.2,119
				c-1.8-1.8-4.7-1.8-6.5,0c-1.8,1.8-1.8,4.7,0,6.5l17.7,17.7H32.5c-2-6.3-7.8-10.8-14.8-10.8c-8.5,0-15.5,6.9-15.5,15.5
				c0,8.5,6.9,15.5,15.5,15.5c6.9,0,12.8-4.6,14.8-10.8h12.9l-17.7,17.7c-1.8,1.8-1.8,4.7,0,6.5c0.9,0.9,2.1,1.4,3.3,1.4
				s2.4-0.4,3.3-1.4l24.2-24.2h4.9c2.1,8.4,9.7,14.6,18.7,14.6c9,0,16.6-6.2,18.7-14.6h33.7L112,174.9H77.7c-2.5,0-4.6,2.1-4.6,4.6
				c0,2.5,2.1,4.6,4.6,4.6h25l-6.5,6.5c-6.3-3.5-14.4-2.5-19.7,2.8c-3.1,3.1-4.9,7.3-4.9,11.7c0,2.8,0.7,5.6,2.1,8l-2.7,2.7H51
				c-2.5,0-4.6,2.1-4.6,4.6c0,2.5,2.1,4.6,4.6,4.6h10.8l-7.5,7.5c-1.8,1.8-1.8,4.7,0,6.5c0.9,0.9,2.1,1.3,3.3,1.3
				c1.2,0,2.4-0.4,3.3-1.3l7.5-7.5v10.8c0,2.5,2.1,4.6,4.6,4.6c2.5,0,4.6-2.1,4.6-4.6v-20l2.7-2.7c2.5,1.4,5.2,2.1,8,2.1
				c4.2,0,8.5-1.6,11.7-4.8c5.3-5.3,6.3-13.4,2.8-19.7l6.5-6.5v25c0,2.5,2.1,4.6,4.6,4.6c2.5,0,4.6-2.1,4.6-4.6v-34.2l22.5-22.5
				v33.7c-8.4,2.1-14.6,9.7-14.6,18.7c0,9,6.2,16.6,14.6,18.7v4.9l-24.2,24.2c-1.8,1.8-1.8,4.7,0,6.5c1.8,1.8,4.7,1.8,6.5,0L141,248
				v12.9c-6.3,2-10.8,7.8-10.8,14.8c0,8.5,6.9,15.5,15.5,15.5c8.5,0,15.5-6.9,15.5-15.5c0-6.9-4.6-12.8-10.8-14.8V248l17.7,17.7
				c0.9,0.9,2.1,1.3,3.3,1.3c1.2,0,2.4-0.5,3.3-1.3c1.8-1.8,1.8-4.7,0-6.5l-24.2-24.2V230c8.4-2.1,14.6-9.7,14.6-18.7
				c0-9-6.2-16.6-14.6-18.7v-33.7l22.5,22.5v34.2c0,2.5,2.1,4.6,4.6,4.6c2.5,0,4.6-2.1,4.6-4.6v-25l6.5,6.5
				c-3.5,6.3-2.5,14.4,2.8,19.7c3.2,3.2,7.5,4.8,11.7,4.8c2.8,0,5.5-0.7,8-2.1l2.7,2.7v20c0,2.5,2.1,4.6,4.6,4.6
				c2.5,0,4.6-2.1,4.6-4.6v-10.8l7.5,7.5c0.9,0.9,2.1,1.3,3.3,1.3c1.2,0,2.4-0.4,3.3-1.3c1.8-1.8,1.8-4.7,0-6.5l-7.5-7.5h10.8
				c2.5,0,4.6-2.1,4.6-4.6c0-2.5-2.1-4.6-4.6-4.6h-20l-2.7-2.7c1.3-2.4,2.1-5.2,2.1-8c0-4.4-1.7-8.6-4.9-11.7
				c-5.3-5.3-13.4-6.3-19.7-2.8l-6.5-6.5h25c2.5,0,4.6-2.1,4.6-4.6c0-2.5-2.1-4.6-4.6-4.6h-34.2l-22.5-22.5h33.7
				c2.1,8.4,9.7,14.6,18.7,14.6c9,0,16.6-6.2,18.7-14.6h4.9l24.2,24.2c0.9,0.9,2.1,1.4,3.3,1.4c1.2,0,2.4-0.4,3.3-1.4
				c1.8-1.8,1.8-4.7,0-6.5l-17.7-17.7h12.9c2,6.3,7.8,10.8,14.8,10.8c8.5,0,15.5-6.9,15.5-15.5C288.9,139.3,282,132.3,273.4,132.3
				 M197.7,85.3c1.4-1.4,3.2-2.2,5.2-2.2c2,0,3.8,0.8,5.2,2.2c1.4,1.4,2.2,3.2,2.2,5.2c0,2-0.8,3.8-2.2,5.2c-2.9,2.9-7.5,2.9-10.4,0
				C194.8,92.8,194.8,88.1,197.7,85.3 M93.5,95.7c-2.9,2.9-7.5,2.9-10.4,0c-1.4-1.4-2.2-3.2-2.2-5.2c0-2,0.8-3.8,2.2-5.2
				c1.4-1.4,3.2-2.2,5.2-2.2c2,0,3.8,0.8,5.2,2.2C96.4,88.1,96.4,92.8,93.5,95.7 M17.8,154c-3.4,0-6.2-2.8-6.2-6.2
				c0-3.4,2.8-6.2,6.2-6.2s6.2,2.8,6.2,6.2C24,151.2,21.2,154,17.8,154 M82.1,157.8c-5.5,0-10-4.5-10-10c0-5.5,4.5-10,10-10
				c5.5,0,10,4.5,10,10C92.1,153.3,87.6,157.8,82.1,157.8 M93.5,210.3c-2.9,2.9-7.5,2.9-10.4,0c-1.4-1.4-2.2-3.2-2.2-5.2
				c0-2,0.8-3.8,2.2-5.2c2.9-2.9,7.5-2.9,10.4,0C96.4,202.8,96.4,207.4,93.5,210.3 M139.4,19.9c0-3.4,2.8-6.2,6.2-6.2
				c3.4,0,6.2,2.8,6.2,6.2c0,3.4-2.8,6.2-6.2,6.2C142.1,26.2,139.4,23.4,139.4,19.9 M151.8,275.6c0,3.4-2.8,6.2-6.2,6.2
				c-3.4,0-6.2-2.8-6.2-6.2c0-3.4,2.8-6.2,6.2-6.2C149,269.4,151.8,272.2,151.8,275.6 M155.6,211.3c0,5.5-4.5,10-10,10
				c-5.5,0-10-4.5-10-10c0-5.5,4.5-10,10-10C151.1,201.3,155.6,205.8,155.6,211.3 M145.6,94.3c-5.5,0-10-4.5-10-10
				c0-5.5,4.5-10,10-10c5.5,0,10,4.5,10,10C155.6,89.8,151.1,94.3,145.6,94.3 M197.7,199.9c2.9-2.9,7.5-2.9,10.4,0
				c1.4,1.4,2.2,3.2,2.2,5.2c0,2-0.8,3.8-2.2,5.2c-2.9,2.9-7.5,2.9-10.4,0C194.8,207.4,194.8,202.8,197.7,199.9 M209.1,157.8
				c-5.5,0-10-4.5-10-10c0-5.5,4.5-10,10-10c5.5,0,10,4.5,10,10C219.1,153.3,214.6,157.8,209.1,157.8 M273.4,154
				c-3.4,0-6.2-2.8-6.2-6.2c0-3.4,2.8-6.2,6.2-6.2c3.4,0,6.2,2.8,6.2,6.2C279.7,151.2,276.9,154,273.4,154"/>
		</g>
	</g>
</g>
</svg>
