<svg version="1.1"  xmlns="http://www.w3.org/2000/svg" xmlns:xlink="http://www.w3.org/1999/xlink" x="0px" y="0px"
	 viewBox="0 0 291.2 294.7" style="enable-background:new 0 0 291.2 294.7;" xml:space="preserve">
<g id="Vector_Smart_Object_00000052798629683231786990000007723174076163934597_">
	<g>
		<defs>
			<rect id="SVGID_00000078745256844854960000000009744908028797129883_" x="2.4" y="4.1" width="286.5" height="286.5"/>
		</defs>
		<clipPath id="SVGID_00000092454597661835927870000007861613204310123931_">
			<use xlink:href="#SVGID_00000078745256844854960000000009744908028797129883_"  style="overflow:visible;"/>
		</clipPath>
		<g style="clip-path:url(#SVGID_00000092454597661835927870000007861613204310123931_);">
			<defs>
				<rect id="SVGID_00000000919371947718080190000011674801510771149457_" x="2.4" y="4.1" width="286.5" height="286.5"/>
			</defs>
			<clipPath id="SVGID_00000098901393092256694190000010794914598300211877_">
				<use xlink:href="#SVGID_00000000919371947718080190000011674801510771149457_"  style="overflow:visible;"/>
			</clipPath>
			<path style="clip-path:url(#SVGID_00000098901393092256694190000010794914598300211877_);fill:#56994B;" d="M284.1,142.6h-8.6
				l4.9-4.9c1.9-1.9,1.9-4.9,0-6.7c-1.9-1.9-4.9-1.9-6.7,0l-11.7,11.7h-27.5l5.9-5.9c1.9-1.9,1.9-4.9,0-6.7c-1.9-1.9-4.9-1.9-6.7,0
				l-12.7,12.7h-21.9l27.2-27.2c1.9-1.9,1.9-4.9,0-6.7c-1.9-1.9-4.9-1.9-6.7,0l-33.9,33.9h-7.3l-7.8-13.6l31.7-31.7h17.9
				c2.6,0,4.8-2.1,4.8-4.8c0-2.6-2.1-4.8-4.8-4.8h-8.4l19.4-19.4h16.5c2.6,0,4.8-2.1,4.8-4.8c0-2.6-2.1-4.8-4.8-4.8h-7l6.1-6.1
				c1.9-1.9,1.9-4.9,0-6.7c-1.9-1.9-4.9-1.9-6.7,0l-6.1,6.1v-7c0-2.6-2.1-4.8-4.8-4.8c-2.6,0-4.8,2.1-4.8,4.8v16.5L205.2,81v-8.4
				c0-2.6-2.1-4.8-4.8-4.8c-2.6,0-4.8,2.1-4.8,4.8v17.9l-29.9,29.9l-2.3-4h-13.1v-9.4l33.9-33.9c1.9-1.9,1.9-4.9,0-6.7
				c-1.9-1.9-4.9-1.9-6.7,0l-27.2,27.2V71.8L163,59.1c1.9-1.9,1.9-4.9,0-6.7c-1.9-1.9-4.9-1.9-6.7,0l-5.9,5.9V30.9L162,19.2
				c1.9-1.9,1.9-4.9,0-6.7c-1.9-1.9-4.9-1.9-6.7,0l-4.9,4.9V8.8c0-2.6-2.1-4.8-4.8-4.8c-2.6,0-4.8,2.1-4.8,4.8v8.6l-4.9-4.9
				c-1.9-1.9-4.9-1.9-6.7,0c-1.9,1.9-1.9,4.9,0,6.7l11.7,11.7v27.5l-5.9-5.9c-1.9-1.9-4.9-1.9-6.7,0c-1.9,1.9-1.9,4.9,0,6.7
				l12.7,12.7v21.9l-27.2-27.2c-1.9-1.9-4.9-1.9-6.7,0c-1.9,1.9-1.9,4.9,0,6.7l33.9,33.9v9.4h-13.1l-2.3,4L95.5,90.5V72.6
				c0-2.6-2.1-4.8-4.8-4.8S86,70,86,72.6V81L66.6,61.6V45.1c0-2.6-2.1-4.8-4.8-4.8c-2.6,0-4.8,2.1-4.8,4.8v7L51,46
				c-1.9-1.9-4.9-1.9-6.7,0c-1.9,1.9-1.9,4.9,0,6.7l6.1,6.1h-7c-2.6,0-4.8,2.1-4.8,4.8c0,2.6,2.1,4.8,4.8,4.8h16.5l19.4,19.4h-8.4
				c-2.6,0-4.8,2.1-4.8,4.8c0,2.6,2.1,4.8,4.8,4.8h17.9l31.7,31.7l-7.8,13.6h-7.3l-33.9-33.9c-1.9-1.9-4.9-1.9-6.7,0
				c-1.9,1.9-1.9,4.9,0,6.7l27.2,27.2H70l-12.7-12.7c-1.9-1.9-4.9-1.9-6.7,0c-1.9,1.9-1.9,4.9,0,6.7l5.9,5.9H29.1l-11.7-11.7
				c-1.9-1.9-4.9-1.9-6.7,0c-1.9,1.9-1.9,4.9,0,6.7l4.9,4.9H7.1c-2.6,0-4.8,2.1-4.8,4.8c0,2.6,2.1,4.8,4.8,4.8h8.6l-4.9,4.9
				c-1.9,1.9-1.9,4.9,0,6.7c0.9,0.9,2.1,1.4,3.4,1.4s2.4-0.5,3.4-1.4l11.7-11.7h27.5l-5.9,5.9c-1.9,1.9-1.9,4.9,0,6.7
				c0.9,0.9,2.1,1.4,3.4,1.4c1.2,0,2.4-0.5,3.4-1.4L70,152.1h21.9l-27.2,27.2c-1.9,1.9-1.9,4.9,0,6.7c0.9,0.9,2.1,1.4,3.4,1.4
				c1.2,0,2.4-0.5,3.4-1.4l33.9-33.9h7.3l7.8,13.6l-31.7,31.7H70.9c-2.6,0-4.8,2.1-4.8,4.8c0,2.6,2.1,4.8,4.8,4.8h8.4l-19.4,19.4
				H43.4c-2.6,0-4.8,2.1-4.8,4.8c0,2.6,2.1,4.8,4.8,4.8h7l-6.1,6.1c-1.9,1.9-1.9,4.9,0,6.7c0.9,0.9,2.1,1.4,3.4,1.4
				c1.2,0,2.4-0.5,3.4-1.4l6.1-6.1v7c0,2.6,2.1,4.8,4.8,4.8c2.6,0,4.8-2.1,4.8-4.8V233L86,213.6v8.4c0,2.6,2.1,4.8,4.8,4.8
				s4.8-2.1,4.8-4.8v-17.9l29.9-29.9l2.3,4h13.1v9.4l-33.9,33.9c-1.9,1.9-1.9,4.9,0,6.7c1.9,1.9,4.9,1.9,6.7,0l27.2-27.2v21.9
				l-12.7,12.7c-1.9,1.9-1.9,4.9,0,6.7c1.9,1.9,4.9,1.9,6.7,0l5.9-5.9v27.5l-11.7,11.7c-1.9,1.9-1.9,4.9,0,6.7
				c1.9,1.9,4.9,1.9,6.7,0l4.9-4.9v8.6c0,2.6,2.1,4.8,4.8,4.8c2.6,0,4.8-2.1,4.8-4.8v-8.6l4.9,4.9c0.9,0.9,2.1,1.4,3.4,1.4
				c1.2,0,2.4-0.5,3.4-1.4c1.9-1.9,1.9-4.9,0-6.7l-11.7-11.7v-27.5l5.9,5.9c0.9,0.9,2.1,1.4,3.4,1.4c1.2,0,2.4-0.5,3.4-1.4
				c1.9-1.9,1.9-4.9,0-6.7l-12.7-12.7V201l27.2,27.2c0.9,0.9,2.1,1.4,3.4,1.4c1.2,0,2.4-0.5,3.4-1.4c1.9-1.9,1.9-4.9,0-6.7
				l-33.9-33.9v-9.4h13.1l2.3-4l29.9,29.9V222c0,2.6,2.1,4.8,4.8,4.8c2.6,0,4.8-2.1,4.8-4.8v-8.4l19.4,19.4v16.5
				c0,2.6,2.1,4.8,4.8,4.8c2.6,0,4.8-2.1,4.8-4.8v-7l6.1,6.1c0.9,0.9,2.1,1.4,3.4,1.4c1.2,0,2.4-0.5,3.4-1.4c1.9-1.9,1.9-4.9,0-6.7
				l-6.1-6.1h7c2.6,0,4.8-2.1,4.8-4.8c0-2.6-2.1-4.8-4.8-4.8h-16.5l-19.4-19.4h8.4c2.6,0,4.8-2.1,4.8-4.8c0-2.6-2.1-4.8-4.8-4.8
				h-17.9l-31.7-31.7l7.8-13.6h7.3l33.9,33.9c0.9,0.9,2.1,1.4,3.4,1.4s2.4-0.5,3.4-1.4c1.9-1.9,1.9-4.9,0-6.7l-27.2-27.2h21.9
				l12.7,12.7c0.9,0.9,2.1,1.4,3.4,1.4c1.2,0,2.4-0.5,3.4-1.4c1.9-1.9,1.9-4.9,0-6.7l-5.9-5.9h27.5l11.7,11.7
				c0.9,0.9,2.1,1.4,3.4,1.4c1.2,0,2.4-0.5,3.4-1.4c1.9-1.9,1.9-4.9,0-6.7l-4.9-4.9h8.6c2.6,0,4.8-2.1,4.8-4.8
				C288.8,144.7,286.7,142.6,284.1,142.6 M157.9,168.7h-24.7l-12.3-21.4l12.3-21.4h24.7l12.3,21.4L157.9,168.7z"/>
		</g>
	</g>
</g>
</svg>
