<svg version="1.1" xmlns="http://www.w3.org/2000/svg" xmlns:xlink="http://www.w3.org/1999/xlink" x="0px" y="0px"
	 viewBox="0 0 291.2 294.7" style="enable-background:new 0 0 291.2 294.7;" xml:space="preserve">
<path style="display:none;fill:#97BB3A;" d="M284.1,142.8h-4.6l2.8-2.8c1.9-1.9,1.9-4.9,0-6.7c-1.9-1.9-4.9-1.9-6.7,0l-9.5,9.5H260
	l10.2-10.2c1.9-1.9,1.9-4.9,0-6.7c-1.9-1.9-4.9-1.9-6.7,0l-16.9,16.9h-6.4l-16.9-16.9c-1.9-1.9-4.9-1.9-6.7,0
	c-1.9,1.9-1.9,4.9,0,6.7l10.2,10.2h-11.6l-17-17v-24l8.2-8.2V108c0,2.6,2.1,4.8,4.8,4.8c2.6,0,4.8-2.1,4.8-4.8V84.1l4.5-4.5h23.9
	c2.6,0,4.8-2.1,4.8-4.8s-2.1-4.8-4.8-4.8h-14.4l4.3-4.3h13.4c2.6,0,4.8-2.1,4.8-4.8c0-2.6-2.1-4.8-4.8-4.8h-3.9l3.2-3.2
	c1.9-1.9,1.9-4.9,0-6.7c-1.9-1.9-4.9-1.9-6.7,0l-3.2,3.2v-3.9c0-2.6-2.1-4.8-4.8-4.8c-2.6,0-4.8,2.1-4.8,4.8V59l-4.3,4.3V48.9
	c0-2.6-2.1-4.8-4.8-4.8c-2.6,0-4.8,2.1-4.8,4.8v23.9l-4.5,4.5h-23.9c-2.6,0-4.8,2.1-4.8,4.8c0,2.6,2.1,4.8,4.8,4.8h14.4l-8.2,8.2
	h-24l-17-17V66.5l10.2,10.2c0.9,0.9,2.1,1.4,3.4,1.4c1.2,0,2.4-0.5,3.4-1.4c1.9-1.9,1.9-4.9,0-6.7L150.4,53v-6.4l16.9-16.9
	c1.9-1.9,1.9-4.9,0-6.7c-1.9-1.9-4.9-1.9-6.7,0l-10.2,10.2V27l9.5-9.5c1.9-1.9,1.9-4.9,0-6.7c-1.9-1.9-4.9-1.9-6.7,0l-2.8,2.8V9
	c0-2.6-2.1-4.8-4.8-4.8s-4.8,2.1-4.8,4.8v4.6l-2.8-2.8c-1.9-1.9-4.9-1.9-6.7,0c-1.9,1.9-1.9,4.9,0,6.7l9.5,9.5v6.1L130.7,23
	c-1.9-1.9-4.9-1.9-6.7,0c-1.9,1.9-1.9,4.9,0,6.7l16.9,16.9V53L124,69.9c-1.9,1.9-1.9,4.9,0,6.7c1.9,1.9,4.9,1.9,6.7,0l10.2-10.2V78
	l-17,17h-24l-8.2-8.2h14.4c2.6,0,4.8-2.1,4.8-4.8c0-2.6-2.1-4.8-4.8-4.8H82.2l-4.5-4.5V48.9c0-2.6-2.1-4.8-4.8-4.8
	c-2.6,0-4.8,2.1-4.8,4.8v14.4L63.8,59V45.6c0-2.6-2.1-4.8-4.8-4.8c-2.6,0-4.8,2.1-4.8,4.8v3.9l-3.2-3.2c-1.9-1.9-4.9-1.9-6.7,0
	c-1.9,1.9-1.9,4.9,0,6.7l3.2,3.2h-3.9c-2.6,0-4.8,2.1-4.8,4.8c0,2.6,2.1,4.8,4.8,4.8h13.4l4.3,4.3H47c-2.6,0-4.8,2.1-4.8,4.8
	s2.1,4.8,4.8,4.8h23.9l4.5,4.5V108c0,2.6,2.1,4.8,4.8,4.8c2.6,0,4.8-2.1,4.8-4.8V93.6l8.2,8.2v24l-17,17H64.6l10.2-10.2
	c1.9-1.9,1.9-4.9,0-6.7c-1.9-1.9-4.9-1.9-6.7,0l-16.9,16.9h-6.4l-16.9-16.9c-1.9-1.9-4.9-1.9-6.7,0c-1.9,1.9-1.9,4.9,0,6.7
	l10.2,10.2h-6.1l-9.5-9.5c-1.9-1.9-4.9-1.9-6.7,0c-1.9,1.9-1.9,4.9,0,6.7l2.8,2.8H7.2c-2.6,0-4.8,2.1-4.8,4.8c0,2.6,2.1,4.8,4.8,4.8
	h4.6L9,155c-1.9,1.9-1.9,4.9,0,6.7c0.9,0.9,2.1,1.4,3.4,1.4c1.2,0,2.4-0.5,3.4-1.4l9.5-9.5h6.1l-10.2,10.2c-1.9,1.9-1.9,4.9,0,6.7
	c0.9,0.9,2.1,1.4,3.4,1.4s2.4-0.5,3.4-1.4l16.9-16.9h6.4l16.9,16.9c0.9,0.9,2.1,1.4,3.4,1.4c1.2,0,2.4-0.5,3.4-1.4
	c1.9-1.9,1.9-4.9,0-6.7l-10.2-10.2h11.6l17,17v24l-8.2,8.2v-14.4c0-2.6-2.1-4.8-4.8-4.8c-2.6,0-4.8,2.1-4.8,4.8V211l-4.5,4.5H47
	c-2.6,0-4.8,2.1-4.8,4.8c0,2.6,2.1,4.8,4.8,4.8h14.4l-4.3,4.3H43.7c-2.6,0-4.8,2.1-4.8,4.8c0,2.6,2.1,4.8,4.8,4.8h3.9l-3.2,3.2
	c-1.9,1.9-1.9,4.9,0,6.7c0.9,0.9,2.1,1.4,3.4,1.4s2.4-0.5,3.4-1.4l3.2-3.2v3.9c0,2.6,2.1,4.8,4.8,4.8c2.6,0,4.8-2.1,4.8-4.8v-13.4
	l4.3-4.3v14.4c0,2.6,2.1,4.8,4.8,4.8c2.6,0,4.8-2.1,4.8-4.8v-23.9l4.5-4.5h23.9c2.6,0,4.8-2.1,4.8-4.8c0-2.6-2.1-4.8-4.8-4.8H91.7
	l8.2-8.2h24l17,17v11.6l-10.2-10.2c-1.9-1.9-4.9-1.9-6.7,0c-1.9,1.9-1.9,4.9,0,6.7l16.9,16.9v6.4L124,265.4c-1.9,1.9-1.9,4.9,0,6.7
	c1.9,1.9,4.9,1.9,6.7,0l10.2-10.2v6.1l-9.5,9.5c-1.9,1.9-1.9,4.9,0,6.7c1.9,1.9,4.9,1.9,6.7,0l2.8-2.8v4.6c0,2.6,2.1,4.8,4.8,4.8
	s4.8-2.1,4.8-4.8v-4.6l2.8,2.8c0.9,0.9,2.1,1.4,3.4,1.4c1.2,0,2.4-0.5,3.4-1.4c1.9-1.9,1.9-4.9,0-6.7l-9.5-9.5v-6.1l10.2,10.2
	c0.9,0.9,2.1,1.4,3.4,1.4c1.2,0,2.4-0.5,3.4-1.4c1.9-1.9,1.9-4.9,0-6.7l-16.9-16.9v-6.4l16.9-16.9c1.9-1.9,1.9-4.9,0-6.7
	c-1.9-1.9-4.9-1.9-6.7,0l-10.2,10.2V217l17-17h24l8.2,8.2h-14.4c-2.6,0-4.8,2.1-4.8,4.8c0,2.6,2.1,4.8,4.8,4.8h23.9l4.5,4.5v23.9
	c0,2.6,2.1,4.8,4.8,4.8c2.6,0,4.8-2.1,4.8-4.8v-14.4l4.3,4.3v13.4c0,2.6,2.1,4.8,4.8,4.8c2.6,0,4.8-2.1,4.8-4.8v-3.9l3.2,3.2
	c0.9,0.9,2.1,1.4,3.4,1.4c1.2,0,2.4-0.5,3.4-1.4c1.9-1.9,1.9-4.9,0-6.7l-3.2-3.2h3.9c2.6,0,4.8-2.1,4.8-4.8c0-2.6-2.1-4.8-4.8-4.8
	h-13.4l-4.3-4.3h14.4c2.6,0,4.8-2.1,4.8-4.8c0-2.6-2.1-4.8-4.8-4.8h-23.9l-4.5-4.5v-23.9c0-2.6-2.1-4.8-4.8-4.8
	c-2.6,0-4.8,2.1-4.8,4.8v14.4l-8.2-8.2v-24l17-17h11.6l-10.2,10.2c-1.9,1.9-1.9,4.9,0,6.7c0.9,0.9,2.1,1.4,3.4,1.4s2.4-0.5,3.4-1.4
	l16.9-16.9h6.4l16.9,16.9c0.9,0.9,2.1,1.4,3.4,1.4s2.4-0.5,3.4-1.4c1.9-1.9,1.9-4.9,0-6.7L260,152.3h6.1l9.5,9.5
	c0.9,0.9,2.1,1.4,3.4,1.4s2.4-0.5,3.4-1.4c1.9-1.9,1.9-4.9,0-6.7l-2.8-2.8h4.6c2.6,0,4.8-2.1,4.8-4.8
	C288.9,144.9,286.8,142.8,284.1,142.8z M150.4,91.5l10,10c0.5,1.4,1.7,2.4,3.1,2.8c0.7,0.4,1.5,0.6,2.3,0.6c0.7,0,1.3-0.1,1.9-0.4
	h14.2l-11,11h-12l-8.5-8.5V91.5z M123.6,104.5c1.3,0.6,2.9,0.5,4.2-0.2c1.4-0.4,2.6-1.5,3.1-2.8l10-10V107l-8.5,8.5h-12l-11-11
	H123.6z M99.6,132.7c1.4-0.5,2.4-1.7,2.8-3.1c0.7-1.3,0.8-2.9,0.2-4.2v-14.2l11,11v12l-8.5,8.5H89.6L99.6,132.7z M102.5,165.4
	c-0.4-1.4-1.5-2.6-2.8-3.1l-10-10h15.6l8.5,8.5v12l-11,11v-14.2C103.2,168.3,103.2,166.7,102.5,165.4z M140.9,203.6l-10-10
	c-0.5-1.4-1.7-2.4-3.1-2.8c-1.3-0.7-2.9-0.8-4.2-0.2h-14.2l11-11h12l8.5,8.5V203.6z M145.6,179.3l-9.3-9.3h-13.2v-13.2l-9.3-9.3
	l9.3-9.3V125h13.2l9.3-9.3l9.3,9.3h13.2v13.2l9.3,9.3l-9.3,9.3V170H155L145.6,179.3z M167.7,190.5c-1.3-0.6-2.9-0.5-4.2,0.2
	c-1.4,0.4-2.6,1.5-3.1,2.8l-10,10V188l8.5-8.5h12l11,11H167.7z M191.7,162.3c-1.4,0.5-2.4,1.7-2.8,3.1c-0.7,1.3-0.8,2.9-0.2,4.2
	v14.2l-11-11v-12l8.5-8.5h15.6L191.7,162.3z M186.1,142.8l-8.5-8.5v-12l11-11v14.2c-0.6,1.3-0.5,2.9,0.2,4.2
	c0.4,1.4,1.5,2.6,2.8,3.1l10,10H186.1z"/>
<path style="fill:#009A43;" d="M60.7,104.5l15.8,2.8L72.1,132l-15.8-2.8L60.7,104.5z M41.4,101.1L37,125.8l15.8,2.8l4.4-24.7
	L41.4,101.1z M61.2,102.8l17.6,3.1l1.3-7.2l-17.6-3.1L61.2,102.8z M40.9,91.8L39.7,99l17.6,3.1l1.3-7.2L40.9,91.8z M60.2,91.5
	L60.2,91.5c0.1-0.9-0.1-1.8-0.3-2.6c-0.2-0.9-0.5-1.7-0.8-2.5c-0.7-1.6-1.6-3.1-2.8-4.5c-0.6-0.7-1.3-1.3-2.1-1.8
	c-0.8-0.5-1.7-1-2.8-1.2c-1-0.2-2.2-0.1-3.2,0.2c-0.5,0.2-1,0.4-1.4,0.7c-0.5,0.3-0.9,0.6-1.3,1c-0.4,0.4-0.8,0.9-1,1.6
	c-0.3,0.6-0.4,1.4-0.3,2c0.1,0.7,0.3,1.2,0.6,1.7c0.3,0.5,0.6,0.9,0.9,1.3c0.7,0.7,1.4,1.3,2.2,1.8c0.8,0.5,1.5,0.9,2.3,1.3
	c1.6,0.7,3.2,1.2,4.8,1.7c0.8,0.2,1.6,0.4,2.5,0.5l0.6,0.1l0.3,0l0.2,0l0.1,0c0.1,0,0.1,0,0.2,0c0.4,0,0.7-0.1,1-0.4
	C60,92.3,60.2,91.9,60.2,91.5z M59,91.5C59,91.6,59,91.6,59,91.5c-0.1,0.1-0.1,0.1-0.2,0.1l-0.5-0.1l-0.6-0.2
	c-0.8-0.2-1.5-0.5-2.2-0.8c-1.5-0.6-2.9-1.4-4.2-2.2c-1.3-0.9-2.5-1.8-3.2-2.9c-0.4-0.5-0.6-1-0.6-1.3c0-0.2,0-0.3,0.1-0.4
	c0.1-0.1,0.2-0.3,0.3-0.4c0.2-0.2,0.4-0.3,0.6-0.5c0.3-0.2,0.5-0.3,0.8-0.4c0.5-0.2,1-0.3,1.6-0.2c1.1,0.1,2.4,0.8,3.5,1.7
	c1.1,0.9,2.2,2.1,3,3.4C58.3,88.6,58.9,90,59,91.5L59,91.5z M61.3,92.8c0.2,0.3,0.4,0.6,0.8,0.7c0.1,0,0.1,0,0.2,0l0.1,0l0.2,0
	l0.3,0.1l0.6,0.1c0.8,0.1,1.7,0.3,2.5,0.3c1.7,0.2,3.4,0.2,5.1,0.1c0.9-0.1,1.7-0.2,2.6-0.4c0.9-0.2,1.8-0.5,2.6-1
	c0.4-0.2,0.9-0.5,1.3-0.9c0.4-0.4,0.8-0.8,1.1-1.4c0.3-0.6,0.5-1.3,0.4-2c0-0.7-0.2-1.3-0.5-1.8c-0.2-0.5-0.5-1-0.9-1.4
	c-0.3-0.4-0.7-0.8-1.1-1.1c-0.9-0.7-1.9-1.2-3-1.3c-1.1-0.2-2.1-0.1-3,0.1c-0.9,0.2-1.8,0.6-2.6,1c-1.6,0.9-3,2-4.1,3.3
	c-0.6,0.6-1.1,1.3-1.6,2.1c-0.5,0.7-0.9,1.5-1.1,2.4l0,0C61.1,92.1,61.2,92.5,61.3,92.8z M62.4,92.1c0.6-1.4,1.7-2.5,2.9-3.5
	c1.2-0.9,2.6-1.7,3.9-2.2c1.4-0.5,2.8-0.7,3.9-0.4c0.6,0.1,1,0.4,1.4,0.7c0.2,0.2,0.4,0.4,0.6,0.6c0.2,0.2,0.3,0.5,0.4,0.7
	c0.1,0.2,0.2,0.4,0.2,0.5c0,0.1,0,0.2,0,0.4c-0.1,0.3-0.5,0.7-1,1.1c-1.1,0.7-2.5,1.2-4,1.6c-1.5,0.4-3.1,0.6-4.7,0.6
	c-0.8,0-1.6,0-2.4,0l-0.6,0l-0.5,0C62.5,92.3,62.4,92.3,62.4,92.1C62.4,92.2,62.4,92.2,62.4,92.1L62.4,92.1z"/>
<path style="fill:#009A43;" d="M222,118.6l12.5,3.3l-6.7,25.1l-12.5-3.3L222,118.6z M219,117.8l-4.6-1.2l-6.7,25.1l4.6,1.2
	L219,117.8z M199,112.5l-6.7,25.1l12.5,3.3l6.7-25.1L199,112.5z M221.2,109.5l-4.6-1.2l-1.8,6.9l4.6,1.2L221.2,109.5z M198.6,103.5
	l-1.8,6.9l15.2,4l1.8-6.9L198.6,103.5z M222.3,117.2l15.5,4.1l1.8-6.9l-15.5-4.1L222.3,117.2z M225.7,101.2c1.1-1.1,2.3-2.1,3.9-2.8
	c0.4-0.2,0.8-0.3,1.3-0.4c0.5-0.1,1-0.1,1.6,0.1c0.6,0.1,1.1,0.4,1.6,0.8c0.4,0.4,0.7,0.8,1,1.3l0,0.1l0,0.1l0.1,0.2
	c0.1,0.1,0.1,0.2,0.1,0.3c0.1,0.2,0.2,0.5,0.2,0.7c0.1,0.5,0.2,1,0.1,1.6c-0.1,0.5-0.3,1.1-0.5,1.5c-0.2,0.5-0.6,0.8-0.9,1.2
	c-0.7,0.6-1.4,1.1-2.1,1.4c-0.7,0.3-1.5,0.6-2.2,0.8c-1.5,0.4-3,0.6-4.5,0.7c-0.7,0.1-1.5,0.1-2.2,0.1c-0.7,0-1.5,0-2.2-0.1l0,0l0,0
	c0,0-0.1,0-0.1,0c-0.1,0-0.1-0.1-0.1-0.1c0-0.1,0-0.2,0-0.2c0-0.1,0-0.2,0.1-0.3c0.1-0.2,0.1-0.4,0.2-0.5c0.2-0.3,0.4-0.7,0.6-1
	c0.4-0.6,0.8-1.3,1.2-1.9C223.7,103.5,224.6,102.3,225.7,101.2z M221,108.4C221,108.4,221,108.4,221,108.4
	C221,108.4,221,108.4,221,108.4C221,108.4,221,108.4,221,108.4z M227,102.8c-1.2,0.8-2.3,1.7-3.4,2.6c-0.5,0.5-1,1-1.5,1.5
	c-0.2,0.3-0.5,0.5-0.7,0.8c-0.1,0.1-0.2,0.3-0.3,0.4c0,0.1-0.1,0.1-0.1,0.2c0,0,0,0,0,0c1.4-0.1,2.8-0.4,4.2-0.8
	c1.4-0.4,2.7-0.9,4-1.5c0.6-0.3,1.2-0.6,1.8-1c0.5-0.4,1-0.8,1.4-1.2c0.3-0.4,0.5-0.8,0.5-1.2c0-0.4-0.1-0.8-0.3-1.3
	c-0.1-0.2-0.2-0.4-0.3-0.5c-0.1-0.1-0.2-0.2-0.4-0.2c-0.3-0.1-0.8-0.1-1.3,0.1c-0.6,0.2-1.2,0.4-1.8,0.7
	C228.1,102,227.5,102.4,227,102.8z M218.1,97c0-1.5,0.1-3.1,0.8-4.7c0.2-0.4,0.4-0.8,0.7-1.2c0.3-0.4,0.7-0.8,1.2-1.1
	c0.5-0.3,1.1-0.5,1.7-0.5c0.6,0,1.1,0.1,1.6,0.2l0.1,0l0.1,0l0.2,0.1c0.1,0,0.2,0.1,0.3,0.1c0.2,0.1,0.4,0.2,0.7,0.3
	c0.4,0.3,0.8,0.6,1.2,1.1c0.3,0.4,0.6,0.9,0.7,1.4c0.1,0.5,0.2,1,0.2,1.5c0,0.9-0.2,1.8-0.5,2.5c-0.3,0.8-0.6,1.5-1,2.1
	c-0.8,1.3-1.7,2.5-2.7,3.6c-0.5,0.6-1,1.1-1.5,1.6c-0.5,0.5-1,1-1.6,1.5l0,0l0,0c0,0-0.1,0-0.1,0c-0.1,0-0.1,0-0.2,0
	c-0.1,0-0.1-0.1-0.2-0.1c-0.1-0.1-0.1-0.2-0.2-0.3c-0.1-0.2-0.2-0.4-0.2-0.5c-0.1-0.4-0.2-0.7-0.3-1.1c-0.2-0.7-0.3-1.5-0.4-2.2
	C218.3,100,218.1,98.5,218.1,97z M219.8,105.4C219.8,105.4,219.8,105.4,219.8,105.4L219.8,105.4
	C219.9,105.4,219.8,105.4,219.8,105.4z M220.1,97.2c-0.3,1.4-0.5,2.8-0.5,4.2c0,0.7,0,1.4,0,2.2c0,0.4,0.1,0.7,0.1,1.1
	c0,0.2,0.1,0.3,0.1,0.5c0,0.1,0.1,0.2,0.1,0.2c0,0,0,0,0,0c0.9-1.1,1.7-2.3,2.4-3.5c0.7-1.3,1.3-2.6,1.8-3.9
	c0.2-0.7,0.4-1.3,0.5-1.9c0.1-0.6,0.2-1.3,0.1-1.8c-0.1-0.5-0.2-0.9-0.5-1.2c-0.2-0.3-0.6-0.5-1.1-0.7c-0.2-0.1-0.4-0.1-0.6-0.1
	c-0.1,0-0.3,0-0.4,0.1c-0.3,0.1-0.6,0.5-0.9,1c-0.3,0.5-0.5,1.1-0.7,1.8C220.4,95.8,220.2,96.5,220.1,97.2z M210.2,102.5
	c-1.1-1.1-2.1-2.3-2.8-3.9c-0.2-0.4-0.3-0.8-0.4-1.3c-0.1-0.5-0.1-1,0.1-1.6c0.1-0.6,0.4-1.1,0.8-1.6c0.4-0.4,0.8-0.7,1.3-1l0.1,0
	l0.1,0l0.2-0.1c0.1-0.1,0.2-0.1,0.3-0.1c0.2-0.1,0.5-0.2,0.7-0.2c0.5-0.1,1-0.2,1.6-0.1c0.5,0.1,1.1,0.3,1.5,0.5
	c0.5,0.2,0.8,0.6,1.2,0.9c0.6,0.7,1.1,1.4,1.4,2.1c0.3,0.7,0.6,1.5,0.8,2.2c0.4,1.5,0.6,3,0.7,4.5c0.1,0.7,0.1,1.5,0.1,2.2
	c0,0.7,0,1.5-0.1,2.2l0,0l0,0c0,0,0,0.1,0,0.1c0,0.1-0.1,0.1-0.1,0.1c-0.1,0-0.2,0-0.2,0c-0.1,0-0.2,0-0.3-0.1
	c-0.2-0.1-0.4-0.1-0.5-0.2c-0.3-0.2-0.7-0.4-1-0.6c-0.6-0.4-1.3-0.8-1.9-1.2C212.4,104.5,211.2,103.6,210.2,102.5z M217.3,107.2
	C217.3,107.2,217.3,107.2,217.3,107.2C217.3,107.2,217.3,107.2,217.3,107.2C217.3,107.2,217.3,107.2,217.3,107.2z M211.7,101.2
	c0.8,1.2,1.7,2.3,2.6,3.4c0.5,0.5,1,1,1.5,1.5c0.3,0.2,0.5,0.5,0.8,0.7c0.1,0.1,0.3,0.2,0.4,0.3c0.1,0,0.1,0.1,0.2,0.1c0,0,0,0,0,0
	c-0.1-1.4-0.4-2.8-0.8-4.2c-0.4-1.4-0.9-2.7-1.5-4c-0.3-0.6-0.6-1.2-1-1.8c-0.4-0.5-0.8-1-1.2-1.4c-0.4-0.3-0.8-0.5-1.2-0.5
	c-0.4,0-0.8,0.1-1.3,0.3c-0.2,0.1-0.4,0.2-0.5,0.3c-0.1,0.1-0.2,0.2-0.2,0.4c-0.1,0.3-0.1,0.8,0.1,1.3c0.2,0.6,0.4,1.2,0.7,1.8
	C210.9,100.1,211.3,100.7,211.7,101.2z"/>
<path style="fill:#009A43;" d="M63.3,36.8L62,32.5l5.4-4.9l8.9,1.6l0.8,2.9l-6.9,5.4L63.3,36.8z M66.7,25l1.1-1l-1.4-0.2l-1.1,1
	L66.7,25z M87,51.5l-6.1-21.1l-1.3,1l6.1,21.1L87,51.5z M78.2,26.9l1,3.5l1.3-1l-1-3.3l-8.9-1.6l-1,0.9L78.2,26.9z M63.1,26.7
	l-5.4,4.9l1.4,4.7l1.7,0.2l-1.4-4.9l5.1-4.6L63.1,26.7z M67.2,58.6l-6.1-21.1l-1.7-0.2l6.1,21.1L67.2,58.6z M68.5,21.8L70,22
	l6.1-5.5l-1.7-0.1L68.5,21.8z M54.2,22.9l8.1,1.4l1.1-1l-7.9-1.4L54.2,22.9z M56.9,37.1l-7.7-0.7l6.1,21.1l7.7,0.7L56.9,37.1z
	 M44.4,30.1l1.4,5l10.7,1L55,30.8l5.1-4.6l-8.4-1.5L44.4,30.1z M69.7,58.8l7,0.6l7-5.4L77.5,33l-7,5.4l-7-0.6L69.7,58.8z M71.3,16.2
	L64,15.6L58.1,20l7.5,1.3L71.3,16.2z M89,50l4.7-3.6l-6.1-21.1l-4.7,3.6L89,50z M82.6,27.9l7.1-5.5l-1.4-5l-9-0.6l-6.3,5.8l8.5,1.4
	L82.6,27.9z"/>
<path style="fill:#009A43;" d="M251.8,182.2l-1.3,4.2l-11.2,1l-8.4-6.7l1.3-4.4l11.3-1.9L251.8,182.2z M239,188.3l-8.5-6.6
	l-6.4,21.4l8.5,6.6l11.2-0.9l6.4-21.4L239,188.3z M247.2,173c-0.2,0.1-0.4,0.3-0.5,0.4c0.8,0.1,1.7,0.2,2.7,0.1
	c1.2,0,2.4-0.1,3.4-0.3c0.6-0.1,1.1-0.2,1.6-0.4c0.5-0.2,0.9-0.4,1.2-0.6c0.3-0.2,0.4-0.4,0.5-0.6c0.1-0.2,0.1-0.5,0-0.9
	c0-0.2-0.1-0.3-0.1-0.3c0-0.1-0.1-0.1-0.1-0.1c0,0-0.1,0-0.2-0.1c-0.2-0.1-0.4-0.1-0.7-0.1c-0.4,0-0.9,0.1-1.5,0.2
	c-0.5,0.1-1,0.3-1.6,0.5c-1.1,0.4-2.1,0.8-3.2,1.4C248.3,172.3,247.7,172.6,247.2,173z M244.9,164.4c-0.2,0.5-0.3,1-0.5,1.6
	c-0.3,1.1-0.4,2.2-0.5,3.4c0,0.5-0.1,1.1-0.1,1.7c0,0.2,0,0.5,0,0.6c0.5-0.6,1-1.3,1.5-2.2c0.6-1.1,1.1-2.1,1.5-3.1
	c0.2-0.5,0.4-1,0.5-1.5c0.1-0.5,0.2-1,0.1-1.4c0-0.3-0.1-0.6-0.3-0.8c-0.1-0.2-0.4-0.3-0.7-0.5c0,0-0.1,0-0.1,0c-0.1,0-0.2,0-0.2,0
	c-0.1,0-0.1,0-0.2,0c-0.1,0-0.3,0.3-0.6,0.7C245.3,163.4,245.1,163.9,244.9,164.4z M234.5,164.2c-0.3,0.2-0.4,0.5-0.5,0.7
	c-0.1,0.2,0,0.5,0.1,0.8c0.1,0.3,0.4,0.7,0.7,1.2c0.3,0.4,0.7,0.8,1.1,1.2c0.7,0.7,1.6,1.5,2.7,2.2c0.8,0.6,1.6,1,2.3,1.3
	c-0.1-0.2-0.1-0.4-0.2-0.6c-0.2-0.6-0.5-1.1-0.8-1.6c-0.6-1-1.2-2-1.9-2.9c-0.4-0.5-0.7-0.9-1.1-1.3c-0.4-0.4-0.8-0.7-1.1-1
	c-0.2-0.1-0.4-0.3-0.6-0.3c-0.1,0-0.2,0-0.2,0c0,0-0.1,0-0.2,0C234.7,164,234.6,164.1,234.5,164.2z M228.5,180.1l-6.7-5.2l-6.4,21.4
	l6.7,5.2L228.5,180.1z M260.7,186.5l-8,0.7l-6.4,21.4l8-0.7L260.7,186.5z M230.2,166.3c0-0.2-0.1-0.3-0.1-0.5
	c-0.1-0.6-0.1-1.2,0-1.8c0.1-0.6,0.3-1.1,0.6-1.6c0.1-0.2,0.3-0.4,0.5-0.6c0.1-0.1,0.2-0.2,0.3-0.3l0.1-0.1l0.1-0.1
	c0.4-0.4,0.9-0.8,1.5-1c0.6-0.3,1.3-0.4,2-0.3c0.3,0,0.6,0.1,0.9,0.2c0.3,0.1,0.6,0.2,0.8,0.3c0.5,0.3,0.9,0.6,1.2,0.8
	c1.3,1.1,2,2.4,2.6,3.5c0.1,0.2,0.2,0.5,0.4,0.7l0.2,0c0.1-1.3,0.2-2.7,0.9-4.3c0.1-0.3,0.4-0.8,0.7-1.2c0.4-0.5,0.8-0.9,1.3-1.2
	c0.6-0.3,1.3-0.5,2-0.6c0.5,0,1,0.1,1.5,0.2c0.1,0,0.1,0,0.2,0.1l0.1,0l0.2,0.1c0.1,0.1,0.2,0.1,0.4,0.2c0.2,0.1,0.5,0.2,0.7,0.4
	c0.5,0.3,0.9,0.7,1.2,1.2c0.3,0.5,0.6,1,0.8,1.6c0.1,0.5,0.2,1,0.2,1.6c0,0.8-0.2,1.6-0.6,2.5c-0.2,0.6-0.6,1.2-1,1.9
	c0,0.1-0.1,0.1-0.1,0.2l0.1,0.1c0.2-0.2,0.5-0.3,0.7-0.4c1.1-0.6,2.4-1.3,4.1-1.5c0.3,0,0.8-0.1,1.4,0c0.3,0,0.6,0.1,0.9,0.2
	c0.3,0.1,0.6,0.2,0.8,0.3c0.6,0.3,1.1,0.8,1.5,1.4c0.3,0.5,0.5,1,0.7,1.6l0,0.1l0,0.2c0,0.1,0,0.3,0.1,0.4c0,0.3,0,0.5,0,0.8
	c0,0.6-0.1,1.2-0.3,1.7c-0.2,0.5-0.5,1.1-1,1.5c-0.1,0.1-0.2,0.2-0.4,0.3l7.2,5.4l-1.5,5l-11,1l1.4-4.8l-6-5.5
	c-0.4-0.1-0.8-0.2-1.3-0.3c-0.3-0.1-0.6-0.2-1-0.3c-0.3-0.1-0.7-0.2-1-0.3l-0.1-0.1c-0.1,0-0.2-0.1-0.3-0.2
	c-0.2-0.2-0.4-0.4-0.4-0.7c-0.1,0-0.2,0.1-0.3,0.1c-0.3,0.1-0.5,0.1-0.8,0l-0.1,0c-0.3-0.1-0.5-0.4-0.6-0.5
	c-0.1-0.1-0.1-0.1-0.1-0.2c-0.2,0.2-0.5,0.3-0.7,0.3c-0.2,0-0.3,0-0.4,0l0,0l-0.1,0c-0.3-0.1-0.6-0.1-1-0.2
	c-0.3-0.1-0.6-0.2-0.9-0.3c-0.3-0.1-0.6-0.2-0.9-0.3l-8,1.3l-1.5,5l-9-7.2l1.5-5L230.2,166.3z M245.2,173.7c0,0.2,0.1,0.3,0.2,0.3
	c0.1,0.1,0.1,0.1,0.1,0.1l0.1,0c0.3,0.1,0.6,0.2,0.9,0.3c0.3,0.1,0.6,0.2,0.9,0.3c0.7,0.2,1.3,0.3,1.8,0.4c1.4,0.3,2.6,0.4,3.8,0.4
	c0.8,0,1.4,0,2-0.1c0.8-0.1,1.5-0.4,2.1-0.7c0.4-0.2,0.8-0.5,1.1-0.8c0.4-0.4,0.6-0.8,0.8-1.2c0.2-0.4,0.3-0.9,0.3-1.4
	c0-0.2,0-0.4,0-0.7c0-0.1,0-0.2,0-0.3l0-0.2l0-0.1c-0.1-0.5-0.3-1-0.6-1.4c-0.3-0.5-0.7-0.8-1.2-1.1c-0.2-0.1-0.4-0.2-0.7-0.3
	c-0.2-0.1-0.5-0.1-0.7-0.1c-0.5-0.1-0.9,0-1.2,0c-1.5,0.2-2.8,0.8-3.8,1.4c-1,0.6-2.1,1.3-3.1,2.2c-0.5,0.4-0.9,0.8-1.4,1.2
	c-0.2,0.2-0.4,0.4-0.7,0.7c-0.1,0.1-0.2,0.3-0.3,0.4c-0.1,0.1-0.1,0.2-0.2,0.3C245.2,173.4,245.1,173.6,245.2,173.7z M242.6,171.3
	c0.1,0.4,0.1,0.7,0.2,0.9c0,0.2,0.1,0.3,0.2,0.5c0,0.1,0.1,0.2,0.2,0.3c0.1,0.1,0.1,0.2,0.3,0.2l0,0c0.1,0,0.2,0,0.4,0
	c0.1,0,0.1-0.1,0.2-0.1l0.1,0c0.5-0.4,1-0.9,1.4-1.3c0.5-0.5,0.9-0.9,1.3-1.3c1-1.1,1.7-2,2.3-3c0.4-0.7,0.7-1.2,0.9-1.8
	c0.3-0.8,0.5-1.5,0.5-2.2c0-0.5,0-0.9-0.1-1.3c-0.1-0.5-0.3-1-0.6-1.3c-0.3-0.4-0.6-0.7-1-1c-0.2-0.1-0.4-0.2-0.6-0.3
	c-0.1-0.1-0.2-0.1-0.3-0.1l-0.2-0.1l-0.1,0c-0.1,0-0.1,0-0.2-0.1c-0.4-0.1-0.9-0.2-1.3-0.2c-0.5,0-1.1,0.2-1.6,0.5
	c-0.4,0.2-0.8,0.5-1.1,1c-0.3,0.4-0.5,0.8-0.6,1.1c-0.6,1.4-0.7,2.8-0.8,4c0,1.2,0,2.4,0.2,3.8C242.3,170.1,242.4,170.7,242.6,171.3
	z M230.9,164.3c-0.1,0.5-0.1,1,0,1.5c0.1,0.4,0.2,0.8,0.4,1.3c0.3,0.6,0.8,1.2,1.4,1.8c0.4,0.4,1,0.8,1.6,1.2c1,0.6,2.1,1.2,3.4,1.7
	c0.5,0.2,1.1,0.4,1.7,0.7c0.3,0.1,0.6,0.2,0.9,0.3c0.3,0.1,0.6,0.2,0.9,0.2l0.1,0c0,0,0.1,0,0.2,0c0.1,0,0.2-0.1,0.3-0.2
	c0.1-0.2,0.2-0.3,0.2-0.3c0-0.2,0-0.3,0-0.4c0-0.2,0-0.4,0-0.5c0-0.4-0.1-0.7-0.2-0.9c-0.2-0.6-0.3-1.2-0.5-1.8
	c-0.4-1.3-0.9-2.4-1.4-3.5c-0.6-1.1-1.2-2.3-2.4-3.3c-0.2-0.2-0.6-0.5-1-0.7c-0.2-0.1-0.5-0.2-0.7-0.3c-0.2-0.1-0.5-0.1-0.7-0.1
	c-0.5-0.1-1.1,0-1.6,0.3c-0.4,0.2-0.8,0.5-1.2,0.8l-0.1,0.1l-0.1,0.1c-0.1,0.1-0.1,0.2-0.2,0.2c-0.1,0.2-0.3,0.4-0.4,0.5
	C231.2,163.3,231,163.8,230.9,164.3z"/>
<path style="fill:#009A43;" d="M65.5,247.5l-1.3,4.2l-11.2,1l-8.4-6.7l1.3-4.4l11.3-1.9L65.5,247.5z M52.7,253.7l-8.5-6.6l-6.4,21.4
	l8.5,6.6l11.2-0.9l6.4-21.4L52.7,253.7z M60.9,238.3c-0.2,0.1-0.4,0.3-0.5,0.4c0.8,0.1,1.7,0.2,2.7,0.1c1.2,0,2.4-0.1,3.4-0.3
	c0.6-0.1,1.1-0.2,1.6-0.4c0.5-0.2,0.9-0.4,1.2-0.6c0.3-0.2,0.4-0.4,0.5-0.6c0.1-0.2,0.1-0.5,0-0.9c0-0.2-0.1-0.3-0.1-0.3
	c0-0.1-0.1-0.1-0.1-0.1c0,0-0.1,0-0.2-0.1c-0.2-0.1-0.4-0.1-0.7-0.1c-0.4,0-0.9,0.1-1.5,0.2c-0.5,0.1-1,0.3-1.6,0.5
	c-1.1,0.4-2.1,0.8-3.2,1.4C62,237.7,61.4,238,60.9,238.3z M58.6,229.8c-0.2,0.5-0.3,1-0.5,1.6c-0.3,1.1-0.4,2.2-0.5,3.4
	c0,0.5-0.1,1.1-0.1,1.7c0,0.2,0,0.5,0,0.6c0.5-0.6,1-1.3,1.5-2.2c0.6-1.1,1.1-2.1,1.5-3.1c0.2-0.5,0.4-1,0.5-1.5
	c0.1-0.5,0.2-1,0.1-1.4c0-0.3-0.1-0.6-0.3-0.8c-0.1-0.2-0.4-0.3-0.7-0.5c0,0-0.1,0-0.1,0c-0.1,0-0.2,0-0.2,0c-0.1,0-0.1,0-0.2,0
	c-0.1,0-0.3,0.3-0.6,0.7C59,228.8,58.8,229.2,58.6,229.8z M48.2,229.5c-0.3,0.2-0.4,0.5-0.5,0.7c-0.1,0.2,0,0.5,0.1,0.8
	c0.1,0.3,0.4,0.7,0.7,1.2c0.3,0.4,0.7,0.8,1.1,1.2c0.7,0.7,1.6,1.5,2.7,2.2c0.8,0.6,1.6,1,2.3,1.3c-0.1-0.2-0.1-0.4-0.2-0.6
	c-0.2-0.6-0.5-1.1-0.8-1.6c-0.6-1-1.2-2-1.9-2.9c-0.4-0.5-0.7-0.9-1.1-1.3c-0.4-0.4-0.8-0.7-1.1-1c-0.2-0.1-0.4-0.3-0.6-0.3
	c-0.1,0-0.2,0-0.2,0c0,0-0.1,0-0.2,0C48.4,229.4,48.3,229.4,48.2,229.5z M42.2,245.4l-6.7-5.2l-6.4,21.4l6.7,5.2L42.2,245.4z
	 M74.4,251.9l-8,0.7l-6.4,21.4l8-0.7L74.4,251.9z M43.9,231.7c0-0.2-0.1-0.3-0.1-0.5c-0.1-0.6-0.1-1.2,0-1.8
	c0.1-0.6,0.3-1.1,0.6-1.6c0.1-0.2,0.3-0.4,0.5-0.6c0.1-0.1,0.2-0.2,0.3-0.3l0.1-0.1l0.1-0.1c0.4-0.4,0.9-0.8,1.5-1
	c0.6-0.3,1.3-0.4,2-0.3c0.3,0,0.6,0.1,0.9,0.2c0.3,0.1,0.6,0.2,0.8,0.3c0.5,0.3,0.9,0.6,1.2,0.8c1.3,1.1,2,2.4,2.6,3.5
	c0.1,0.2,0.2,0.5,0.4,0.7l0.2,0c0.1-1.3,0.2-2.7,0.9-4.3c0.1-0.3,0.4-0.8,0.7-1.2c0.4-0.5,0.8-0.9,1.3-1.2c0.6-0.3,1.3-0.5,2-0.6
	c0.5,0,1,0.1,1.5,0.2c0.1,0,0.1,0,0.2,0.1l0.1,0l0.2,0.1c0.1,0.1,0.2,0.1,0.4,0.2c0.2,0.1,0.5,0.2,0.7,0.4c0.5,0.3,0.9,0.7,1.2,1.2
	c0.3,0.5,0.6,1,0.8,1.6c0.1,0.5,0.2,1,0.2,1.6c0,0.8-0.2,1.6-0.6,2.5c-0.2,0.6-0.6,1.2-1,1.9c0,0.1-0.1,0.1-0.1,0.2l0.1,0.1
	c0.2-0.2,0.5-0.3,0.7-0.4c1.1-0.6,2.4-1.3,4.1-1.5c0.3,0,0.8-0.1,1.4,0c0.3,0,0.6,0.1,0.9,0.2c0.3,0.1,0.6,0.2,0.8,0.3
	c0.6,0.3,1.1,0.8,1.5,1.4c0.3,0.5,0.5,1,0.7,1.6l0,0.1l0,0.2c0,0.1,0,0.3,0.1,0.4c0,0.3,0,0.5,0,0.8c0,0.6-0.1,1.2-0.3,1.7
	c-0.2,0.5-0.5,1.1-1,1.5c-0.1,0.1-0.2,0.2-0.4,0.3l7.2,5.4l-1.5,5l-11,1l1.4-4.8l-6-5.5c-0.4-0.1-0.8-0.2-1.3-0.3
	c-0.3-0.1-0.6-0.2-1-0.3c-0.3-0.1-0.7-0.2-1-0.3l-0.1-0.1c-0.1,0-0.2-0.1-0.3-0.2c-0.2-0.2-0.4-0.4-0.4-0.7c-0.1,0-0.2,0.1-0.3,0.1
	c-0.3,0.1-0.5,0.1-0.8,0l-0.1,0c-0.3-0.1-0.5-0.4-0.6-0.5c-0.1-0.1-0.1-0.1-0.1-0.2c-0.2,0.2-0.5,0.3-0.7,0.3c-0.2,0-0.3,0-0.4,0
	l0,0l-0.1,0c-0.3-0.1-0.6-0.1-1-0.2c-0.3-0.1-0.6-0.2-0.9-0.3c-0.3-0.1-0.6-0.2-0.9-0.3l-8,1.3l-1.5,5l-9-7.2l1.5-5L43.9,231.7z
	 M58.9,239.1c0,0.2,0.1,0.3,0.2,0.3c0.1,0.1,0.1,0.1,0.1,0.1l0.1,0c0.3,0.1,0.6,0.2,0.9,0.3c0.3,0.1,0.6,0.2,0.9,0.3
	c0.7,0.2,1.3,0.3,1.8,0.4c1.4,0.3,2.6,0.4,3.8,0.4c0.8,0,1.4,0,2-0.1c0.8-0.1,1.5-0.4,2.1-0.7c0.4-0.2,0.8-0.5,1.1-0.8
	c0.4-0.4,0.6-0.8,0.8-1.2c0.2-0.4,0.3-0.9,0.3-1.4c0-0.2,0-0.4,0-0.7c0-0.1,0-0.2,0-0.3l0-0.2l0-0.1c-0.1-0.5-0.3-1-0.6-1.4
	c-0.3-0.5-0.7-0.8-1.2-1.1c-0.2-0.1-0.4-0.2-0.7-0.3c-0.2-0.1-0.5-0.1-0.7-0.1c-0.5-0.1-0.9,0-1.2,0c-1.5,0.2-2.8,0.8-3.8,1.4
	c-1,0.6-2.1,1.3-3.1,2.2c-0.5,0.4-0.9,0.8-1.4,1.2c-0.2,0.2-0.4,0.4-0.7,0.7c-0.1,0.1-0.2,0.3-0.3,0.4c-0.1,0.1-0.1,0.2-0.2,0.3
	C58.9,238.8,58.8,238.9,58.9,239.1z M56.2,236.7c0.1,0.4,0.1,0.7,0.2,0.9c0,0.2,0.1,0.3,0.2,0.5c0,0.1,0.1,0.2,0.2,0.3
	c0.1,0.1,0.1,0.2,0.3,0.2l0,0c0.1,0,0.2,0,0.4,0c0.1,0,0.1-0.1,0.2-0.1l0.1,0c0.5-0.4,1-0.9,1.4-1.3c0.5-0.5,0.9-0.9,1.3-1.3
	c1-1.1,1.7-2,2.3-3c0.4-0.7,0.7-1.2,0.9-1.8c0.3-0.8,0.5-1.5,0.5-2.2c0-0.5,0-0.9-0.1-1.3c-0.1-0.5-0.3-1-0.6-1.3
	c-0.3-0.4-0.6-0.7-1-1c-0.2-0.1-0.4-0.2-0.6-0.3c-0.1-0.1-0.2-0.1-0.3-0.1l-0.2-0.1l-0.1,0c-0.1,0-0.1,0-0.2-0.1
	c-0.4-0.1-0.9-0.2-1.3-0.2c-0.5,0-1.1,0.2-1.6,0.5c-0.4,0.2-0.8,0.5-1.1,1c-0.3,0.4-0.5,0.8-0.6,1.1c-0.6,1.4-0.7,2.8-0.8,4
	c0,1.2,0,2.4,0.2,3.8C56,235.4,56.1,236,56.2,236.7z M44.6,229.6c-0.1,0.5-0.1,1,0,1.5c0.1,0.4,0.2,0.8,0.4,1.3
	c0.3,0.6,0.8,1.2,1.4,1.8c0.4,0.4,1,0.8,1.6,1.2c1,0.6,2.1,1.2,3.4,1.7c0.5,0.2,1.1,0.4,1.7,0.7c0.3,0.1,0.6,0.2,0.9,0.3
	c0.3,0.1,0.6,0.2,0.9,0.2l0.1,0c0,0,0.1,0,0.2,0c0.1,0,0.2-0.1,0.3-0.2c0.1-0.2,0.2-0.3,0.2-0.3c0-0.2,0-0.3,0-0.4
	c0-0.2,0-0.4,0-0.5c0-0.4-0.1-0.7-0.2-0.9c-0.2-0.6-0.3-1.2-0.5-1.8c-0.4-1.3-0.9-2.4-1.4-3.5c-0.6-1.1-1.2-2.3-2.4-3.3
	c-0.2-0.2-0.6-0.5-1-0.7c-0.2-0.1-0.5-0.2-0.7-0.3c-0.2-0.1-0.5-0.1-0.7-0.1c-0.5-0.1-1.1,0-1.6,0.3c-0.4,0.2-0.8,0.5-1.2,0.8
	l-0.1,0.1l-0.1,0.1c-0.1,0.1-0.1,0.2-0.2,0.2c-0.1,0.2-0.3,0.4-0.4,0.5C44.9,228.7,44.7,229.1,44.6,229.6z"/>
<path style="fill:#009A43;" d="M149.5,54.7c0,0.1,0,0.4,0.2,0.9c0,0,0,0,0,0.1l4.5,0.1c-0.6-0.7-1.3-1.3-2-1.5
	c-0.1,0-0.1-0.1-0.2-0.1c-0.4-0.1-0.8-0.2-1.1-0.1c-0.2,0-0.4,0.1-0.6,0.2c-0.2,0.1-0.4,0.2-0.6,0.3
	C149.6,54.6,149.5,54.7,149.5,54.7l-0.6-0.5c0.1-0.1,0.2-0.2,0.4-0.3c0.2-0.1,0.4-0.2,0.7-0.3c0.3-0.1,0.5-0.2,0.8-0.2
	c0.5-0.1,1,0,1.5,0.1c1,0.3,2.1,1.2,2.9,2.3c0.9,1.1,1.6,2.4,2.1,3.7c0.5,1.4,0.8,2.8,0.6,4.2l0,0c0,0,0,0.1,0,0.1c0,0-0.1,0-0.2,0
	l-0.4-0.2l-0.5-0.3c-0.7-0.4-1.3-0.8-1.9-1.2c-1.2-0.9-2.4-1.8-3.4-2.9c-1-1-1.9-2.2-2.4-3.3c-0.2-0.6-0.3-1.1-0.3-1.4
	c0-0.1,0.1-0.2,0.2-0.3L149.5,54.7z M175.2,78.3L155,78.1l-7.9,19.3l20.2,0.3L175.2,78.3z M153.6,77.5l-14.7-14l-7.9,19.3l14.7,13.9
	L153.6,77.5z M160.9,64.9c0.8-1.1,2.1-2,3.4-2.6c1.3-0.6,2.7-1.1,4.1-1.2c1.4-0.2,2.7-0.1,3.7,0.4c0.5,0.2,0.9,0.6,1.2,1
	c0.2,0.2,0.3,0.4,0.4,0.7c0.1,0.2,0.2,0.5,0.3,0.7c0.1,0.2,0.1,0.4,0,0.5c0,0.1,0,0.2-0.1,0.3c-0.1,0.3-0.6,0.5-1.1,0.8
	c-1.1,0.5-2.6,0.6-4.1,0.7c-1.5,0-3-0.1-4.4-0.3c-0.7-0.1-1.5-0.3-2.2-0.5l-0.5-0.2l-0.4-0.1C161,65.1,160.9,65.1,160.9,64.9
	C160.9,65,160.9,65,160.9,64.9L160.9,64.9z M172.6,64.7c0.3-0.2,0.5-0.3,0.6-0.4l0-0.1c0,0,0-0.1,0-0.3c0-0.1-0.1-0.3-0.2-0.6
	c-0.1-0.3-0.2-0.4-0.3-0.6c-0.2-0.3-0.5-0.6-0.9-0.7c-0.1,0-0.1-0.1-0.2-0.1c-0.6-0.2-1.3-0.3-2.1-0.3L172.6,64.7z M144.9,55.5
	c-0.1-0.5-0.1-0.9-0.1-1.4c0.1-0.8,0.4-1.6,0.8-2.2c0.4-0.6,0.9-1,1.5-1.4c0.5-0.3,1-0.6,1.5-0.8c0.3-0.1,1-0.3,1.6-0.4
	c1.1-0.1,2.3,0,3.3,0.5l0.1,0c0.9,0.4,1.8,1,2.6,1.8c0.6,0.6,1.2,1.4,1.7,2.3c0.4,0.6,0.7,1.3,1,2l4.2,0.1l2.6,2.4
	c0.6-0.3,1.2-0.5,1.8-0.7c1-0.3,1.9-0.4,2.8-0.4c1.1,0,2.2,0.2,3.1,0.5l0.1,0c1,0.4,2,1.1,2.7,2c0.4,0.5,0.8,1.1,0.9,1.4
	c0.3,0.5,0.5,1.1,0.6,1.6c0.2,0.7,0.2,1.4,0.1,2.1c-0.1,0.8-0.5,1.5-1,2.1c-0.2,0.3-0.5,0.5-0.8,0.8l4.5,4.1l-1.9,4.7l-24-0.2
	L137.5,60l1.9-4.7L144.9,55.5z M159.8,65.3c0.1,0.3,0.3,0.6,0.6,0.8c0,0,0.1,0.1,0.1,0.1l0.1,0l0.2,0.1l0.3,0.1l0.5,0.2
	c0.7,0.3,1.5,0.6,2.2,0.8c1.5,0.5,3.1,0.9,4.7,1.1c0.8,0.1,1.6,0.2,2.5,0.2c0.9,0,1.7-0.1,2.6-0.4c0.5-0.1,0.9-0.3,1.4-0.6
	c0.5-0.3,0.9-0.6,1.3-1.1c0.4-0.5,0.7-1.1,0.8-1.8c0.1-0.6,0.1-1.2-0.1-1.8c-0.1-0.5-0.3-1-0.5-1.5c-0.2-0.4-0.5-0.9-0.8-1.3
	c-0.6-0.8-1.5-1.5-2.5-1.8c-0.9-0.4-1.9-0.5-2.8-0.5c-0.9,0-1.8,0.2-2.6,0.4c-1.7,0.5-3.1,1.2-4.5,2.2c-0.7,0.5-1.3,1-1.9,1.6
	c-0.6,0.6-1.1,1.2-1.5,2l0,0C159.7,64.6,159.7,65,159.8,65.3z M145.8,55.9c0.1,0.5,0.4,1,0.6,1.4c0.5,0.8,1,1.5,1.6,2.1
	c0.6,0.6,1.2,1.1,1.9,1.6c1.3,1,2.7,1.8,4.1,2.5c0.7,0.4,1.4,0.7,2.2,1l0.6,0.2l0.3,0.1l0.2,0.1l0.1,0c0,0,0.1,0,0.1,0
	c0.3,0.1,0.7,0,1-0.2c0.3-0.2,0.5-0.5,0.6-0.8l0,0c0.2-0.8,0.3-1.7,0.3-2.5c0-0.8-0.1-1.6-0.2-2.5c-0.3-1.6-0.8-3.2-1.7-4.7
	c-0.4-0.7-0.9-1.5-1.6-2.1c-0.6-0.6-1.4-1.2-2.4-1.6c-0.9-0.4-2-0.6-3-0.4c-0.5,0.1-1,0.2-1.5,0.3c-0.5,0.2-0.9,0.4-1.4,0.7
	c-0.5,0.3-0.9,0.7-1.3,1.2c-0.4,0.5-0.6,1.2-0.7,1.8C145.5,54.8,145.6,55.4,145.8,55.9z"/>
<g>
	<path style="fill:#009A43;" d="M147.1,237.3l-1.6-1l5.7-9.4c0.5,0.3,1.1,0.6,1.6,1L147.1,237.3z"/>
	<path style="fill:#009A43;" d="M154.2,227.2c11.4,6.5,25,7.5,22-1.6c-2.9-8.8-17.8-5.4-22.4-0.1C153.4,226,153.6,226.8,154.2,227.2
		z M165.5,224c1.1-1.8,3.5-2.4,5.3-1.3c1.8,1.1,2.4,3.5,1.3,5.3c-1.1,1.8-3.5,2.4-5.3,1.3C165,228.2,164.4,225.8,165.5,224z
		 M160.5,226.5c0.6-0.9,1.7-1.2,2.6-0.6c0.9,0.6,1.2,1.7,0.6,2.6c-0.6,0.9-1.7,1.2-2.6,0.6C160.2,228.6,160,227.4,160.5,226.5z
		 M157.9,223.6c0.4-0.7,1.3-0.9,1.9-0.5c0.7,0.4,0.9,1.3,0.5,1.9c-0.4,0.7-1.3,0.9-1.9,0.5C157.7,225.1,157.5,224.3,157.9,223.6z"/>
	<path style="fill:#009A43;" d="M167.8,240.2l-3.8,6.2c-0.3,0.5-0.9,0.6-1.4,0.3l-13.8-8.5l5.7-9.4c4.6,3,9,6.2,13.1,9.7
		C168,239,168.1,239.7,167.8,240.2z"/>
	<path style="fill:#009A43;" d="M159.8,247.4l-8.7,14.2c-0.3,0.5-0.9,0.6-1.4,0.3l-11.3-6.9l9.8-16l11.3,6.9
		C160,246.3,160.1,247,159.8,247.4z"/>
	
		<rect x="131.5" y="244.7" transform="matrix(0.5221 -0.8529 0.8529 0.5221 -142.1673 237.5658)" style="fill:#009A43;" width="18.8" height="1.9"/>
	<path style="fill:#009A43;" d="M151.3,225.4c0.6,0.4,1.4,0.2,1.7-0.5c2.6-6.4-1.1-21.3-10.3-19.9
		C133.3,206.5,140.3,218.2,151.3,225.4z M150.2,220.8c0.3-0.5,1-0.7,1.6-0.4c0.5,0.3,0.7,1,0.4,1.6c-0.3,0.5-1,0.7-1.6,0.4
		C150,222,149.9,221.3,150.2,220.8z M147,216.6c0.6-1,1.9-1.3,2.8-0.7c1,0.6,1.3,1.9,0.7,2.8c-0.6,1-1.9,1.3-2.8,0.7
		C146.7,218.9,146.4,217.6,147,216.6z M142,209.6c1.1-1.8,3.5-2.4,5.3-1.3c1.8,1.1,2.4,3.5,1.3,5.3c-1.1,1.8-3.5,2.4-5.3,1.3
		C141.4,213.8,140.8,211.4,142,209.6z"/>
	<path style="fill:#009A43;" d="M132.1,229.3l11.3,6.9l-9.8,16l-11.3-6.9c-0.5-0.3-0.6-0.9-0.3-1.4l8.7-14.2
		C131,229.1,131.6,229,132.1,229.3z"/>
	<path style="fill:#009A43;" d="M135,218.7c5.1,2.2,10,4.6,14.6,7.2l-5.7,9.4l-13.8-8.5c-0.5-0.3-0.6-0.9-0.3-1.4l3.8-6.2
		C133.8,218.7,134.5,218.5,135,218.7z"/>
</g>
<g>
	<g>
		<polygon style="fill:#009A43;" points="93.9,194.2 89.4,198.1 82.1,177.7 86.5,173.8 		"/>
		<path style="fill:#009A43;" d="M57.1,170.4L57.1,170.4C57.1,170.4,57.1,170.4,57.1,170.4L57.1,170.4z"/>
		<polygon style="fill:#009A43;" points="87.5,199.7 86.3,200.8 78.9,180.4 80.2,179.3 		"/>
		<path style="fill:#009A43;" d="M75.9,169c0.4-0.8,0.9-1.6,1.4-2.5c0.1-0.1,0.2-0.3,0.2-0.4l0.2-0.2l8.9,0.1l1.7,4.8l-6.6,5.9
			l-1.4-3.8l-6.5-0.7C74.6,171.3,75.3,170.2,75.9,169z"/>
		<polygon style="fill:#009A43;" points="64.3,207.8 56.7,207.6 49.3,187.2 57,187.4 		"/>
		<path style="fill:#009A43;" d="M51.1,175.5l0.3,0c0.1,0,0.2,0.1,0.3,0.1c1,0.3,1.9,0.7,2.8,1.1c1.3,0.5,2.5,0.9,3.6,1.2l-3.4,3.4
			l1.8,5.1L46,186.1l-1.7-4.8L51.1,175.5z"/>
		<path style="fill:#009A43;" d="M62.7,178.1l-3.6,3.7l1.7,4.7l-1.7-0.1l-1.6-4.5l3.6-3.7C61.6,178.2,62.1,178.2,62.7,178.1z"/>
		<polygon style="fill:#009A43;" points="68.5,207.9 66.8,207.9 59.5,187.4 61.1,187.5 		"/>
		<polygon style="fill:#009A43;" points="77.1,182 84.4,202.5 77.9,208.2 71,208 63.6,187.6 70.6,187.8 		"/>
		<path style="fill:#009A43;" d="M71.8,174.4l6.9,0.8l1.1,3.2l-1.2,1.1l-1.2-3.4l-6.8-0.7C71,175,71.5,174.7,71.8,174.4z"/>
		<polygon style="fill:#009A43;" points="75.7,178.3 76.7,181.1 70.2,186.9 63.3,186.6 61.8,182.5 66.8,177.3 		"/>
	</g>
	<path style="fill:#009A43;" d="M45.3,170.2c0.4,0.8,0.9,1.2,1.4,1.6c1,0.7,1.9,1.1,2.8,1.5c1.9,0.8,3.7,1.3,5.5,2.1
		c1.9,0.7,3.8,1.3,5.9,1.4c1,0,2.1,0,3.1-0.6c0.5-0.3,0.9-0.7,1.2-1.1c0-0.1,0.1-0.1,0.1-0.2c0.2,0,0.5-0.1,0.7-0.1
		c0.2-0.1,0.5-0.2,0.7-0.3c0.1,0,0.1,0,0.2,0.1c0.5,0.2,1.1,0.2,1.6,0.1c1.1-0.2,2-0.8,2.7-1.5c1.5-1.4,2.7-3.1,3.6-4.8
		c0.9-1.7,2-3.3,2.9-5.1c0.5-0.9,0.9-1.8,1.2-3c0.1-0.6,0.2-1.3,0-2.1c-0.1-0.4-0.4-0.9-0.7-1.2c-0.3-0.4-0.7-0.6-1.1-0.8l-0.2-0.1
		l-0.3-0.1c-0.2-0.1-0.4-0.1-0.5-0.1c-0.3-0.1-0.7-0.1-1-0.1c-0.6,0-1.2,0.1-1.8,0.2c-1.1,0.3-2.1,0.7-3.1,1.3
		c-1.1,0.7-2.1,1.6-3,2.6c-0.4-0.8-0.9-1.7-1.5-2.4c-0.7-0.9-1.5-1.8-2.7-2.5c-0.6-0.3-1.2-0.7-2-0.8c-0.4-0.1-0.8-0.1-1.3-0.1
		c-0.2,0-0.4,0-0.7,0.1c-0.1,0-0.3,0.1-0.3,0.1l-0.1,0l0,0l-0.1,0c-0.9,0.3-1.6,0.9-2.1,1.5c-0.5,0.6-0.8,1.3-1,1.9
		c-0.4,1.3-0.4,2.5-0.3,3.6c0.1,1,0.4,2,0.7,2.9c-1.4-0.3-3-0.4-4.4-0.2c-1.1,0.2-2.2,0.5-3.2,1c-0.5,0.3-1,0.6-1.5,1
		c-0.2,0.2-0.5,0.4-0.7,0.7c-0.1,0.1-0.2,0.2-0.3,0.4l-0.2,0.3l-0.1,0.2c-0.2,0.4-0.3,0.8-0.4,1.3C45,169.3,45.1,169.8,45.3,170.2z
		 M58.9,167.4c1.1,0.5,2.1,1.1,3.1,1.8c0.8,0.6,1.4,1.2,2,2c0.3,0.4,0.5,0.8,0.7,1.2c0,0,0,0,0,0.1c0.2,0.4,0.3,0.8,0.3,1.2
		c0,0.3,0,0.5-0.1,0.8c-0.5,0-1.1-0.2-1.6-0.5c-0.8-0.5-1.5-1.2-2.1-1.9C60.1,170.5,59.4,169,58.9,167.4z M60,158.4L60,158.4
		C60,158.4,60,158.4,60,158.4L60,158.4z M65.3,163.1c-0.6,1.5-1,3.1-1.1,4.7c-0.1,0.7-0.1,1.3-0.1,2c-0.4-0.6-0.9-1.1-1.4-1.5
		c-0.7-0.7-1.5-1.4-2.4-1.9c-0.6-0.4-1.3-0.8-2-1.2c-0.2-1.3-0.1-2.6,0.2-3.8c0.2-0.8,0.4-1.6,0.7-2.2c0.2-0.3,0.3-0.5,0.4-0.6
		c0.1-0.1,0.2-0.2,0.3-0.2l0.1,0c0,0,0,0,0,0c0,0,0,0,0,0c0,0,0,0,0,0c0,0,0,0,0,0c0.1,0,0.1,0,0.2,0c0.2,0,0.4,0.1,0.7,0.2
		c0.6,0.3,1.2,0.8,1.8,1.3C63.8,160.8,64.6,161.9,65.3,163.1z M66,173.2c-0.3-0.3-0.5-0.7-0.6-1.1c0,0,0-0.1,0-0.1
		c-0.1-0.4-0.2-0.8-0.2-1.3c-0.1-0.9,0-1.9,0.2-2.8c0.2-1,0.6-2,1-2.9c0.6,1.4,1,2.9,1.2,4.4c0.1,0.9,0,1.9-0.2,2.7
		c-0.2,0.5-0.4,1.1-0.8,1.4C66.3,173.6,66.1,173.4,66,173.2z M67.2,174c0.4-0.4,0.7-0.9,1-1.4c0.4-1,0.7-2,0.8-3.1
		c0.2-2.1,0-4.2-0.5-6.2c-0.1-0.4-0.2-0.8-0.3-1.2c0.9-1.1,2.1-2,3.3-2.6c0.8-0.4,1.6-0.7,2.4-0.8c0.8-0.1,1.6-0.1,2,0.1
		c0,0,0.1,0.1,0.1,0.1c0,0,0,0,0,0c0,0.1,0.1,0.4,0,0.8c-0.1,0.7-0.4,1.6-0.7,2.5c-0.6,1.8-1.4,3.6-2.2,5.4c-0.7,1.7-1.5,3.5-2.6,5
		c-0.6,0.7-1.3,1.3-2.2,1.5C67.9,174.1,67.6,174.1,67.2,174z M48,169C48,168.9,48,168.9,48,169C48,168.9,48,168.9,48,169
		c0.2-0.6,0.8-1.1,1.5-1.5c0.7-0.4,1.5-0.7,2.3-0.9c1.6-0.4,3.2-0.4,4.8,0c0.1,0.3,0.2,0.6,0.4,0.9l0,0c0.9,1.9,2,3.6,3.4,5.1
		c0.7,0.7,1.5,1.4,2.4,1.9c0.5,0.3,1,0.5,1.6,0.6c-0.2,0.3-0.5,0.6-0.8,0.7c-0.8,0.4-1.7,0.4-2.6,0.2c-1.8-0.4-3.5-1.3-5.2-2.1
		c-1.7-0.9-3.5-1.8-5.1-2.8c-0.8-0.5-1.6-1-2.2-1.5C48.2,169.3,48,169.1,48,169z"/>
</g>
<g>
	<path style="fill:#009A43;" d="M149.2,122.9c0-0.3,0-0.7-0.2-1c-0.1-0.3-0.3-0.6-0.5-0.8c-0.2-0.2-0.4-0.3-0.6-0.4
		c-0.7-0.4-1.2-0.5-1.6-0.6c-0.9-0.2-1.7-0.2-2.4-0.2c-1.5,0-3,0.2-4.4,0.4c-1.4,0.2-2.9,0.6-4.3,1c-0.7,0.2-1.4,0.5-2.2,0.9
		c-0.4,0.2-0.8,0.4-1.2,0.8c-0.2,0.2-0.5,0.4-0.7,0.8c-0.1,0.2-0.2,0.5-0.3,0.8c-0.1,0.3,0,0.7,0.1,1c0.1,0.2,0.1,0.3,0.2,0.4
		l0.1,0.1l0.2,0.3c0.1,0.2,0.2,0.3,0.3,0.5c0.2,0.3,0.4,0.6,0.7,0.9l1.3,1.6c0.8,1.1,1.7,2.2,2.4,3.3c1.6,2.2,3,4.5,4.1,6.9
		c1.1,2.4,1.9,5,2.2,7.7c0,0.3,0.3,0.5,0.6,0.5c0.2,0,0.4-0.2,0.5-0.4l0,0c1.1-5.4,2-10.9,3.1-16.2c0.3-1.3,0.6-2.6,1-3.9
		c0.2-0.6,0.4-1.2,0.6-1.7c0.1-0.3,0.2-0.5,0.3-0.7l0.1-0.1l0.1-0.1l0.1-0.1c0.1-0.1,0.1-0.2,0.2-0.2c0.1-0.2,0.2-0.3,0.3-0.6
		C149.1,123.5,149.2,123.2,149.2,122.9z M140.8,123.4c0.6-0.1,1.7-0.2,2.6-0.2c1.2-0.1,1.9,0.5,1.6,1.3c-0.2,0.5-0.4,1.1-0.5,1.4
		c-0.4,1.4-0.6,2.8-0.9,4.2c-0.3,1.7-0.5,4.7-0.6,6.7c-0.1,1.2-0.5,1.2-1,0.2c-0.8-1.9-2.1-4.6-3-6.2c-0.7-1.2-1.5-2.4-2.3-3.5
		c0,0-0.4-0.6-0.8-1.2c-0.4-0.6-0.8-1.2-0.8-1.2c0,0,0,0,0,0c0.5-0.2,1.1-0.4,1.7-0.6C138.2,123.8,139.5,123.6,140.8,123.4z
		 M134,136.7c-1.6-1.6-3.3-3.2-5.7-4.2c-0.6-0.3-1.3-0.5-2-0.6c-0.7-0.1-1.5-0.2-2.4,0c-0.8,0.2-1.7,0.6-2.3,1.2
		c-0.7,0.6-1.1,1.2-1.5,1.9L120,135l0,0.1l-0.1,0.2c-0.1,0.2-0.2,0.3-0.2,0.5c-0.1,0.3-0.3,0.7-0.3,1c-0.2,0.7-0.3,1.5-0.2,2.3
		c0.1,0.8,0.3,1.6,0.7,2.3c0.4,0.7,0.8,1.3,1.3,1.8c1,1,2.1,1.6,3.2,2.2c1.1,0.5,2.2,0.9,3.3,1.2c2.2,0.6,4.4,0.9,6.6,1.1
		c1.1,0.1,2.2,0.2,3.3,0.2c1.1,0,2.2,0,3.3-0.1l0,0l0.1,0c0,0,0.1,0,0.1,0c0.1,0,0.1-0.1,0.2-0.2c0.1-0.1,0.1-0.2,0.1-0.3
		c0-0.2-0.1-0.3-0.1-0.5c-0.1-0.3-0.2-0.5-0.3-0.8c-0.2-0.5-0.5-1-0.8-1.5c-0.6-1-1.2-1.9-1.8-2.8C137,140.1,135.6,138.3,134,136.7z
		 M140.8,147.4C140.8,147.4,140.8,147.4,140.8,147.4C140.7,147.4,140.7,147.4,140.8,147.4C140.8,147.4,140.8,147.4,140.8,147.4z
		 M130.9,137.7c2,1.3,3.8,2.9,5.6,4.5c0.9,0.8,1.7,1.7,2.5,2.6c0.4,0.5,0.8,0.9,1.1,1.4c0.2,0.2,0.3,0.5,0.5,0.7
		c0.1,0.1,0.1,0.3,0.1,0.4c0,0,0,0,0,0c-2.4-0.2-4.8-0.8-7.1-1.4c-2.3-0.7-4.6-1.6-6.7-2.6c-1-0.5-2-1.1-2.9-1.7
		c-0.9-0.6-1.7-1.3-2.2-2c-0.6-0.7-0.8-1.4-0.8-2c0-0.6,0.2-1.3,0.6-2.1c0.2-0.3,0.4-0.6,0.6-0.8c0.2-0.2,0.4-0.3,0.6-0.3
		c0.5-0.2,1.3-0.1,2.3,0.2c0.9,0.3,1.9,0.8,2.9,1.3C128.9,136.4,129.9,137,130.9,137.7z"/>
	<path style="fill:#009A43;" d="M163.7,146.5l-31.6,17.4c-0.7,0.4-1.6,0.2-2-0.5l-2.3-3.2c-0.7-1-0.4-2.3,0.7-2.9l31.6-17.4
		c1.1-0.6,2.4-0.2,2.8,1l1.5,3.7C164.7,145.3,164.4,146.2,163.7,146.5z"/>
	<path style="fill:#009A43;" d="M132.7,164.9l11.5,16.3c1.1,1.6,3.4,2.1,5.1,1.2l20.8-11.4c1.7-0.9,2.5-3.1,1.7-4.9l-7.6-18.5
		L132.7,164.9z M151.7,157c0.4,0.7,0.1,1.6-0.6,2c-0.7,0.4-1.6,0.1-2-0.6c-0.4-0.7-0.1-1.6,0.6-2C150.5,156.1,151.3,156.3,151.7,157
		z M155.6,161.5c0.4,0.7,0.1,1.5-0.6,1.9c-0.7,0.4-1.5,0.1-1.9-0.6c-0.4-0.7-0.1-1.5,0.6-1.9C154.3,160.6,155.2,160.8,155.6,161.5z
		 M162.9,155.8c-1.1,0.6-2.4,0.2-3-0.9c-0.6-1.1-0.2-2.4,0.9-3c1.1-0.6,2.4-0.2,3,0.9C164.4,153.9,164,155.3,162.9,155.8z
		 M163.7,169.1c-0.5-0.9-0.2-2,0.7-2.5c0.9-0.5,2-0.2,2.5,0.7c0.5,0.9,0.2,2-0.7,2.5C165.4,170.3,164.2,170,163.7,169.1z
		 M159.5,162.8c-0.7-1.4-0.3-3.1,1.1-3.8c1.4-0.7,3.1-0.3,3.8,1.1c0.7,1.4,0.3,3.1-1.1,3.8C162,164.7,160.3,164.2,159.5,162.8z
		 M155.5,172.5c-0.7-1.3-0.2-2.9,1.1-3.6c1.3-0.7,2.9-0.2,3.6,1.1c0.7,1.3,0.2,2.9-1.1,3.6C157.9,174.3,156.2,173.8,155.5,172.5z
		 M152.2,168c-1.3,0.7-2.9,0.2-3.6-1c-0.7-1.3-0.2-2.9,1-3.6c1.3-0.7,2.9-0.2,3.6,1C153.9,165.7,153.4,167.3,152.2,168z
		 M151.2,174.9c-0.4-0.7-0.1-1.5,0.6-1.9c0.7-0.4,1.5-0.1,1.9,0.6c0.4,0.7,0.1,1.5-0.6,1.9C152.4,175.8,151.6,175.5,151.2,174.9z
		 M141.6,166.6c-1,0.5-2.2,0.2-2.8-0.8c-0.5-1-0.2-2.2,0.8-2.8c1-0.5,2.2-0.2,2.8,0.8C143,164.8,142.6,166.1,141.6,166.6z
		 M141.3,168.7c0.8-0.5,1.8-0.2,2.3,0.7c0.4,0.8,0.2,1.9-0.7,2.3c-0.8,0.5-1.8,0.2-2.3-0.7C140.2,170.1,140.5,169.1,141.3,168.7z
		 M145.5,179.1c-0.4-0.8-0.1-1.8,0.7-2.3c0.8-0.4,1.8-0.1,2.3,0.7c0.4,0.8,0.1,1.8-0.7,2.3C146.9,180.3,145.9,180,145.5,179.1z"/>
</g>
<g>
	<g>
		<path style="fill:#009A43;" d="M243.7,31.1l2.6,6.5c0.2,0.5,0,1.1-0.6,1.3l-14.6,5.8l-3.9-9.9c5-1.9,10.1-3.4,15.2-4.5
			C242.9,30.2,243.5,30.6,243.7,31.1z"/>
		<path style="fill:#009A43;" d="M244.7,41.5l5.1,12.8c0.2,0.5,0,1.1-0.6,1.3l-11.9,4.7l-5.8-14.7l11.9-4.7
			C243.9,40.7,244.5,41,244.7,41.5z"/>
		<path style="fill:#009A43;" d="M216.8,51.5l11.9-4.7l5.8,14.7l-11.9,4.7c-0.5,0.2-1.1,0-1.3-0.6l-5.1-12.8
			C216,52.3,216.3,51.7,216.8,51.5z"/>
		<path style="fill:#009A43;" d="M210.3,43.1c4.7-2.7,9.4-5.1,14.1-7.1l3.9,9.9l-14.6,5.8c-0.5,0.2-1.1,0-1.3-0.6l-2.6-6.5
			C209.6,44,209.8,43.4,210.3,43.1z"/>
	</g>
	<g>
		<path style="fill:#009A43;" d="M218.4,19.6C218.4,19.6,218.4,19.6,218.4,19.6C218.4,19.5,218.4,19.5,218.4,19.6
			C218.4,19.6,218.4,19.6,218.4,19.6C218.4,19.6,218.4,19.6,218.4,19.6z"/>
		<path style="fill:#009A43;" d="M199.9,27.5c0,0,15.3,12.8,24.1,6.4c0.2,0,0.4-0.1,0.6-0.2c0.8-0.3,1.3-1,1.7-1.7c0,0,0,0.1,0,0.1
			c0,0.2,0.1,0.3,0.3,0.4c0.3,0.2,0.5,0.2,0.7,0.2c0.2,0,0.4,0,0.6-0.1c0.8-0.2,1.5-0.4,2.2-0.7c1.4-0.6,2.8-1.4,3.9-2.4
			c1.1-1,2.2-1.9,3.4-2.9c0.6-0.5,1.1-1.1,1.6-1.9c0.2-0.4,0.5-0.9,0.5-1.6c0-0.4,0-0.8-0.2-1.1c-0.2-0.4-0.4-0.7-0.7-0.9l-0.1-0.1
			l-0.2-0.2c-0.1-0.1-0.2-0.2-0.4-0.2c-0.2-0.1-0.5-0.2-0.7-0.3c-0.5-0.2-0.9-0.2-1.4-0.3c-0.9-0.1-1.7,0-2.6,0.2
			c-1.6,0.4-3.1,1.2-4.3,2.3c-0.1,0.1-0.3,0.3-0.4,0.4l-0.1,0.1l-0.1,0.1l0,0.1l-0.2,0.2c-0.3,0.3-0.5,0.7-0.7,1
			c-0.4,0.7-0.6,1.5-0.8,2.2c-0.1-1.1-0.4-2.3-0.7-3.4c-0.6-1.8-1.4-3.5-2.8-5.1c-0.7-0.8-1.5-1.5-2.5-2c-0.5-0.3-1.1-0.5-1.9-0.6
			c-0.4,0-0.7,0-1.1,0c-0.2,0-0.4,0.1-0.6,0.1c-0.1,0-0.3,0.1-0.3,0.1l-0.1,0l0,0l-0.1,0.1c-0.7,0.3-1.4,0.9-1.8,1.5
			c-0.4,0.6-0.6,1.2-0.8,1.8c-0.3,1.2-0.2,2.2,0,3.2c0.4,2,1.2,3.7,2.1,5.3l0,0c0.9,1.6,2,3.1,3.4,4.3c0.7,0.6,1.4,1.1,2.3,1.5
			c0.1,0.1,0.4,0.7,0.6,0.7c-3.6,2-11-2.7-11.8-9.2C205.1,28.8,199.9,27.5,199.9,27.5z M226.9,31.9c0-0.1,0.1-0.3,0.2-0.5
			c0.2-0.8,0.3-1.5,0.3-2.3c0.1-0.7,0.2-1.4,0.4-2.1c0.2-0.7,0.5-1.3,0.9-1.8c0.2-0.3,0.4-0.5,0.7-0.7l0.2-0.2l0.1,0c0,0,0,0,0,0
			l0.1-0.1c0.1-0.1,0.3-0.2,0.4-0.3c1.1-0.8,2.3-1.2,3.6-1.4c0.6-0.1,1.3-0.1,1.8,0c0.6,0.1,1.1,0.3,1.3,0.5c0,0.1-0.1,0.2-0.2,0.4
			c-0.2,0.5-0.7,1-1.1,1.6c-0.9,1.1-1.9,2.2-2.8,3.4c-0.9,1-2,2-3.2,2.8c-0.6,0.4-1.3,0.7-1.9,0.9c-0.2,0-0.3,0.1-0.5,0.1
			c-0.2,0-0.3,0-0.3-0.1C226.9,32,226.9,32,226.9,31.9z M224.4,33.2c-0.7,0.3-1.6,0.2-2.3-0.1c-0.7-0.4-1.4-0.9-2-1.6
			c-1.1-1.3-1.9-2.8-2.4-4.4l0,0c-0.6-1.6-0.7-3.3-0.5-4.8c0.1-0.7,0.3-1.5,0.5-2c0.1-0.3,0.2-0.5,0.3-0.6c0.1-0.1,0.2-0.1,0.2-0.2
			l0.1,0c0,0,0,0,0,0c0,0,0,0,0,0c0,0,0,0,0,0c0,0,0,0,0,0c0,0,0.1,0,0.2,0c0.2,0,0.4,0,0.6,0.1c0.5,0.2,1.1,0.6,1.7,1.1
			c1.1,0.9,2.2,2.2,3,3.6c0.8,1.4,1.5,3,1.8,4.6c0.1,0.8,0.1,1.6,0,2.4C225.5,32.1,225.1,32.9,224.4,33.2z"/>
	</g>
</g>
<g>
	<g>
		<path style="fill:#009A43;" d="M243.6,242.3l2.6,6.5c0.2,0.5,0,1.1-0.6,1.3L231,256l-3.9-9.9c5-1.9,10.1-3.4,15.2-4.5
			C242.8,241.5,243.4,241.8,243.6,242.3z"/>
		<path style="fill:#009A43;" d="M244.6,252.7l5.1,12.8c0.2,0.5,0,1.1-0.6,1.3l-11.9,4.7l-5.8-14.7l11.9-4.7
			C243.8,252,244.4,252.2,244.6,252.7z"/>
		<path style="fill:#009A43;" d="M216.6,262.7l11.9-4.7l5.8,14.7l-11.9,4.7c-0.5,0.2-1.1,0-1.3-0.6l-5.1-12.8
			C215.9,263.5,216.1,262.9,216.6,262.7z"/>
		<path style="fill:#009A43;" d="M210.2,254.3c4.7-2.7,9.4-5.1,14.1-7.1l3.9,9.9l-14.6,5.8c-0.5,0.2-1.1,0-1.3-0.6l-2.6-6.5
			C209.4,255.3,209.7,254.6,210.2,254.3z"/>
	</g>
	<g>
		<path style="fill:#009A43;" d="M218.2,230.8C218.3,230.8,218.3,230.8,218.2,230.8C218.3,230.8,218.3,230.8,218.2,230.8
			C218.3,230.8,218.3,230.8,218.2,230.8C218.2,230.8,218.2,230.8,218.2,230.8z"/>
		<path style="fill:#009A43;" d="M199.8,238.8c0,0,15.3,12.8,24.1,6.4c0.2,0,0.4-0.1,0.6-0.2c0.8-0.3,1.3-1,1.7-1.7c0,0,0,0.1,0,0.1
			c0,0.2,0.1,0.3,0.3,0.4c0.3,0.2,0.5,0.2,0.7,0.2c0.2,0,0.4,0,0.6-0.1c0.8-0.2,1.5-0.4,2.2-0.7c1.4-0.6,2.8-1.4,3.9-2.4
			c1.1-1,2.2-1.9,3.4-2.9c0.6-0.5,1.1-1.1,1.6-1.9c0.2-0.4,0.5-0.9,0.5-1.6c0-0.4,0-0.8-0.2-1.1c-0.2-0.4-0.4-0.7-0.7-0.9l-0.1-0.1
			l-0.2-0.2c-0.1-0.1-0.2-0.2-0.4-0.2c-0.2-0.1-0.5-0.2-0.7-0.3c-0.5-0.2-0.9-0.2-1.4-0.3c-0.9-0.1-1.7,0-2.6,0.2
			c-1.6,0.4-3.1,1.2-4.3,2.3c-0.1,0.1-0.3,0.3-0.4,0.4l-0.1,0.1l-0.1,0.1l0,0.1l-0.2,0.2c-0.3,0.3-0.5,0.7-0.7,1
			c-0.4,0.7-0.6,1.5-0.8,2.2c-0.1-1.1-0.4-2.3-0.7-3.4c-0.6-1.8-1.4-3.5-2.8-5.1c-0.7-0.8-1.5-1.5-2.5-2c-0.5-0.3-1.1-0.5-1.9-0.6
			c-0.4,0-0.7,0-1.1,0c-0.2,0-0.4,0.1-0.6,0.1c-0.1,0-0.3,0.1-0.3,0.1l-0.1,0l0,0l-0.1,0.1c-0.7,0.3-1.4,0.9-1.8,1.5
			c-0.4,0.6-0.6,1.2-0.8,1.8c-0.3,1.2-0.2,2.2,0,3.2c0.4,2,1.2,3.7,2.1,5.3l0,0c0.9,1.6,2,3.1,3.4,4.3c0.7,0.6,1.4,1.1,2.3,1.5
			c0.1,0.1,0.4,0.7,0.6,0.7c-3.6,2-11-2.7-11.8-9.2C205,240.1,199.8,238.8,199.8,238.8z M226.8,243.1c0-0.1,0.1-0.3,0.2-0.5
			c0.2-0.8,0.3-1.5,0.3-2.3c0.1-0.7,0.2-1.4,0.4-2.1c0.2-0.7,0.5-1.3,0.9-1.8c0.2-0.3,0.4-0.5,0.7-0.7l0.2-0.2l0.1,0c0,0,0,0,0,0
			l0.1-0.1c0.1-0.1,0.3-0.2,0.4-0.3c1.1-0.8,2.3-1.2,3.6-1.4c0.6-0.1,1.3-0.1,1.8,0c0.6,0.1,1.1,0.3,1.3,0.5c0,0.1-0.1,0.2-0.2,0.4
			c-0.2,0.5-0.7,1-1.1,1.6c-0.9,1.1-1.9,2.2-2.8,3.4c-0.9,1-2,2-3.2,2.8c-0.6,0.4-1.3,0.7-1.9,0.9c-0.2,0-0.3,0.1-0.5,0.1
			c-0.2,0-0.3,0-0.3-0.1C226.8,243.3,226.7,243.3,226.8,243.1z M224.2,244.5c-0.7,0.3-1.6,0.2-2.3-0.1c-0.7-0.4-1.4-0.9-2-1.6
			c-1.1-1.3-1.9-2.8-2.4-4.4l0,0c-0.6-1.6-0.7-3.3-0.5-4.8c0.1-0.7,0.3-1.5,0.5-2c0.1-0.3,0.2-0.5,0.3-0.6c0.1-0.1,0.2-0.1,0.2-0.2
			l0.1,0c0,0,0,0,0,0c0,0,0,0,0,0c0,0,0,0,0,0c0,0,0,0,0,0c0,0,0.1,0,0.2,0c0.2,0,0.4,0,0.6,0.1c0.5,0.2,1.1,0.6,1.7,1.1
			c1.1,0.9,2.2,2.2,3,3.6c0.8,1.4,1.5,3,1.8,4.6c0.1,0.8,0.1,1.6,0,2.4C225.3,243.4,224.9,244.1,224.2,244.5z"/>
	</g>
</g>
</svg>
